<svg width="41" height="40" viewBox="0 0 41 40" fill="none" xmlns="http://www.w3.org/2000/svg">
<g id="3204008_completed_cryptocurrency_currency_digital_order_icon 1">
<rect x="0.525391" width="40" height="40" rx="10" fill="#F8F9FA"/>
<g id="Group 2285">
<path id="XMLID_4_" d="M25.5092 23.1562H29.3186C29.5214 23.1562 29.7018 23.314 29.7018 23.5394V30.6173C29.7018 30.8202 29.544 31.0005 29.3186 31.0005H25.5092C25.3063 31.0005 25.126 30.8427 25.126 30.6173V23.5394C25.126 23.314 25.3063 23.1562 25.5092 23.1562Z" fill="#D0EDFB" stroke="#1B68BB" stroke-miterlimit="10" stroke-linecap="round" stroke-linejoin="round"/>
<path id="XMLID_3_" d="M19.2201 19.8652H23.0295C23.2324 19.8652 23.4127 20.023 23.4127 20.2484V30.6173C23.4127 30.8201 23.2549 31.0005 23.0295 31.0005H19.2201C19.0172 31.0005 18.8369 30.8427 18.8369 30.6173V20.2484C18.8369 20.023 18.9947 19.8652 19.2201 19.8652Z" stroke="#1B68BB" stroke-miterlimit="10" stroke-linecap="round" stroke-linejoin="round"/>
<path id="XMLID_2_" d="M12.9086 16.0781H16.718C16.9208 16.0781 17.1012 16.2359 17.1012 16.4613V30.617C17.1012 30.8199 16.9434 31.0002 16.718 31.0002H12.9086C12.7057 31.0002 12.5254 30.8424 12.5254 30.617V16.4388C12.5479 16.2359 12.7057 16.0781 12.9086 16.0781Z" fill="#D0EDFB" stroke="#1B68BB" stroke-miterlimit="10" stroke-linecap="round" stroke-linejoin="round"/>
<path id="XMLID_1_" d="M26.3443 20.4565V19.1066H28.087L21.6071 12.7984L18.9071 15.302L12.5254 8.60118L13.5072 7.66846L18.9562 13.3875L21.6071 10.9084L29.0688 18.1738V16.4557H30.4188V20.4565H26.3443Z" stroke="#1B68BB" stroke-miterlimit="10" stroke-linecap="round" stroke-linejoin="round"/>
</g>
</g>
</svg>
