<svg width="41" height="40" viewBox="0 0 41 40" fill="none" xmlns="http://www.w3.org/2000/svg">
<g id="3204008_completed_cryptocurrency_currency_digital_order_icon 1">
<rect x="0.924805" width="40" height="40" rx="10" fill="#F8F9FA"/>
<g id="Group">
<path id="Vector" d="M28.4613 14.0547H27.3379C25.4187 14.0547 23.874 15.6462 23.874 17.5653V22.8546H25.3251V29.6886C25.3251 30.4375 25.8868 30.9992 26.6357 30.9992C27.2442 30.9992 27.7591 30.578 27.8996 29.9694C28.04 30.578 28.5549 30.9992 29.1634 30.9992C29.8655 30.9992 30.474 30.3907 30.474 29.6886V22.8546H31.9251V17.5653C31.9251 15.5994 30.3804 14.0547 28.4613 14.0547Z" fill="#D0EDFB" stroke="#1B68BB" stroke-miterlimit="10" stroke-linecap="round" stroke-linejoin="round"/>
<path id="Vector_2" d="M27.8994 13.5872C29.0369 13.5872 29.959 12.5603 29.959 11.2936C29.959 10.0269 29.0369 9 27.8994 9C26.7619 9 25.8398 10.0269 25.8398 11.2936C25.8398 12.5603 26.7619 13.5872 27.8994 13.5872Z" fill="#D0EDFB" stroke="#1B68BB" stroke-miterlimit="10" stroke-linecap="round" stroke-linejoin="round"/>
<path id="Vector_3" d="M19.7543 15.9746L16.6182 19.1108H18.116V31H21.3926V19.1108H22.8905L19.7543 15.9746Z" stroke="#1B68BB" stroke-miterlimit="10" stroke-linecap="round" stroke-linejoin="round"/>
<path id="Vector_4" d="M13.061 21.6846L9.9248 24.8675H11.4227V30.9994H14.7461V24.8675H16.244L13.061 21.6846Z" stroke="#1B68BB" stroke-miterlimit="10" stroke-linecap="round" stroke-linejoin="round"/>
</g>
</g>
</svg>
