<svg width="23" height="23" viewBox="0 0 23 23" fill="none" xmlns="http://www.w3.org/2000/svg">
<g id="Asset">
<g id="icons">
<g id="Group">
<path id="Vector" d="M5.66148 3.77454V5.54867H1.50032V3.77454C1.50032 2.64554 2.43578 1.71008 3.56477 1.71008C4.1454 1.71008 4.66151 1.93588 5.0486 2.32297C5.43568 2.71005 5.66148 3.22617 5.66148 3.77454Z" stroke="#202833" stroke-width="0.65" stroke-miterlimit="10" stroke-linecap="round" stroke-linejoin="round"/>
<path id="Vector_2" d="M3.56454 1.71008H15.2739C15.8545 1.71008 16.3706 1.93588 16.7577 2.32297C17.048 2.61328 17.2415 2.96811 17.3383 3.38745V18.1612" stroke="#202833" stroke-width="0.65" stroke-miterlimit="10" stroke-linecap="round" stroke-linejoin="round"/>
<path id="Vector_3" d="M11.339 18.3869H17.3388V18.3546" stroke="#202833" stroke-width="0.65" stroke-miterlimit="10" stroke-linecap="round" stroke-linejoin="round"/>
<path id="Vector_4" d="M9.79021 8.03271C10.8869 8.03271 11.9514 8.03271 13.0482 8.03271" stroke="#202833" stroke-width="0.65" stroke-miterlimit="10" stroke-linecap="round" stroke-linejoin="round"/>
<path id="Vector_5" d="M7.9198 8.03271C8.11334 8.03271 8.33914 8.03271 8.53268 8.03271" stroke="#202833" stroke-width="0.65" stroke-miterlimit="10" stroke-linecap="round" stroke-linejoin="round"/>
<path id="Vector_6" d="M10.7906 9.32288C11.5325 9.32288 12.3067 9.32288 13.0486 9.32288" stroke="#202833" stroke-width="0.65" stroke-miterlimit="10" stroke-linecap="round" stroke-linejoin="round"/>
<path id="Vector_7" d="M7.9198 9.32288C8.3714 9.32288 8.823 9.32288 9.2746 9.32288" stroke="#202833" stroke-width="0.65" stroke-miterlimit="10" stroke-linecap="round" stroke-linejoin="round"/>
<path id="Vector_8" d="M7.9198 4.35535H10.2101" stroke="#202833" stroke-width="0.65" stroke-miterlimit="10" stroke-linecap="round" stroke-linejoin="round"/>
<path id="Vector_9" d="M7.95197 5.51654H11.5002" stroke="#202833" stroke-width="0.65" stroke-miterlimit="10" stroke-linecap="round" stroke-linejoin="round"/>
<path id="Vector_10" d="M7.9198 10.7422H11.4681" stroke="#202833" stroke-width="0.65" stroke-miterlimit="10" stroke-linecap="round" stroke-linejoin="round"/>
<path id="Vector_11" d="M10.0805 13.9677H7.82246" stroke="#202833" stroke-width="0.65" stroke-miterlimit="10" stroke-linecap="round" stroke-linejoin="round"/>
<path id="Vector_12" d="M12.2094 15.1292H7.82246" stroke="#202833" stroke-width="0.65" stroke-miterlimit="10" stroke-linecap="round" stroke-linejoin="round"/>
<path id="Vector_13" d="M5.66177 3.77429V5.54843V18.3545V19.2254C5.66177 20.3544 6.59723 21.2899 7.72623 21.2899M7.72623 21.2899C8.30685 21.2899 8.82297 21.0641 9.21005 20.677C9.59714 20.2899 9.82294 19.7738 9.82294 19.2254V18.3545H17.3711H21.5V19.2254C21.5 19.8061 21.2742 20.3222 20.8871 20.677C20.5 21.0641 19.9839 21.2899 19.4033 21.2899H10.6939H7.72623Z" stroke="#202833" stroke-width="0.65" stroke-miterlimit="10" stroke-linecap="round" stroke-linejoin="round"/>
</g>
</g>
</g>
</svg>
