<svg width="22" height="23" viewBox="0 0 22 23" fill="none" xmlns="http://www.w3.org/2000/svg">
<path d="M15.5 1.5H4L5.5 3.5V13.5V19.5L6 21H8.5L9 19.5L9.5 18H16.5V5V2.5L16 2L15.5 1.5Z" fill="#D0EDFB"/>
<path d="M5.16148 3.77454V5.54867H1.00032V3.77454C1.00032 2.64554 1.93578 1.71008 3.06477 1.71008C3.6454 1.71008 4.16151 1.93588 4.5486 2.32297C4.93568 2.71005 5.16148 3.22617 5.16148 3.77454Z" stroke="#1B68BB" stroke-width="0.65" stroke-miterlimit="10" stroke-linecap="round" stroke-linejoin="round"/>
<path d="M3.06454 1.71008H14.7739C15.3545 1.71008 15.8706 1.93588 16.2577 2.32297C16.548 2.61328 16.7415 2.96811 16.8383 3.38745V18.1612" stroke="#1B68BB" stroke-width="0.65" stroke-miterlimit="10" stroke-linecap="round" stroke-linejoin="round"/>
<path d="M10.839 18.3869H16.8388V18.3546" stroke="#1B68BB" stroke-width="0.65" stroke-miterlimit="10" stroke-linecap="round" stroke-linejoin="round"/>
<path d="M9.29021 8.03271C10.3869 8.03271 11.4514 8.03271 12.5482 8.03271" stroke="#1B68BB" stroke-width="0.65" stroke-miterlimit="10" stroke-linecap="round" stroke-linejoin="round"/>
<path d="M7.4198 8.03271C7.61334 8.03271 7.83914 8.03271 8.03268 8.03271" stroke="#1B68BB" stroke-width="0.65" stroke-miterlimit="10" stroke-linecap="round" stroke-linejoin="round"/>
<path d="M10.2906 9.32288C11.0325 9.32288 11.8067 9.32288 12.5486 9.32288" stroke="#1B68BB" stroke-width="0.65" stroke-miterlimit="10" stroke-linecap="round" stroke-linejoin="round"/>
<path d="M7.4198 9.32288C7.8714 9.32288 8.323 9.32288 8.7746 9.32288" stroke="#1B68BB" stroke-width="0.65" stroke-miterlimit="10" stroke-linecap="round" stroke-linejoin="round"/>
<path d="M7.4198 4.35535H9.71005" stroke="#1B68BB" stroke-width="0.65" stroke-miterlimit="10" stroke-linecap="round" stroke-linejoin="round"/>
<path d="M7.45197 5.51654H11.0002" stroke="#1B68BB" stroke-width="0.65" stroke-miterlimit="10" stroke-linecap="round" stroke-linejoin="round"/>
<path d="M7.4198 10.7422H10.9681" stroke="#1B68BB" stroke-width="0.65" stroke-miterlimit="10" stroke-linecap="round" stroke-linejoin="round"/>
<path d="M9.58046 13.9677H7.32246" stroke="#1B68BB" stroke-width="0.65" stroke-miterlimit="10" stroke-linecap="round" stroke-linejoin="round"/>
<path d="M11.7094 15.1292H7.32246" stroke="#1B68BB" stroke-width="0.65" stroke-miterlimit="10" stroke-linecap="round" stroke-linejoin="round"/>
<path d="M5.16177 3.77429V5.54843V18.3545V19.2254C5.16177 20.3544 6.09723 21.2899 7.22623 21.2899M7.22623 21.2899C7.80685 21.2899 8.32297 21.0641 8.71005 20.677C9.09714 20.2899 9.32294 19.7738 9.32294 19.2254V18.3545H16.8711H21V19.2254C21 19.8061 20.7742 20.3222 20.3871 20.677C20 21.0641 19.4839 21.2899 18.9033 21.2899H10.1939H7.22623Z" stroke="#1B68BB" stroke-width="0.65" stroke-miterlimit="10" stroke-linecap="round" stroke-linejoin="round"/>
</svg>
