<svg width="46" height="48" viewBox="0 0 46 48" fill="none" xmlns="http://www.w3.org/2000/svg">
<path d="M45.7789 23.9899C45.7789 23.001 45.3673 22.0499 44.6081 21.1618C43.9812 20.4294 43.5263 19.5658 43.2767 18.6345C43.0272 17.7033 42.9894 16.728 43.1661 15.7802C43.3795 14.6315 43.2604 13.6021 42.766 12.7457C42.2715 11.8893 41.4395 11.2714 40.338 10.8819C39.4289 10.561 38.6031 10.0406 37.9214 9.35885C37.2396 8.67711 36.7192 7.85135 36.3984 6.94219C36.0088 5.84069 35.391 5.00875 34.5346 4.51429C33.6781 4.01982 32.6487 3.90072 31.5001 4.11416C30.5523 4.29086 29.5769 4.25305 28.6456 4.00351C27.7144 3.75398 26.8508 3.29904 26.1183 2.67211C25.2302 1.91289 24.2792 1.50134 23.2903 1.50134C22.3013 1.50134 21.3503 1.9129 20.4622 2.67209C19.7297 3.299 18.8662 3.75392 17.9349 4.00346C17.0036 4.25299 16.0283 4.2908 15.0805 4.1141C13.9318 3.90067 12.9024 4.01976 12.046 4.51423C11.1896 5.00871 10.5718 5.84064 10.1822 6.94214C9.86137 7.8513 9.34097 8.67706 8.65923 9.3588C7.97749 10.0405 7.15173 10.5609 6.24257 10.8818C5.14106 11.2713 4.30912 11.8892 3.81467 12.7456C3.32022 13.6021 3.2011 14.6315 3.41453 15.7801C3.59122 16.7279 3.55342 17.7032 3.30388 18.6345C3.05435 19.5658 2.59943 20.4293 1.97251 21.1618C1.21333 22.0498 0.801758 23.0009 0.801758 23.9898C0.801758 24.9788 1.21333 25.9298 1.97251 26.8179C2.59943 27.5504 3.05436 28.414 3.30388 29.3452C3.5534 30.2765 3.59119 31.2519 3.41448 32.1997C3.20104 33.3484 3.32014 34.3778 3.81462 35.2342C4.3091 36.0905 5.14101 36.7084 6.24251 37.098C7.15167 37.4188 7.97744 37.9392 8.65917 38.621C9.34091 39.3027 9.86132 40.1285 10.1822 41.0376C10.5717 42.1391 11.1895 42.9711 12.046 43.4655C12.9024 43.96 13.9318 44.0791 15.0805 43.8657C16.0283 43.689 17.0036 43.7268 17.9349 43.9763C18.8661 44.2258 19.7297 44.6808 20.4621 45.3077C21.3502 46.0669 22.3013 46.4784 23.2902 46.4784C24.2792 46.4784 25.2302 46.0669 26.1183 45.3077C26.8507 44.6808 27.7143 44.2259 28.6456 43.9763C29.5769 43.7268 30.5522 43.689 31.5 43.8657C32.6487 44.0791 33.6781 43.96 34.5345 43.4655C35.3909 42.9711 36.0088 42.1391 36.3983 41.0376C36.7192 40.1285 37.2396 39.3027 37.9213 38.621C38.6031 37.9392 39.4288 37.4188 40.338 37.098C41.4395 36.7085 42.2714 36.0906 42.7659 35.2342C43.2604 34.3777 43.3795 33.3483 43.166 32.1997C42.9893 31.2519 43.0271 30.2765 43.2767 29.3452C43.5262 28.414 43.9811 27.5504 44.6081 26.8179C45.3673 25.9299 45.7789 24.9788 45.7789 23.9899Z" fill="#A3D8F8"/>
<path d="M45.8049 24.6393C45.753 25.0038 45.6431 25.3576 45.4794 25.6874C45.3195 26.0238 45.1368 26.3251 45.021 26.5712C45.2305 26.4091 45.233 26.4056 45.1874 26.5875C45.3673 26.3454 45.5296 26.0906 45.6729 25.8251C45.662 25.8894 45.6471 25.953 45.6282 26.0154C45.582 26.1462 45.5212 26.2713 45.447 26.3885C45.4074 26.4518 45.3906 26.4274 45.3271 26.5082C45.2233 26.6368 45.1221 26.7642 45.0361 26.8811C44.992 26.9385 44.9524 26.9935 44.9184 27.0451C44.8909 27.0867 44.867 27.1305 44.8466 27.176C44.7486 27.394 44.7195 27.5446 44.8977 27.4292C44.8942 27.4507 44.8872 27.4714 44.8769 27.4906C44.8547 27.5338 44.8292 27.5751 44.8004 27.6142C44.3672 28.1965 44.0533 28.8586 43.8769 29.5626C43.8196 29.7783 43.7804 29.9952 43.7358 30.2066C43.7205 30.2854 43.7083 30.3684 43.6981 30.4521C43.6922 30.5361 43.6898 30.6209 43.6876 30.7028C43.678 31.15 43.7067 31.5972 43.7735 32.0395C43.9431 32.9786 43.9465 34.0623 43.5329 35.0397C43.3447 35.4962 43.0892 35.922 42.7749 36.3028C42.3039 36.8585 41.7075 37.2943 41.035 37.5743C40.8766 37.6426 40.7094 37.7057 40.5548 37.7616C40.426 37.8141 40.2924 37.8555 40.1674 37.9168L39.9769 38.0023L39.7916 38.0985C39.6661 38.1592 39.5501 38.2369 39.4294 38.3059C38.9584 38.6039 38.5325 38.9678 38.1645 39.3864C37.9476 39.6223 37.7649 39.8875 37.6218 40.1743C37.585 40.2634 37.4944 40.4013 37.4375 40.5235C37.3626 40.663 37.3007 40.8087 37.2374 40.9536C37.2058 41.0261 37.1813 41.1015 37.1527 41.1752L37.0603 41.4263C36.9219 41.8098 36.7459 42.1786 36.5348 42.5275C36.1882 43.102 35.7172 43.5914 35.1564 43.9597C34.5955 44.3281 33.9592 44.5659 33.2943 44.6556C32.9022 44.7113 32.5053 44.7252 32.1102 44.6972C31.9165 44.6838 31.7246 44.6628 31.5359 44.6333L31.2757 44.5928L31.0513 44.5595C30.941 44.5491 30.8322 44.5388 30.7237 44.5286C30.6149 44.5246 30.5068 44.5183 30.3982 44.5111C30.1254 44.5008 29.8523 44.5206 29.5839 44.5702C28.9493 44.6825 28.33 44.8688 27.7387 45.1253C27.4411 45.2581 27.158 45.4212 26.8939 45.6121C26.8243 45.657 26.7623 45.7122 26.6964 45.7625L26.5987 45.8395L26.4819 45.9345C26.3221 46.0662 26.1534 46.1907 25.9793 46.3092C25.4453 46.6799 24.8479 46.9496 24.2168 47.105C23.8974 47.1798 23.5714 47.2227 23.2436 47.2331C23.0269 47.2396 22.81 47.2275 22.5954 47.1967C21.9598 47.1071 21.3551 46.8657 20.8325 46.4929C20.6685 46.3766 20.4962 46.2478 20.3215 46.1104C20.2341 46.0417 20.1464 45.9708 20.0599 45.8972L19.9415 45.8004L19.8331 45.7139C19.4009 45.3655 18.9173 45.0861 18.3996 44.8857C18.0897 44.7715 17.7727 44.6776 17.4507 44.6046C17.1291 44.5369 16.8021 44.4988 16.4736 44.4907C16.3813 44.4921 16.2847 44.4906 16.1878 44.4872C16.0911 44.4882 15.9941 44.4892 15.9014 44.4901C15.8264 44.4889 15.7517 44.4981 15.6767 44.5018C15.6017 44.5071 15.5262 44.5103 15.4517 44.5224L15.2268 44.5529L14.9517 44.5951C14.5685 44.6496 14.1812 44.6701 13.7944 44.6563C13.0186 44.6311 12.2624 44.4061 11.599 44.0031C10.9463 43.5906 10.4061 43.0227 10.027 42.3501C9.83189 42.0096 9.66777 41.6523 9.53656 41.2825C9.42993 40.9874 9.30168 40.7007 9.15286 40.4245C8.85219 39.8752 8.46532 39.3777 8.00699 38.951C7.72498 38.6966 7.41508 38.4749 7.08321 38.2902C6.92416 38.1649 6.75014 38.0598 6.56516 37.9775C6.46952 37.9365 6.3758 37.8905 6.27888 37.8521L5.98077 37.7379C5.73548 37.6503 5.49556 37.5483 5.26224 37.4325C4.57559 37.1068 3.97869 36.6185 3.52324 36.0101C3.20001 35.5655 2.95523 35.0688 2.79951 34.5416C2.70054 34.1981 2.64253 33.8441 2.62669 33.487C2.61244 33.1363 2.63107 32.7851 2.68235 32.4379C2.69775 32.3209 2.71876 32.2065 2.73812 32.0918L2.78091 31.8098C2.80452 31.6242 2.81821 31.4375 2.82192 31.2504C2.82883 30.8767 2.80694 30.503 2.75646 30.1327C2.74436 30.059 2.72271 29.9778 2.70488 29.9043C2.62376 29.6059 2.52202 29.3179 2.47642 29.0456C2.35239 28.6786 2.18348 28.3284 1.97353 28.0028C1.9189 27.9244 1.86758 27.8436 1.81078 27.7664L1.63643 27.5372L1.45052 27.3166L1.34061 27.1863C1.30177 27.1404 1.2628 27.0947 1.226 27.0463C0.799442 26.5282 0.485019 25.9271 0.302602 25.2812C0.210673 24.9308 0.154438 24.572 0.134758 24.2102C0.118382 23.8388 0.147893 23.4667 0.222624 23.1024C0.346022 22.538 0.570969 22.0007 0.886497 21.5167C1.03585 21.2844 1.20013 21.0621 1.37831 20.8511L1.61072 20.5744C1.68458 20.4908 1.7485 20.3995 1.81545 20.3104C1.87595 20.2334 1.9276 20.153 1.9796 20.0722C2.0052 20.0316 2.0308 19.991 2.05665 19.95C2.07856 19.907 2.10071 19.8638 2.12351 19.8193C2.44537 19.1707 2.65801 18.4735 2.75286 17.7557C2.80181 17.3946 2.81787 17.0298 2.80086 16.6658C2.80022 16.5744 2.79156 16.4833 2.7833 16.3921C2.77603 16.3009 2.76903 16.2094 2.75413 16.1188L2.7137 15.8308C2.69536 15.7183 2.68097 15.6047 2.669 15.4903C2.61916 15.0352 2.61899 14.5761 2.66849 14.121C2.71753 13.6746 2.83241 13.2379 3.0094 12.8252C3.19086 12.4083 3.43728 12.0228 3.73948 11.6831C4.33654 11.039 5.08228 10.551 5.91151 10.2617L6.07712 10.1981L6.22255 10.1406C6.32035 10.1051 6.41217 10.0569 6.50564 10.0138C6.59989 9.97217 6.68852 9.92015 6.77765 9.87074C6.86808 9.8233 6.95315 9.76772 7.03757 9.71225C7.4505 9.45626 7.82531 9.1434 8.15098 8.78287C8.19606 8.72849 8.25209 8.66812 8.31143 8.60739C8.36835 8.5446 8.4268 8.47997 8.48029 8.42091C8.8893 7.95859 9.20891 7.42434 9.42286 6.84533C9.47304 6.71869 9.53659 6.52054 9.60879 6.34307C9.67832 6.16288 9.75957 5.9849 9.84528 5.80822C10.0233 5.44784 10.2398 5.10781 10.4911 4.79408C10.8089 4.3884 11.2077 4.05333 11.6621 3.8102C11.683 3.81434 11.6428 3.85235 11.8542 3.75264C12.4899 3.44144 13.1866 3.27456 13.8943 3.26394C14.2626 3.25444 14.631 3.278 14.9951 3.33436L15.465 3.41007C15.6062 3.43172 15.749 3.44236 15.8911 3.45502C16.4621 3.49263 17.0354 3.44514 17.5924 3.31412C18.1502 3.18356 18.6852 2.9702 19.1797 2.68114C19.4263 2.5353 19.6616 2.37133 19.8839 2.19059L20.0685 2.04109C20.1373 1.98333 20.208 1.92721 20.2807 1.87273C20.424 1.76207 20.5751 1.65848 20.7295 1.55857C21.3137 1.17765 21.9713 0.923428 22.6598 0.812312C23.0134 0.760278 23.3719 0.751319 23.7276 0.785631C24.0801 0.822453 24.4272 0.900215 24.7617 1.01735C25.003 1.09993 25.2743 1.22625 25.4498 1.30032C25.668 1.39579 25.8771 1.51083 26.0745 1.64403C26.2726 1.78019 26.4634 1.92676 26.646 2.08311C27.0443 2.41858 27.4844 2.70102 27.9553 2.92335C28.1161 2.99346 28.2741 3.06827 28.4678 3.1378C28.3888 3.12443 28.3522 3.11824 28.3114 3.11132C28.3373 3.12617 28.3639 3.13954 28.3913 3.15136C28.856 3.32991 29.3447 3.43833 29.8414 3.47304C29.9458 3.48457 30.051 3.48727 30.1559 3.48113C30.4242 3.44305 30.7643 3.43656 31.0819 3.39753C31.333 3.3627 31.7349 3.27814 32.0956 3.25235C32.4716 3.21979 32.8499 3.22537 33.2247 3.26897C33.8428 3.34313 34.4381 3.54733 34.9716 3.86814C35.4999 4.19202 35.9567 4.6202 36.3141 5.12654C36.3624 5.1955 36.4071 5.26691 36.448 5.34048C36.0054 4.66617 35.3943 4.11923 34.6752 3.75385C34.9744 3.9278 35.2599 4.1242 35.5294 4.34137C35.9096 4.67193 36.2359 5.05988 36.4964 5.4912C36.6237 5.69865 36.7379 5.91388 36.8382 6.13564C36.8895 6.24477 36.934 6.35543 36.9795 6.46598L37.0986 6.78046C37.3638 7.49663 37.772 8.15135 38.2983 8.70475C38.4891 8.90435 38.6911 9.09303 38.9032 9.2699C39.1913 9.50751 39.5032 9.71465 39.8339 9.88802C39.9161 9.93208 39.9987 9.97539 40.0847 10.0116C40.1703 10.0484 40.2529 10.092 40.3412 10.1224L40.6091 10.2242C40.718 10.2636 40.8269 10.3034 40.9347 10.3485C41.3779 10.5259 41.7979 10.7565 42.1854 11.0352C42.5891 11.3265 42.9424 11.682 43.2312 12.0875C43.4218 12.3605 43.5792 12.6553 43.7002 12.9654C43.8144 13.2637 43.9077 13.5695 43.9794 13.8807C44.0321 14.3999 44.0298 14.9231 43.9725 15.4418C43.9538 15.5497 43.9387 15.6599 43.9161 15.7677C43.8979 15.8642 43.8796 15.9611 43.8613 16.0584C43.8284 16.234 43.8044 16.4112 43.7896 16.5892C43.751 16.9994 43.7704 17.4129 43.8473 17.8176C43.9943 18.5732 44.2739 19.2969 44.673 19.9551C44.7116 20.044 44.7554 20.1306 44.8041 20.2144C44.8532 20.2924 44.8958 20.3743 44.9316 20.4591C44.9014 20.4158 44.8706 20.373 44.8445 20.3328C44.8019 20.267 44.7862 20.2486 44.7974 20.2802C44.7993 20.2824 44.8258 20.3155 44.8409 20.3344L44.9264 20.4532C44.9907 20.5462 45.055 20.6392 45.1202 20.7337C45.204 20.8466 45.2873 20.9625 45.3689 21.0859C45.3291 21.1002 45.209 20.9671 45.0439 20.7825C44.9818 20.7099 44.9193 20.6369 44.8549 20.5615C44.7914 20.4851 44.7323 20.4014 44.666 20.3161C44.7175 20.4388 44.7842 20.5546 44.8645 20.6608C44.9085 20.7228 44.9525 20.785 44.994 20.8437C45.0427 20.9107 45.0861 20.9737 45.1187 21.0281C45.1116 21.0458 45.0503 20.979 44.9886 20.9119C44.9247 20.8428 44.8783 20.7911 44.8662 20.8034C44.8535 20.8227 44.8307 20.8297 44.8088 20.8448C44.8587 20.9076 44.9025 20.9626 44.943 21.0135C44.9863 21.0671 45.0264 21.1161 45.0635 21.1676C45.1748 21.3138 45.2524 21.4581 45.214 21.4435C45.1404 21.4167 45.3523 21.691 45.3674 21.7668C45.3621 21.7745 45.3614 21.7904 45.3501 21.788C45.3118 21.778 45.1587 21.5636 45.1164 21.5416C45.0429 21.5012 45.037 21.564 44.9989 21.5855C45.4311 22.1942 45.6961 22.9056 45.7674 23.6487C45.748 23.4979 45.7161 23.349 45.6722 23.2035C45.643 23.1131 45.6048 23.0259 45.5579 22.9432C45.4893 22.808 45.4333 22.6668 45.3906 22.5213C45.3292 22.3237 45.2427 22.1348 45.1333 21.9591C45.0464 21.8241 44.941 21.7019 44.82 21.5963C44.9783 21.9034 45.2363 22.3464 45.346 22.7356C45.3169 22.7476 45.2051 22.5192 45.2613 22.7309C45.2308 22.6611 45.1935 22.5895 45.157 22.5191C45.1538 22.534 45.1412 22.5346 45.1501 22.56C45.2217 22.7158 45.2689 22.8817 45.29 23.0518C45.2872 23.1352 45.3295 23.3105 45.3494 23.4761C45.373 23.6446 45.3653 23.8159 45.3268 23.9816C45.3053 24.0134 45.2926 23.9492 45.282 23.8718C45.2762 23.8059 45.2619 23.741 45.2395 23.6788C45.1863 23.6202 45.1527 23.5464 45.1435 23.4678C45.1435 23.4678 45.1364 23.5417 45.1229 23.6139C45.1128 23.686 45.0951 23.7574 45.0951 23.7574C45.0879 23.7224 45.0771 23.6863 45.072 23.6526C45.042 23.3863 44.9722 23.1259 44.8651 22.8801C44.7558 22.6265 44.6226 22.3838 44.4671 22.1555C44.3985 22.0511 44.3249 21.9483 44.2459 21.8483C44.2076 21.7976 44.1675 21.7479 44.1256 21.699L43.988 21.5317C43.8863 21.4081 43.7852 21.284 43.6938 21.1522C43.5975 21.0242 43.5103 20.8899 43.425 20.7542C43.0828 20.211 42.8175 19.6231 42.6366 19.0072C42.4427 18.3604 42.3403 17.6896 42.3323 17.0144C42.3272 16.6776 42.3453 16.3408 42.3864 16.0065L42.4571 15.5351C42.4782 15.4026 42.4928 15.2708 42.5032 15.1397C42.593 14.4683 42.4627 13.7859 42.1317 13.1949C41.8006 12.6039 41.2868 12.1363 40.6673 11.8622C40.5048 11.7791 40.3373 11.7062 40.1657 11.6439L39.8587 11.5278L39.6939 11.4644L39.5323 11.3928C39.0998 11.2034 38.6871 10.9718 38.3 10.7014C37.9651 10.463 37.6495 10.1984 37.3562 9.9103C37.0664 9.61788 36.8007 9.30246 36.5618 8.96713C36.3262 8.6298 36.1193 8.2732 35.9436 7.90111L35.8187 7.61954C35.7787 7.52505 35.7449 7.42813 35.7081 7.33243L35.615 7.078C35.5893 7.00145 35.5572 6.92918 35.5291 6.85431C35.369 6.45336 35.1437 6.08161 34.8625 5.75402C34.5942 5.44547 34.261 5.19989 33.8869 5.03477C33.4528 4.85129 32.9855 4.75934 32.5143 4.76466C32.2648 4.76516 32.0156 4.78434 31.769 4.82204L31.3284 4.8882C31.1702 4.91289 31.0098 4.92042 30.8506 4.93665C29.7388 5.01099 28.6245 4.83239 27.5916 4.41427C27.2143 4.26237 26.8509 4.07806 26.5054 3.86343C26.4199 3.80866 26.3321 3.75704 26.2486 3.69903L25.9999 3.52265C25.9168 3.46407 25.8397 3.39759 25.7595 3.33519L25.5453 3.16283C25.0757 2.76347 24.5195 2.4789 23.9209 2.33163C23.4648 2.22925 22.9914 2.23182 22.5364 2.33914C22.2378 2.4123 21.951 2.52743 21.6847 2.68108C21.544 2.76157 21.4077 2.84959 21.2765 2.94475C21.2089 2.99072 21.145 3.04446 21.0789 3.09349L20.8756 3.25974C19.9742 4.01766 18.8963 4.53609 17.7414 4.76709C17.2333 4.86628 16.7171 4.91784 16.1994 4.92111C16.0568 4.92181 15.9166 4.91539 15.7765 4.91329C15.6368 4.90546 15.4977 4.89335 15.357 4.88221C15.2187 4.86438 15.073 4.84318 14.9356 4.8214C14.8204 4.80096 14.7032 4.78154 14.5823 4.76244C14.1388 4.70257 13.6884 4.71893 13.2504 4.81083C12.8081 4.90007 12.3932 5.09291 12.0399 5.37352C11.514 5.81232 11.1263 6.39391 10.9235 7.04814L10.8812 7.17325L10.8264 7.32461C10.787 7.42705 10.7526 7.53148 10.7063 7.63145C10.6604 7.73161 10.6142 7.83245 10.5677 7.93398C10.5147 8.03243 10.4611 8.13223 10.4066 8.23338C9.79124 9.30831 8.91831 10.2134 7.86636 10.8673C7.54035 11.0692 7.2326 11.2324 6.93316 11.3975C6.82784 11.4587 6.71107 11.5082 6.59162 11.564C6.48936 11.6094 6.38468 11.6558 6.27758 11.7033C6.07136 11.7948 5.87054 11.8981 5.67612 12.0125C5.21509 12.2756 4.82714 12.6497 4.54757 13.1009C4.28161 13.5554 4.13739 14.0708 4.12884 14.5974C4.12118 14.8789 4.13823 15.1605 4.17979 15.439L4.2586 15.9355C4.28676 16.1194 4.30076 16.3055 4.31566 16.491C4.33747 16.8629 4.33194 17.236 4.29911 17.6071C4.1998 18.6608 3.87445 19.6807 3.34527 20.5973C3.26326 20.7469 3.16531 20.887 3.07534 21.0317C2.97448 21.1691 2.88088 21.3121 2.77251 21.4438L2.4781 21.8052C2.39456 21.9085 2.3165 22.014 2.24149 22.1204C1.89794 22.5939 1.68037 23.1468 1.60922 23.7274C1.55821 24.3236 1.68641 24.9215 1.97737 25.4443C2.12927 25.727 2.30964 25.9934 2.51567 26.2393L2.69868 26.465C2.76413 26.547 2.83162 26.6272 2.89109 26.7138L3.07333 26.9701L3.24206 27.2357C3.93756 28.3776 4.30526 29.6888 4.30485 31.0258C4.30944 31.1786 4.29594 31.3311 4.29173 31.4838C4.28269 31.6361 4.26473 31.7879 4.25086 31.94L4.18361 32.3821C4.16324 32.5004 4.14732 32.6182 4.1342 32.7355C4.08077 33.186 4.10369 33.6423 4.20201 34.0852C4.30861 34.5509 4.53313 34.9815 4.85403 35.3355C5.19797 35.703 5.61351 35.9962 6.07504 36.197C6.1722 36.2432 6.27407 36.2847 6.37627 36.3225L6.66089 36.4274C6.76651 36.4683 6.87381 36.5046 6.97647 36.5529C7.07963 36.5994 7.1843 36.6434 7.28606 36.6931L7.5885 36.8491C7.98619 37.0688 8.36286 37.3246 8.71374 37.6133C9.41508 38.1936 10.0053 38.8964 10.4555 39.6875C10.5125 39.7948 10.5698 39.903 10.6274 40.012C10.678 40.1242 10.7286 40.2368 10.7789 40.3486C10.8141 40.4288 10.8427 40.5116 10.8746 40.5931L10.9614 40.8235C11.0077 40.952 11.057 41.0786 11.1125 41.2002C11.2179 41.44 11.3456 41.6695 11.4938 41.8855C11.77 42.2962 12.1454 42.6304 12.5852 42.8574C13.0016 43.061 13.4581 43.1692 13.9217 43.1741C14.1677 43.1794 14.4138 43.1649 14.6575 43.1308C14.7195 43.1232 14.7819 43.1134 14.8443 43.102L15.0584 43.0668C15.2181 43.0404 15.3779 43.0149 15.5392 43.0016C17.0485 42.8464 18.5683 43.1705 19.883 43.9278C20.2313 44.1266 20.562 44.3549 20.8713 44.6102L21.0774 44.779C21.1373 44.8305 21.1999 44.8755 21.2611 44.924C21.3855 45.0157 21.5109 45.1049 21.6399 45.1825C22.1239 45.4956 22.6791 45.6812 23.2539 45.722C23.3762 45.7288 23.4989 45.7245 23.6204 45.7092C24.2787 45.6144 24.8989 45.3428 25.4148 44.9231C25.4847 44.8714 25.5521 44.8141 25.6202 44.7585L25.8743 44.5534C25.9589 44.4821 26.0512 44.4206 26.1404 44.3553C26.2296 44.2896 26.3206 44.2268 26.415 44.1688C26.7855 43.9268 27.1779 43.7201 27.5871 43.5514C28.6026 43.1277 29.7022 42.9442 30.8003 43.0151C30.937 43.0248 31.0731 43.0403 31.2095 43.0533C31.3452 43.0712 31.4803 43.0941 31.6157 43.1148C31.8282 43.1537 32.0428 43.1806 32.2583 43.1955C32.6649 43.2271 33.074 43.1908 33.4687 43.0883C33.9974 42.9473 34.475 42.6589 34.8458 42.2567C35.1219 41.9497 35.3474 41.6008 35.5141 41.2231C35.5596 41.1268 35.5998 41.0264 35.6393 40.9258L35.7721 40.5778C35.8193 40.449 35.8747 40.3237 35.9325 40.1994C35.9868 40.0735 36.0497 39.9518 36.1141 39.8308C36.8892 38.3631 38.1478 37.2085 39.6767 36.5624C39.8029 36.5094 39.9316 36.4629 40.0591 36.4135C40.174 36.3696 40.2679 36.338 40.3698 36.2943C40.5665 36.2139 40.7577 36.1206 40.942 36.0149C41.2935 35.8261 41.6042 35.5696 41.8561 35.2603C42.1081 34.9509 42.2964 34.5948 42.4102 34.2123C42.5527 33.6758 42.583 33.1156 42.4992 32.5668L42.4275 32.0874C42.3969 31.9086 42.3879 31.727 42.3703 31.5468C42.3482 31.1855 42.3535 30.8231 42.386 30.4626C42.4864 29.2895 42.8693 28.1582 43.502 27.1652C43.5727 27.0491 43.6509 26.9369 43.7314 26.8263C43.8088 26.7135 43.8943 26.6071 43.981 26.5035C44.023 26.4535 44.0649 26.4037 44.1065 26.3542L44.2139 26.2342C44.2827 26.1563 44.3508 26.0791 44.4192 26.0015C44.55 25.8339 44.6628 25.6531 44.7559 25.4619C44.8054 25.3936 44.8523 25.3388 44.8331 25.4143C44.7857 25.6012 44.8431 25.5799 44.9078 25.5445C45.0331 25.4224 45.1517 25.0574 45.2329 24.9013C45.2273 24.9209 45.2216 24.9408 45.2179 24.9579C45.1996 25.0251 45.185 25.0912 45.1652 25.1572C45.1922 25.1181 45.217 25.0774 45.2393 25.0355C45.2581 24.9983 45.2741 24.9599 45.2873 24.9204C45.2876 24.9138 45.2875 24.9072 45.287 24.9006L45.2936 24.9032L45.2873 24.9215C45.2758 25.0583 45.2443 25.1927 45.1937 25.3204C45.1451 25.4072 45.0994 25.4911 45.0556 25.5585C45.0367 25.5965 45.0227 25.6367 45.0138 25.6782C44.9421 25.84 44.8927 26.0108 44.867 26.1859C44.8688 26.272 44.9248 26.2848 45.0189 26.2431C45.0473 26.23 45.0443 26.272 45.1557 26.1404C45.3735 25.7903 45.5505 25.4164 45.6832 25.026C45.7372 24.7366 45.6224 25.0554 45.6338 24.9288C45.653 24.8216 45.6904 24.7185 45.7444 24.624C45.7673 24.6046 45.784 24.6397 45.8049 24.6393ZM30.6554 3.47101C30.8161 3.46789 30.9525 3.45656 31.0793 3.44351C31.1423 3.43408 31.2032 3.42414 31.2634 3.41287C31.2934 3.40695 31.3233 3.40103 31.3536 3.39498C31.39 3.3867 31.4267 3.37837 31.4645 3.36976L31.264 3.38982C31.204 3.39695 31.1437 3.40607 31.0807 3.41683C30.9544 3.43319 30.8177 3.45566 30.6554 3.47101ZM3.1235 35.2917C3.11674 35.2591 3.10733 35.2271 3.09535 35.196C3.07015 35.1405 3.04072 35.0676 3.01411 35.0137C2.97833 34.9389 2.97272 34.9467 3.00163 35.0306C3.0309 35.1225 3.07187 35.2102 3.1235 35.2917ZM9.22701 40.4684C9.21796 40.4486 9.20917 40.4255 9.19987 40.4093C9.16294 40.3451 9.15569 40.3441 9.18141 40.4066C9.19042 40.4263 9.20099 40.4452 9.213 40.4632C9.22026 40.4733 9.22255 40.4674 9.22701 40.4684ZM12.068 44.1814C12.0108 44.1547 11.9524 44.1298 11.8961 44.1009C11.9186 44.116 11.9419 44.1298 11.966 44.1423C11.9941 44.1567 12.0273 44.1719 12.0559 44.1841C12.064 44.1877 12.0642 44.1825 12.068 44.1814Z" fill="#A3D8F8"/>
<path d="M45.8698 25.1172C45.7278 25.434 45.5778 25.7682 45.397 26.1476C45.4974 26.0394 45.5876 25.9332 45.6738 25.8218C45.6996 25.7305 45.7586 25.5873 45.8022 25.4481C45.844 25.3427 45.8669 25.2306 45.8698 25.1172Z" fill="#FF8888"/>
<path d="M45.4483 24.0036C45.4343 24.0626 45.4259 24.1228 45.4232 24.1834C45.4166 24.3046 45.4289 24.3562 45.4471 24.3551C45.4622 24.3542 45.4777 24.3096 45.4865 24.2037C45.4926 24.0773 45.4659 23.9465 45.4483 24.0036Z" fill="#FF8888"/>
<path d="M37.2612 7.073C37.2094 6.96615 37.1806 6.86943 37.1426 6.77666C37.1691 6.88018 37.209 6.9798 37.2612 7.073Z" fill="#FF8888"/>
<path d="M44.9235 27.3945L44.8989 27.4251C44.9088 27.4164 44.9171 27.406 44.9235 27.3945Z" fill="#FF8888"/>
<path d="M45.0643 27.2085C45.0102 27.2647 44.9631 27.3271 44.9238 27.3945C44.9783 27.3386 45.0255 27.2761 45.0643 27.2085Z" fill="#FF8888"/>
<path d="M9.70336 41.8122L9.73035 41.8655L9.70166 41.7962L9.70336 41.8122Z" fill="#FF8888"/>
<path d="M45.2462 24.8835L45.2388 24.8805L45.2329 24.9013C45.2368 24.895 45.2413 24.8891 45.2462 24.8835Z" fill="#FF8888"/>
<path d="M45.2461 24.8836L45.287 24.9005C45.2873 24.8468 45.2698 24.8547 45.2461 24.8836Z" fill="#FF8888"/>
<path d="M45.1789 22.2357C45.1925 22.2569 45.2038 22.2791 45.2164 22.3008C45.2176 22.2929 45.2169 22.2848 45.2144 22.2772C45.2036 22.2551 45.1913 22.2337 45.1777 22.2133L45.1789 22.2357Z" fill="#FF8888"/>
<path d="M44.9729 27.0207C44.9343 27.0766 44.9447 27.0733 44.9983 27.0124C45.0128 26.9958 45.0284 26.972 45.0435 26.9515C45.0377 26.9541 45.0347 26.9509 45.0253 26.9607C45.0066 26.9796 44.9891 26.9996 44.9729 27.0207Z" fill="#FF8888"/>
<path d="M44.8462 27.6922C44.849 27.6945 44.8571 27.6892 44.8635 27.6865L44.8899 27.6454L44.8723 27.6517C44.8631 27.6658 44.8462 27.6922 44.8462 27.6922Z" fill="#FF8888"/>
<path d="M7.07422 38.2852L7.0898 38.2955C7.0849 38.2917 7.07969 38.2882 7.07422 38.2852Z" fill="#FF8888"/>
<path d="M6.95654 38.2185L7.07458 38.2853C7.03967 38.2559 6.99965 38.2333 6.95654 38.2185Z" fill="#FF8888"/>
<path d="M29.2393 24.5534V23.5319C29.2402 23.3768 29.1942 23.225 29.1071 23.0965C29.0201 22.9681 28.8962 22.869 28.7518 22.8123L27.8154 22.437C27.7418 22.2218 27.6552 22.0112 27.5562 21.8063L27.9509 20.8778C28.0129 20.7361 28.0306 20.5789 28.0015 20.427C27.9725 20.275 27.8982 20.1354 27.7884 20.0266L27.0648 19.303C26.956 19.1932 26.8164 19.1189 26.6644 19.0899C26.5125 19.0609 26.3553 19.0785 26.2136 19.1405L25.2851 19.5352C25.0802 19.4362 24.8696 19.3496 24.6544 19.276L24.2791 18.3396C24.2229 18.1949 24.1239 18.0707 23.9953 17.9836C23.8668 17.8965 23.7147 17.8506 23.5594 17.8521H22.538C22.3827 17.8506 22.2307 17.8965 22.1021 17.9836C21.9736 18.0707 21.8746 18.1949 21.8184 18.3396L21.4431 19.276C21.2278 19.3496 21.0172 19.4362 20.8124 19.5352L19.8838 19.1405C19.7421 19.0785 19.585 19.0609 19.433 19.0899C19.2811 19.1189 19.1415 19.1932 19.0326 19.303L18.3091 20.0266C18.1992 20.1354 18.1249 20.275 18.0959 20.427C18.0669 20.5789 18.0846 20.7361 18.1466 20.8778L18.5412 21.8063C18.4423 22.0112 18.3557 22.2218 18.282 22.437L17.3457 22.8123C17.2009 22.8685 17.0767 22.9675 16.9897 23.0961C16.9026 23.2246 16.8567 23.3767 16.8582 23.5319V24.5534C16.8567 24.7087 16.9026 24.8607 16.9897 24.9893C17.0768 25.1178 17.2009 25.2168 17.3457 25.273L18.282 25.6483C18.3557 25.8636 18.4423 26.0742 18.5412 26.279L18.1466 27.2076C18.0846 27.3493 18.0669 27.5064 18.0959 27.6584C18.1249 27.8103 18.1992 27.9499 18.3091 28.0588L19.0326 28.7823C19.1415 28.8921 19.2811 28.9665 19.433 28.9955C19.585 29.0245 19.7421 29.0068 19.8838 28.9448L20.8124 28.5501C21.0172 28.6491 21.2278 28.7357 21.4431 28.8094L21.8184 29.7457C21.8746 29.8905 21.9736 30.0147 22.1021 30.1017C22.2307 30.1888 22.3827 30.2347 22.538 30.2332H23.5594C23.7147 30.2347 23.8668 30.1888 23.9953 30.1017C24.1239 30.0146 24.2229 29.8905 24.2791 29.7457L24.6544 28.8094C24.8696 28.7357 25.0802 28.6491 25.2851 28.5501L26.2136 28.9448C26.3553 29.0068 26.5125 29.0245 26.6644 28.9955C26.8164 28.9665 26.956 28.8921 27.0648 28.7823L27.7884 28.0588C27.8982 27.9499 27.9725 27.8103 28.0015 27.6584C28.0306 27.5064 28.0129 27.3493 27.9509 27.2076L27.5562 26.279C27.6552 26.0742 27.7418 25.8636 27.8154 25.6483L28.7518 25.273C28.8965 25.2168 29.0207 25.1178 29.1078 24.9893C29.1949 24.8607 29.2407 24.7087 29.2393 24.5534ZM23.0487 26.3641C22.5896 26.3641 22.1408 26.228 21.759 25.9729C21.3772 25.7178 21.0797 25.3552 20.904 24.931C20.7283 24.5069 20.6823 24.0401 20.7719 23.5898C20.8615 23.1395 21.0826 22.7258 21.4072 22.4012C21.7319 22.0765 22.1455 21.8554 22.5958 21.7658C23.0462 21.6762 23.5129 21.7222 23.9371 21.8979C24.3613 22.0736 24.7239 22.3712 24.9789 22.7529C25.234 23.1347 25.3702 23.5835 25.3702 24.0427C25.3697 24.6582 25.125 25.2484 24.6897 25.6836C24.2545 26.1189 23.6643 26.3636 23.0487 26.3641ZM33.7688 32.2811C33.8229 32.3352 33.8598 32.4041 33.8747 32.4792C33.8896 32.5542 33.882 32.632 33.8527 32.7027C33.8234 32.7734 33.7738 32.8338 33.7102 32.8764C33.6466 32.9189 33.5718 32.9416 33.4953 32.9416H29.2393C29.1884 32.9416 29.1381 32.9316 29.0912 32.9122C29.0442 32.8927 29.0015 32.8642 28.9656 32.8283C28.9297 32.7924 28.9012 32.7497 28.8817 32.7027C28.8623 32.6558 28.8523 32.6055 28.8524 32.5547V28.2987C28.8524 28.2222 28.8751 28.1474 28.9176 28.0838C28.9601 28.0201 29.0205 27.9705 29.0911 27.9412C29.1618 27.9119 29.2396 27.9042 29.3146 27.9191C29.3897 27.9339 29.4586 27.9707 29.5128 28.0247L30.7393 29.2497C31.8695 27.578 32.4247 25.5838 32.3209 23.5686C32.2171 21.5534 31.4599 19.6267 30.1639 18.0801C28.8679 16.5334 27.1035 15.4508 25.1375 14.9959C23.1716 14.5411 21.111 14.7387 19.2673 15.559C19.2209 15.5799 19.1708 15.5915 19.1199 15.593C19.069 15.5945 19.0183 15.586 18.9707 15.5679C18.9231 15.5498 18.8796 15.5225 18.8426 15.4875C18.8056 15.4525 18.7758 15.4106 18.7551 15.3641C18.7343 15.3177 18.7229 15.2675 18.7215 15.2166C18.7201 15.1657 18.7288 15.1151 18.7471 15.0675C18.7653 15.02 18.7927 14.9765 18.8278 14.9396C18.8629 14.9027 18.9049 14.8731 18.9514 14.8525C20.9866 13.9458 23.2651 13.7402 25.4296 14.2679C27.5942 14.7957 29.5224 16.0269 30.9119 17.7685C32.3013 19.5102 33.0735 21.6637 33.1072 23.8914C33.1409 26.1191 32.4343 28.295 31.0982 30.0779C31.0651 30.1223 31.0227 30.159 30.9741 30.1855C30.9254 30.2121 30.8716 30.2278 30.8164 30.2317C30.7611 30.236 30.7055 30.2283 30.6535 30.209C30.6015 30.1897 30.5543 30.1592 30.5152 30.1198L29.6262 29.2319V32.1677H32.5612L31.6159 31.2224C31.5436 31.1502 31.5027 31.0523 31.5024 30.9502C31.502 30.848 31.5422 30.7498 31.614 30.6772C33.0921 28.7823 33.8909 26.4458 33.8822 24.0427C33.8811 22.2313 33.4261 20.449 32.5588 18.8588C31.6914 17.2686 30.4394 15.921 28.9171 14.9393C27.3948 13.9576 25.6508 13.373 23.8444 13.239C22.038 13.1049 20.2267 13.4257 18.5762 14.172C18.5299 14.1933 18.4799 14.2052 18.429 14.2071C18.3781 14.209 18.3273 14.2008 18.2795 14.183C18.2318 14.1652 18.188 14.1382 18.1508 14.1034C18.1135 14.0687 18.0835 14.0269 18.0625 13.9805C18.0414 13.9341 18.0297 13.884 18.0281 13.8331C18.0265 13.7821 18.0349 13.7314 18.0529 13.6837C18.071 13.6361 18.0983 13.5925 18.1332 13.5554C18.1682 13.5183 18.2101 13.4885 18.2566 13.4677C20.0249 12.6677 21.9655 12.3238 23.9011 12.4672C25.8366 12.6106 27.7054 13.2368 29.3365 14.2886C30.9676 15.3404 32.3091 16.7843 33.2384 18.4882C34.1676 20.1922 34.655 22.1018 34.656 24.0427C34.6649 26.5165 33.875 28.9272 32.4037 30.916L33.7688 32.2811ZM28.0332 34.1057C28.0542 34.1519 28.0659 34.2019 28.0677 34.2526C28.0694 34.3034 28.0611 34.354 28.0432 34.4015C28.0253 34.4491 27.9983 34.4927 27.9636 34.5297C27.9288 34.5668 27.8871 34.5967 27.8409 34.6177C26.0725 35.4176 24.1319 35.7616 22.1964 35.6182C20.2608 35.4748 18.3921 34.8485 16.761 33.7967C15.1298 32.7449 13.7883 31.301 12.8591 29.5971C11.9298 27.8932 11.4424 25.9835 11.4415 24.0427C11.4326 21.5688 12.2225 19.1582 13.6938 17.1694L12.3287 15.8042C12.2746 15.7501 12.2377 15.6812 12.2228 15.6061C12.2078 15.5311 12.2155 15.4533 12.2448 15.3826C12.2741 15.3119 12.3236 15.2515 12.3873 15.209C12.4509 15.1665 12.5257 15.1438 12.6022 15.1438H16.8582C16.909 15.1437 16.9593 15.1537 17.0063 15.1732C17.0533 15.1926 17.0959 15.2211 17.1318 15.257C17.1678 15.293 17.1963 15.3356 17.2157 15.3826C17.2351 15.4295 17.2451 15.4799 17.2451 15.5307V19.7867C17.2451 19.8632 17.2224 19.938 17.1799 20.0016C17.1374 20.0652 17.077 20.1148 17.0063 20.1441C16.9356 20.1734 16.8579 20.1811 16.7828 20.1663C16.7078 20.1514 16.6388 20.1146 16.5847 20.0606L15.3582 18.8357C14.2279 20.5073 13.6727 22.5015 13.7765 24.5168C13.8804 26.532 14.6375 28.4586 15.9336 30.0053C17.2296 31.5519 18.994 32.6346 20.9599 33.0894C22.9259 33.5443 24.9865 33.3466 26.8302 32.5263C26.8766 32.5054 26.9267 32.4938 26.9776 32.4923C27.0284 32.4908 27.0791 32.4993 27.1267 32.5174C27.1743 32.5355 27.2179 32.5629 27.2549 32.5978C27.2919 32.6328 27.3216 32.6747 27.3424 32.7212C27.3632 32.7677 27.3746 32.8178 27.376 32.8687C27.3773 32.9196 27.3687 32.9703 27.3504 33.0178C27.3322 33.0653 27.3047 33.1088 27.2697 33.1457C27.2346 33.1826 27.1926 33.2122 27.146 33.2329C25.1109 34.1395 22.8324 34.3451 20.6678 33.8174C18.5033 33.2896 16.5751 32.0584 15.1856 30.3168C13.7961 28.5752 13.024 26.4217 12.9903 24.1939C12.9565 21.9662 13.6631 19.7903 14.9992 18.0074C15.0325 17.9631 15.0749 17.9265 15.1235 17.8999C15.1721 17.8734 15.2259 17.8576 15.2812 17.8536C15.3364 17.8497 15.3919 17.8576 15.4438 17.8769C15.4958 17.8962 15.543 17.9264 15.5822 17.9655L16.4713 18.8534V15.9176H13.5362L14.4816 16.8629C14.5539 16.9351 14.5947 17.033 14.5951 17.1352C14.5954 17.2373 14.5553 17.3355 14.4835 17.4082C13.0054 19.303 12.2066 21.6395 12.2153 24.0427C12.2164 25.8541 12.6714 27.6363 13.5387 29.2265C14.406 30.8168 15.658 32.1643 17.1803 33.146C18.7026 34.1278 20.4467 34.7123 22.2531 34.8464C24.0595 34.9804 25.8707 34.6596 27.5212 33.9134C27.5674 33.8922 27.6174 33.8805 27.6682 33.8787C27.719 33.8769 27.7696 33.8852 27.8172 33.9031C27.8648 33.921 27.9083 33.9481 27.9454 33.9828C27.9825 34.0176 28.0123 34.0594 28.0332 34.1057Z" fill="white"/>
</svg>
