<svg width="46" height="47" viewBox="0 0 46 47" fill="none" xmlns="http://www.w3.org/2000/svg">
<path d="M45.8706 23.4899C45.8706 22.501 45.4591 21.5499 44.6999 20.6618C44.073 19.9294 43.6181 19.0658 43.3685 18.1346C43.119 17.2033 43.0812 16.228 43.2579 15.2802C43.4713 14.1315 43.3522 13.1021 42.8578 12.2457C42.3633 11.3893 41.5313 10.7714 40.4298 10.3819C39.5207 10.061 38.6949 9.5406 38.0132 8.85886C37.3314 8.17712 36.811 7.35136 36.4902 6.4422C36.1006 5.34069 35.4828 4.50876 34.6264 4.01429C33.7699 3.51983 32.7405 3.40073 31.5919 3.61416C30.6441 3.79086 29.6687 3.75306 28.7374 3.50352C27.8061 3.25398 26.9426 2.79905 26.2101 2.17212C25.322 1.4129 24.371 1.00134 23.3821 1.00134C22.3931 1.00134 21.4421 1.41291 20.554 2.17209C19.8215 2.79901 18.958 3.25393 18.0267 3.50346C17.0954 3.753 16.1201 3.7908 15.1723 3.61411C14.0236 3.40068 12.9942 3.51976 12.1378 4.01424C11.2814 4.50872 10.6635 5.34064 10.274 6.44215C9.95317 7.35131 9.43276 8.17707 8.75103 8.85881C8.06929 9.54055 7.24352 10.061 6.33436 10.3818C5.23286 10.7713 4.40092 11.3892 3.90647 12.2456C3.41202 13.1021 3.29289 14.1315 3.50632 15.2801C3.68302 16.2279 3.64521 17.2032 3.39568 18.1345C3.14615 19.0658 2.69122 19.9293 2.06431 20.6618C1.30512 21.5498 0.893555 22.5009 0.893555 23.4898C0.893555 24.4788 1.30512 25.4298 2.06431 26.3179C2.69123 27.0504 3.14615 27.914 3.39568 28.8452C3.6452 29.7765 3.68299 30.7519 3.50627 31.6997C3.29284 32.8484 3.41194 33.8778 3.90642 34.7342C4.4009 35.5906 5.2328 36.2084 6.33431 36.598C7.24347 36.9188 8.06923 37.4392 8.75097 38.121C9.43271 38.8027 9.95311 39.6285 10.274 40.5376C10.6635 41.6391 11.2813 42.4711 12.1378 42.9655C12.9942 43.46 14.0236 43.5791 15.1723 43.3657C16.1201 43.189 17.0954 43.2268 18.0266 43.4763C18.9579 43.7259 19.8215 44.1808 20.5539 44.8077C21.442 45.5669 22.3931 45.9784 23.382 45.9784C24.371 45.9784 25.322 45.5669 26.2101 44.8077C26.9425 44.1808 27.8061 43.7259 28.7374 43.4763C29.6687 43.2268 30.644 43.189 31.5918 43.3657C32.7405 43.5791 33.7699 43.46 34.6263 42.9655C35.4827 42.4711 36.1006 41.6391 36.4901 40.5376C36.811 39.6285 37.3314 38.8027 38.0131 38.121C38.6949 37.4392 39.5206 36.9188 40.4298 36.598C41.5313 36.2085 42.3632 35.5906 42.8577 34.7342C43.3522 33.8777 43.4712 32.8483 43.2578 31.6997C43.0811 30.7519 43.1189 29.7765 43.3685 28.8452C43.618 27.914 44.0729 27.0504 44.6999 26.3179C45.4591 25.4299 45.8706 24.4788 45.8706 23.4899Z" fill="#A3D8F8"/>
<path d="M45.8962 24.1393C45.8443 24.5038 45.7344 24.8576 45.5707 25.1874C45.4108 25.5238 45.2281 25.825 45.1124 26.0712C45.3218 25.9091 45.3243 25.9056 45.2787 26.0875C45.4586 25.8454 45.6209 25.5906 45.7642 25.3251C45.7533 25.3894 45.7384 25.453 45.7195 25.5154C45.6733 25.6462 45.6125 25.7713 45.5383 25.8885C45.4987 25.9518 45.4819 25.9274 45.4184 26.0082C45.3146 26.1368 45.2134 26.2642 45.1275 26.3811C45.0833 26.4384 45.0437 26.4935 45.0097 26.5451C44.9823 26.5867 44.9583 26.6305 44.9379 26.6759C44.8399 26.894 44.8108 27.0445 44.989 26.9292C44.9855 26.9507 44.9785 26.9714 44.9682 26.9906C44.9461 27.0338 44.9205 27.0751 44.8917 27.1142C44.4585 27.6965 44.1447 28.3586 43.9682 29.0626C43.9109 29.2783 43.8717 29.4952 43.8271 29.7066C43.8118 29.7854 43.7996 29.8684 43.7894 29.9521C43.7835 30.0361 43.7811 30.1209 43.7789 30.2028C43.7693 30.65 43.798 31.0972 43.8648 31.5395C44.0344 32.4786 44.0378 33.5623 43.6242 34.5397C43.436 34.9962 43.1805 35.422 42.8662 35.8028C42.3952 36.3585 41.7989 36.7943 41.1263 37.0742C40.9679 37.1426 40.8007 37.2057 40.6461 37.2616C40.5173 37.3141 40.3837 37.3555 40.2587 37.4167L40.0682 37.5023L39.8829 37.5985C39.7575 37.6592 39.6414 37.7368 39.5207 37.8059C39.0497 38.1039 38.6238 38.4678 38.2558 38.8864C38.0389 39.1223 37.8562 39.3875 37.7132 39.6743C37.6764 39.7634 37.5857 39.9013 37.5288 40.0235C37.4539 40.1629 37.392 40.3087 37.3287 40.4536C37.2971 40.5261 37.2726 40.6015 37.244 40.6752L37.1516 40.9263C37.0132 41.3098 36.8372 41.6786 36.6261 42.0274C36.2796 42.602 35.8085 43.0914 35.2477 43.4597C34.6868 43.8281 34.0505 44.0659 33.3856 44.1556C32.9935 44.2113 32.5966 44.2252 32.2015 44.1972C32.0078 44.1838 31.8159 44.1628 31.6272 44.1333L31.367 44.0928L31.1426 44.0595C31.0324 44.0491 30.9235 44.0388 30.815 44.0286C30.7062 44.0246 30.5981 44.0183 30.4895 44.0111C30.2167 44.0008 29.9436 44.0206 29.6752 44.0702C29.0406 44.1824 28.4213 44.3688 27.83 44.6253C27.5324 44.7581 27.2493 44.9212 26.9852 45.1121C26.9157 45.157 26.8536 45.2122 26.7877 45.2624L26.69 45.3395L26.5732 45.4345C26.4134 45.5662 26.2447 45.6907 26.0706 45.8092C25.5366 46.1798 24.9392 46.4496 24.3081 46.605C23.9887 46.6798 23.6627 46.7227 23.3349 46.7331C23.1182 46.7396 22.9013 46.7274 22.6867 46.6967C22.0511 46.6071 21.4464 46.3657 20.9238 45.9929C20.7598 45.8766 20.5875 45.7478 20.4128 45.6104C20.3254 45.5417 20.2377 45.4708 20.1512 45.3972L20.0328 45.3004L19.9244 45.2139C19.4922 44.8655 19.0086 44.5861 18.4909 44.3857C18.181 44.2715 17.8641 44.1776 17.542 44.1046C17.2204 44.0369 16.8934 43.9988 16.5649 43.9907C16.4727 43.9921 16.376 43.9906 16.2791 43.9872C16.1824 43.9882 16.0854 43.9892 15.9927 43.9901C15.9177 43.9888 15.8431 43.9981 15.768 44.0018C15.693 44.0071 15.6175 44.0103 15.543 44.0224L15.3181 44.0529L15.0431 44.0951C14.6598 44.1496 14.2725 44.1701 13.8857 44.1563C13.1099 44.1311 12.3537 43.9061 11.6903 43.503C11.0376 43.0906 10.4974 42.5226 10.1183 41.8501C9.9232 41.5096 9.75908 41.1523 9.62787 40.7825C9.52124 40.4874 9.39299 40.2007 9.24417 39.9245C8.9435 39.3752 8.55662 38.8777 8.0983 38.451C7.81629 38.1966 7.50639 37.9749 7.17452 37.7902C7.01546 37.6649 6.84145 37.5598 6.65647 37.4775C6.56083 37.4364 6.46711 37.3905 6.37019 37.3521L6.07208 37.2379C5.82679 37.1502 5.58686 37.0483 5.35355 36.9325C4.6669 36.6067 4.07 36.1185 3.61455 35.5101C3.29132 35.0655 3.04654 34.5688 2.89081 34.0416C2.79184 33.6981 2.73384 33.3441 2.718 32.987C2.70375 32.6363 2.72238 32.2851 2.77366 31.9379C2.78906 31.8209 2.81007 31.7065 2.82943 31.5917L2.87222 31.3097C2.89583 31.1242 2.90952 30.9375 2.91323 30.7504C2.92014 30.3767 2.89825 30.003 2.84777 29.6326C2.83566 29.559 2.81402 29.4778 2.79619 29.4043C2.71507 29.1059 2.61333 28.8179 2.56773 28.5456C2.4437 28.1786 2.27478 27.8284 2.06483 27.5028C2.01021 27.4244 1.95888 27.3436 1.90209 27.2664L1.72774 27.0372L1.54183 26.8165L1.43192 26.6863C1.39308 26.6404 1.35411 26.5946 1.31731 26.5463C0.890751 26.0281 0.576327 25.4271 0.39391 24.7812C0.301982 24.4308 0.245746 24.072 0.226067 23.7102C0.209691 23.3387 0.239202 22.9667 0.313932 22.6024C0.43733 22.038 0.662277 21.5007 0.977806 21.0167C1.12716 20.7844 1.29144 20.5621 1.46962 20.3511L1.70203 20.0744C1.77589 19.9908 1.83981 19.8995 1.90676 19.8103C1.96726 19.7334 2.01891 19.653 2.07091 19.5722C2.09651 19.5316 2.12211 19.491 2.14796 19.4499C2.16986 19.407 2.19202 19.3637 2.21481 19.3193C2.53668 18.6707 2.74932 17.9735 2.84417 17.2556C2.89311 16.8946 2.90918 16.5298 2.89217 16.1658C2.89153 16.0744 2.88287 15.9833 2.8746 15.8921C2.86734 15.8008 2.86034 15.7094 2.84543 15.6188L2.80501 15.3308C2.78667 15.2183 2.77228 15.1047 2.76031 14.9903C2.71047 14.5352 2.71029 14.0761 2.7598 13.6209C2.80884 13.1746 2.92372 12.7379 3.10071 12.3252C3.28217 11.9083 3.52859 11.5228 3.83079 11.1831C4.42785 10.539 5.17359 10.051 6.00282 9.76167L6.16843 9.69813L6.31386 9.64063C6.41166 9.6051 6.50348 9.55684 6.59695 9.51374C6.69119 9.47215 6.77983 9.42013 6.86896 9.37072C6.95938 9.32328 7.04446 9.2677 7.12888 9.21223C7.54181 8.95625 7.91662 8.64338 8.24228 8.28286C8.28736 8.22848 8.34339 8.1681 8.40274 8.10737C8.45966 8.04458 8.51811 7.97996 8.5716 7.9209C8.98061 7.45857 9.30022 6.92433 9.51417 6.34532C9.56435 6.21867 9.6279 6.02052 9.7001 5.84306C9.76963 5.66286 9.85088 5.48489 9.93659 5.30821C10.1146 4.94783 10.3311 4.60779 10.5824 4.29407C10.9002 3.88838 11.299 3.55331 11.7534 3.31019C11.7743 3.31432 11.7341 3.35233 11.9455 3.25263C12.5812 2.94142 13.2779 2.77454 13.9856 2.76393C14.3539 2.75442 14.7223 2.77799 15.0864 2.83434L15.5563 2.91006C15.6975 2.9317 15.8403 2.94234 15.9824 2.95501C16.5534 2.99261 17.1268 2.94513 17.6838 2.8141C18.2415 2.68355 18.7765 2.47019 19.271 2.18113C19.5176 2.03529 19.7529 1.87132 19.9752 1.69057L20.1598 1.54108C20.2286 1.48332 20.2993 1.4272 20.372 1.37271C20.5153 1.26205 20.6664 1.15846 20.8208 1.05856C21.405 0.677634 22.0626 0.423413 22.7511 0.312297C23.1047 0.260263 23.4632 0.251304 23.8189 0.285616C24.1715 0.322437 24.5185 0.400199 24.853 0.51733C25.0943 0.599915 25.3656 0.726237 25.5411 0.800306C25.7593 0.895773 25.9684 1.01081 26.1658 1.14401C26.3639 1.28018 26.5547 1.42675 26.7373 1.58309C27.1356 1.91857 27.5757 2.201 28.0467 2.42334C28.2074 2.49344 28.3654 2.56825 28.5591 2.63779C28.4801 2.62442 28.4435 2.61822 28.4028 2.6113C28.4286 2.62616 28.4552 2.63953 28.4826 2.65135C28.9473 2.8299 29.436 2.93831 29.9327 2.97303C30.0371 2.98455 30.1423 2.98726 30.2472 2.98111C30.5156 2.94303 30.8556 2.93654 31.1732 2.89751C31.4243 2.86268 31.8262 2.77813 32.1869 2.75233C32.5629 2.71978 32.9412 2.72535 33.3161 2.76896C33.9341 2.84312 34.5294 3.04732 35.0629 3.36812C35.5912 3.69201 36.048 4.12019 36.4054 4.62652C36.4537 4.69548 36.4984 4.76689 36.5393 4.84046C36.0967 4.16616 35.4856 3.61922 34.7665 3.25384C35.0657 3.42778 35.3512 3.62419 35.6207 3.84136C36.001 4.17191 36.3273 4.55986 36.5877 4.99118C36.715 5.19863 36.8292 5.41387 36.9295 5.63562C36.9809 5.74476 37.0253 5.85542 37.0708 5.96596L37.1899 6.28044C37.4551 6.99662 37.8633 7.65133 38.3896 8.20473C38.5804 8.40433 38.7824 8.59301 38.9945 8.76989C39.2826 9.00749 39.5945 9.21463 39.9253 9.388C40.0074 9.43207 40.09 9.47537 40.176 9.51159C40.2616 9.5484 40.3442 9.59194 40.4325 9.62243L40.7004 9.72414C40.8093 9.76357 40.9182 9.80335 41.026 9.8485C41.4692 10.0258 41.8892 10.2564 42.2767 10.5352C42.6804 10.8265 43.0337 11.182 43.3225 11.5875C43.5131 11.8605 43.6705 12.1552 43.7915 12.4654C43.9058 12.7636 43.999 13.0695 44.0707 13.3807C44.1234 13.8998 44.1211 14.4231 44.0638 14.9418C44.0451 15.0497 44.03 15.1599 44.0074 15.2677C43.9892 15.3642 43.9709 15.4611 43.9526 15.5584C43.9197 15.734 43.8957 15.9112 43.8809 16.0892C43.8423 16.4994 43.8617 16.9129 43.9386 17.3176C44.0856 18.0732 44.3652 18.7969 44.7643 19.4551C44.8029 19.544 44.8467 19.6306 44.8955 19.7144C44.9445 19.7924 44.9871 19.8742 45.0229 19.9591C44.9928 19.9158 44.9619 19.873 44.9358 19.8328C44.8932 19.767 44.8775 19.7486 44.8887 19.7801C44.8906 19.7824 44.9171 19.8155 44.9323 19.8344L45.0177 19.9531C45.082 20.0462 45.1463 20.1392 45.2115 20.2337C45.2953 20.3466 45.3786 20.4625 45.4602 20.5859C45.4204 20.6002 45.3003 20.467 45.1353 20.2825C45.0731 20.2099 45.0106 20.1368 44.9462 20.0615C44.8827 19.985 44.8236 19.9014 44.7573 19.8161C44.8088 19.9388 44.8755 20.0546 44.9558 20.1608C44.9998 20.2227 45.0438 20.285 45.0854 20.3437C45.134 20.4107 45.1774 20.4737 45.21 20.5281C45.2029 20.5458 45.1416 20.479 45.0799 20.4119C45.016 20.3428 44.9696 20.2911 44.9575 20.3034C44.9448 20.3227 44.922 20.3297 44.9001 20.3447C44.95 20.4076 44.9938 20.4625 45.0343 20.5135C45.0776 20.5671 45.1177 20.6161 45.1548 20.6676C45.2661 20.8138 45.3437 20.9581 45.3053 20.9435C45.2317 20.9167 45.4436 21.191 45.4587 21.2668C45.4534 21.2745 45.4527 21.2904 45.4414 21.288C45.4031 21.2779 45.25 21.0636 45.2077 21.0415C45.1342 21.0012 45.1283 21.064 45.0902 21.0855C45.5224 21.6942 45.7874 22.4056 45.8587 23.1487C45.8393 22.9979 45.8075 22.849 45.7635 22.7035C45.7344 22.6131 45.6961 22.5258 45.6493 22.4432C45.5807 22.308 45.5246 22.1668 45.4819 22.0213C45.4205 21.8237 45.334 21.6348 45.2246 21.4591C45.1377 21.324 45.0323 21.2019 44.9113 21.0963C45.0696 21.4034 45.3276 21.8464 45.4373 22.2355C45.4082 22.2476 45.2964 22.0192 45.3526 22.2309C45.3222 22.161 45.2848 22.0895 45.2483 22.0191C45.2451 22.034 45.2325 22.0346 45.2414 22.06C45.313 22.2158 45.3602 22.3817 45.3813 22.5518C45.3785 22.6352 45.4208 22.8105 45.4407 22.9761C45.4643 23.1446 45.4567 23.3159 45.4181 23.4816C45.3966 23.5134 45.3839 23.4492 45.3733 23.3717C45.3675 23.3058 45.3532 23.241 45.3308 23.1787C45.2776 23.1201 45.244 23.0464 45.2348 22.9678C45.2348 22.9678 45.2277 23.0417 45.2142 23.1138C45.2041 23.186 45.1864 23.2574 45.1864 23.2574C45.1792 23.2224 45.1684 23.1862 45.1633 23.1526C45.1333 22.8862 45.0635 22.6259 44.9564 22.3801C44.8471 22.1264 44.7139 21.8838 44.5584 21.6555C44.4898 21.5511 44.4162 21.4483 44.3372 21.3483C44.2989 21.2976 44.2588 21.2478 44.2169 21.199L44.0793 21.0317C43.9776 20.9081 43.8765 20.784 43.7852 20.6522C43.6888 20.5242 43.6017 20.3898 43.5163 20.2542C43.1741 19.711 42.9088 19.1231 42.7279 18.5072C42.534 17.8604 42.4316 17.1896 42.4236 16.5143C42.4185 16.1776 42.4366 15.8408 42.4777 15.5065L42.5484 15.0351C42.5695 14.9026 42.5842 14.7708 42.5945 14.6397C42.6844 13.9683 42.554 13.2859 42.223 12.6949C41.8919 12.1039 41.3781 11.6363 40.7586 11.3622C40.5961 11.2791 40.4286 11.2061 40.257 11.1438L39.95 11.0278L39.7852 10.9644L39.6236 10.8928C39.1911 10.7033 38.7784 10.4718 38.3913 10.2014C38.0564 9.96294 37.7408 9.69841 37.4475 9.41029C37.1577 9.11786 36.892 8.80244 36.6532 8.46712C36.4175 8.12978 36.2107 7.77318 36.0349 7.40109L35.91 7.11953C35.87 7.02503 35.8362 6.92812 35.7994 6.83242L35.7063 6.57798C35.6806 6.50144 35.6485 6.42917 35.6204 6.35429C35.4603 5.95335 35.2351 5.58159 34.9538 5.25401C34.6855 4.94546 34.3523 4.69988 33.9782 4.53475C33.5441 4.35127 33.0768 4.25932 32.6056 4.26465C32.3561 4.26515 32.1069 4.28433 31.8603 4.32203L31.4197 4.38818C31.2615 4.41288 31.1011 4.4204 30.9419 4.43664C29.8301 4.51097 28.7158 4.33237 27.683 3.91425C27.3056 3.76235 26.9422 3.57805 26.5967 3.36342C26.5112 3.30865 26.4234 3.25702 26.34 3.19902L26.0912 3.02263C26.0081 2.96406 25.931 2.89758 25.8508 2.83518L25.6367 2.66281C25.167 2.26346 24.6108 1.97889 24.0122 1.83162C23.5561 1.72924 23.0827 1.7318 22.6277 1.83913C22.3291 1.91229 22.0423 2.02741 21.776 2.18106C21.6353 2.26155 21.4991 2.34957 21.3678 2.44474C21.3002 2.4907 21.2363 2.54444 21.1702 2.59347L20.9669 2.75973C20.0655 3.51765 18.9876 4.03607 17.8328 4.26708C17.3246 4.36626 16.8084 4.41783 16.2907 4.42109C16.1481 4.4218 16.0079 4.41537 15.8678 4.41327C15.7281 4.40545 15.589 4.39333 15.4483 4.3822C15.31 4.36437 15.1643 4.34317 15.0269 4.32139C14.9117 4.30094 14.7945 4.28152 14.6736 4.26242C14.2302 4.20255 13.7797 4.21892 13.3417 4.31081C12.8994 4.40005 12.4845 4.59289 12.1312 4.8735C11.6053 5.3123 11.2176 5.8939 11.0148 6.54812L10.9726 6.67323L10.9177 6.82459C10.8783 6.92704 10.8439 7.03146 10.7976 7.13143C10.7517 7.23159 10.7055 7.33244 10.659 7.43397C10.6061 7.53241 10.5524 7.63221 10.4979 7.73336C9.88255 8.80829 9.00962 9.7134 7.95767 10.3673C7.63166 10.5692 7.32391 10.7324 7.02447 10.8974C6.91915 10.9587 6.80238 11.0082 6.68293 11.064C6.58066 11.1093 6.47599 11.1558 6.36889 11.2033C6.16267 11.2948 5.96185 11.3981 5.76743 11.5125C5.3064 11.7756 4.91845 12.1497 4.63888 12.6009C4.37292 13.0554 4.2287 13.5708 4.22015 14.0974C4.21249 14.3789 4.22954 14.6605 4.2711 14.939L4.34991 15.4355C4.37807 15.6194 4.39207 15.8055 4.40696 15.991C4.42877 16.3629 4.42324 16.736 4.39042 17.1071C4.2911 18.1608 3.96576 19.1807 3.43658 20.0973C3.35457 20.2469 3.25662 20.387 3.16664 20.5317C3.06579 20.6691 2.97219 20.8121 2.86382 20.9438L2.56941 21.3052C2.48587 21.4084 2.40781 21.514 2.3328 21.6204C1.98925 22.0938 1.77168 22.6468 1.70053 23.2274C1.64952 23.8236 1.77772 24.4214 2.06868 24.9443C2.22058 25.227 2.40095 25.4933 2.60698 25.7393L2.78999 25.965C2.85544 26.0469 2.92293 26.1272 2.9824 26.2138L3.16463 26.4701L3.33337 26.7357C4.02887 27.8775 4.39657 29.1888 4.39615 30.5258C4.40075 30.6786 4.38725 30.8311 4.38303 30.9838C4.374 31.1361 4.35604 31.2879 4.34217 31.44L4.27492 31.8821C4.25455 32.0004 4.23863 32.1182 4.22551 32.2355C4.17208 32.686 4.195 33.1423 4.29332 33.5851C4.39992 34.0509 4.62444 34.4815 4.94534 34.8355C5.28928 35.203 5.70482 35.4962 6.16635 35.697C6.26351 35.7432 6.36538 35.7847 6.46758 35.8225L6.7522 35.9274C6.85782 35.9683 6.96512 36.0045 7.06778 36.0529C7.17094 36.0994 7.27561 36.1433 7.37736 36.1931L7.67981 36.3491C8.0775 36.5688 8.45417 36.8246 8.80505 37.1132C9.50639 37.6936 10.0966 38.3964 10.5468 39.1875C10.6038 39.2948 10.6611 39.403 10.7188 39.512C10.7693 39.6242 10.8199 39.7368 10.8702 39.8486C10.9054 39.9288 10.934 40.0116 10.9659 40.0931L11.0527 40.3235C11.099 40.452 11.1483 40.5786 11.2038 40.7002C11.3092 40.94 11.4369 41.1695 11.5851 41.3855C11.8613 41.7961 12.2367 42.1304 12.6765 42.3574C13.0929 42.561 13.5495 42.6692 14.013 42.6741C14.259 42.6794 14.5051 42.6649 14.7488 42.6308C14.8108 42.6232 14.8732 42.6134 14.9356 42.602L15.1497 42.5668C15.3094 42.5404 15.4692 42.5149 15.6305 42.5016C17.1398 42.3464 18.6596 42.6705 19.9744 43.4278C20.3227 43.6266 20.6533 43.8549 20.9626 44.1102L21.1688 44.279C21.2286 44.3305 21.2913 44.3755 21.3524 44.424C21.4768 44.5156 21.6022 44.6048 21.7312 44.6825C22.2152 44.9955 22.7704 45.1811 23.3452 45.222C23.4675 45.2288 23.5902 45.2245 23.7117 45.2092C24.37 45.1144 24.9902 44.8427 25.5061 44.4231C25.576 44.3714 25.6434 44.3141 25.7115 44.2585L25.9656 44.0534C26.0502 43.9821 26.1425 43.9206 26.2317 43.8553C26.3209 43.7896 26.4119 43.7268 26.5063 43.6688C26.8768 43.4268 27.2692 43.2201 27.6784 43.0514C28.6939 42.6277 29.7935 42.4441 30.8916 42.5151C31.0283 42.5248 31.1644 42.5403 31.3008 42.5533C31.4365 42.5712 31.5717 42.594 31.707 42.6148C31.9195 42.6537 32.1341 42.6806 32.3496 42.6955C32.7563 42.727 33.1653 42.6908 33.5601 42.5883C34.0887 42.4473 34.5663 42.1589 34.9371 41.7567C35.2132 41.4497 35.4387 41.1008 35.6054 40.7231C35.6509 40.6268 35.6911 40.5264 35.7306 40.4257L35.8634 40.0778C35.9106 39.949 35.966 39.8237 36.0238 39.6994C36.0781 39.5735 36.141 39.4518 36.2054 39.3308C36.9805 37.8631 38.2391 36.7084 39.768 36.0624C39.8942 36.0093 40.0229 35.9629 40.1504 35.9135C40.2653 35.8696 40.3593 35.8379 40.4611 35.7943C40.6578 35.7139 40.849 35.6205 41.0333 35.5149C41.3848 35.3261 41.6955 35.0696 41.9474 34.7602C42.1994 34.4509 42.3877 34.0947 42.5015 33.7123C42.644 33.1758 42.6743 32.6156 42.5905 32.0668L42.5188 31.5874C42.4882 31.4085 42.4792 31.2269 42.4616 31.0468C42.4396 30.6855 42.4448 30.3231 42.4773 29.9626C42.5777 28.7895 42.9606 27.6581 43.5933 26.6652C43.664 26.5491 43.7422 26.4368 43.8227 26.3263C43.9001 26.2135 43.9856 26.1071 44.0723 26.0035C44.1143 25.9535 44.1562 25.9037 44.1978 25.8542L44.3052 25.7342C44.374 25.6562 44.4421 25.5791 44.5105 25.5015C44.6413 25.3339 44.7541 25.153 44.8472 24.9619C44.8967 24.8936 44.9436 24.8387 44.9244 24.9143C44.877 25.1012 44.9344 25.0799 44.9991 25.0445C45.1244 24.9223 45.243 24.5574 45.3242 24.4013C45.3186 24.4209 45.3129 24.4408 45.3092 24.4578C45.2909 24.5251 45.2763 24.5912 45.2565 24.6571C45.2835 24.6181 45.3083 24.5774 45.3306 24.5355C45.3494 24.4983 45.3655 24.4598 45.3786 24.4203C45.3789 24.4138 45.3788 24.4072 45.3784 24.4006L45.3849 24.4032L45.3786 24.4215C45.3671 24.5583 45.3356 24.6927 45.285 24.8204C45.2364 24.9072 45.1907 24.9911 45.1469 25.0584C45.128 25.0964 45.114 25.1367 45.1051 25.1782C45.0334 25.34 44.984 25.5108 44.9583 25.6859C44.9601 25.772 45.0161 25.7848 45.1102 25.7431C45.1386 25.73 45.1356 25.772 45.247 25.6404C45.4649 25.2903 45.6418 24.9164 45.7745 24.526C45.8285 24.2366 45.7137 24.5554 45.7251 24.4288C45.7443 24.3216 45.7817 24.2185 45.8357 24.124C45.8586 24.1046 45.8753 24.1397 45.8962 24.1393ZM30.7467 2.97099C30.9074 2.96788 31.0438 2.95654 31.1706 2.94349C31.2336 2.93406 31.2945 2.92413 31.3548 2.91286C31.3847 2.90694 31.4146 2.90102 31.4449 2.89497C31.4813 2.88669 31.518 2.87835 31.5558 2.86975L31.3553 2.8898C31.2953 2.89694 31.235 2.90605 31.1721 2.91681C31.0457 2.93318 30.909 2.95564 30.7467 2.97099ZM3.21481 34.7917C3.20805 34.7591 3.19864 34.7271 3.18666 34.696C3.16145 34.6405 3.13203 34.5676 3.10542 34.5137C3.06964 34.4388 3.06403 34.4467 3.09294 34.5305C3.12221 34.6224 3.16317 34.7102 3.21481 34.7917ZM9.31832 39.9684C9.30927 39.9486 9.30048 39.9255 9.29118 39.9093C9.25425 39.8451 9.247 39.8441 9.27271 39.9066C9.28173 39.9263 9.2923 39.9452 9.3043 39.9632C9.31157 39.9732 9.31386 39.9674 9.31832 39.9684ZM12.1593 43.6814C12.1021 43.6546 12.0437 43.6298 11.9874 43.6008C12.0099 43.616 12.0332 43.6298 12.0573 43.6422C12.0854 43.6567 12.1186 43.6718 12.1472 43.6841C12.1554 43.6877 12.1555 43.6825 12.1593 43.6814Z" fill="#A3D8F8"/>
<path d="M45.9611 24.6172C45.8191 24.934 45.6691 25.2682 45.4883 25.6476C45.5887 25.5393 45.6789 25.4332 45.7651 25.3217C45.7909 25.2305 45.8499 25.0872 45.8935 24.9481C45.9353 24.8426 45.9582 24.7306 45.9611 24.6172Z" fill="#FF8888"/>
<path d="M45.5396 23.5036C45.5256 23.5626 45.5172 23.6228 45.5145 23.6833C45.5079 23.8046 45.5202 23.8562 45.5384 23.8551C45.5535 23.8542 45.569 23.8096 45.5778 23.7037C45.5839 23.5773 45.5572 23.4465 45.5396 23.5036Z" fill="#FF8888"/>
<path d="M37.3521 6.57295C37.3002 6.4661 37.2715 6.36938 37.2334 6.27661C37.2599 6.38013 37.2998 6.47976 37.3521 6.57295Z" fill="#FF8888"/>
<path d="M45.0148 26.8945L44.9902 26.9251C45.0001 26.9163 45.0084 26.906 45.0148 26.8945Z" fill="#FF8888"/>
<path d="M45.1551 26.7084C45.1011 26.7646 45.0539 26.8271 45.0146 26.8945C45.0691 26.8386 45.1163 26.7761 45.1551 26.7084Z" fill="#FF8888"/>
<path d="M9.79466 41.3121L9.82166 41.3654L9.79297 41.2962L9.79466 41.3121Z" fill="#FF8888"/>
<path d="M45.3375 24.3836L45.3301 24.3806L45.3242 24.4013C45.3282 24.395 45.3326 24.3891 45.3375 24.3836Z" fill="#FF8888"/>
<path d="M45.3379 24.3835L45.3788 24.4005C45.3791 24.3468 45.3616 24.3547 45.3379 24.3835Z" fill="#FF8888"/>
<path d="M45.2707 21.7357C45.2843 21.7569 45.2956 21.7791 45.3082 21.8008C45.3094 21.7929 45.3087 21.7848 45.3062 21.7772C45.2954 21.7551 45.2831 21.7337 45.2695 21.7133L45.2707 21.7357Z" fill="#FF8888"/>
<path d="M45.0642 26.5206C45.0256 26.5766 45.036 26.5732 45.0896 26.5124C45.1041 26.4958 45.1197 26.472 45.1348 26.4515C45.129 26.454 45.1261 26.4508 45.1166 26.4606C45.0979 26.4795 45.0804 26.4996 45.0642 26.5206Z" fill="#FF8888"/>
<path d="M44.9375 27.1922C44.9403 27.1945 44.9485 27.1891 44.9548 27.1865L44.9812 27.1454L44.9636 27.1516C44.9544 27.1658 44.9375 27.1922 44.9375 27.1922Z" fill="#FF8888"/>
<path d="M7.16602 37.7852L7.1816 37.7955C7.1767 37.7917 7.17149 37.7882 7.16602 37.7852Z" fill="#FF8888"/>
<path d="M7.04785 37.7184L7.16589 37.7852C7.13097 37.7559 7.09096 37.7333 7.04785 37.7184Z" fill="#FF8888"/>
<path d="M14.9248 29.1716L29.0634 15.033L31.8385 17.8081L17.6999 31.9467L14.9248 29.1716Z" fill="white"/>
<path d="M28.9141 15.2682C28.7603 15.4642 28.5567 15.6021 28.4389 15.832C28.4988 15.8501 28.4984 15.8501 28.4624 15.9577C28.524 15.9179 28.604 15.8085 28.6592 15.7809C28.6313 15.8589 28.5882 15.9307 28.5324 15.9919C28.5166 16.01 28.5182 15.98 28.496 15.9942C28.4177 16.0471 28.3554 16.1205 28.3159 16.2064C28.262 16.3265 28.2296 16.4278 28.2827 16.4474C28.2793 16.4606 28.2744 16.4733 28.2682 16.4854C28.2582 16.5026 28.2461 16.5186 28.2321 16.5328C28.0497 16.6968 27.8682 16.9104 27.6858 17.0896C27.6336 17.1456 27.5779 17.1982 27.519 17.2472C27.4724 17.2851 27.4304 17.3283 27.3938 17.376C27.2889 17.5 27.1765 17.6175 27.0572 17.7278C26.8515 17.9322 26.6461 18.1362 26.4411 18.3398C26.34 18.4442 26.2465 18.5558 26.1612 18.6736C26.0339 18.8482 25.8943 19.0134 25.7434 19.1681C25.4611 19.4526 25.1801 19.7481 24.8992 20.04C24.8096 20.124 24.7307 20.2188 24.6645 20.3223C24.6358 20.3638 24.6032 20.4025 24.5672 20.4379L24.0899 20.9548C23.9933 21.0589 23.895 21.1537 23.7951 21.2464C23.4801 21.5385 23.1753 21.8694 22.8717 22.196C22.8161 22.2559 22.7619 22.3146 22.7044 22.366C22.6291 22.4335 22.5606 22.5083 22.4999 22.5892C22.3574 22.7763 22.1896 22.9427 22.0012 23.0834C21.8193 23.2315 21.6468 23.3907 21.4847 23.5602C21.3583 23.6876 21.2357 23.8241 21.1139 23.9592C21.053 24.0268 20.9957 24.0976 20.9424 24.1713C20.9067 24.2209 20.8703 24.2648 20.8305 24.3112C20.7242 24.4462 20.5957 24.5622 20.4506 24.6542C20.346 24.7219 20.2513 24.8038 20.1693 24.8976C20.0305 25.0443 19.8783 25.1785 19.7488 25.3307C19.5897 25.5176 19.4109 25.6704 19.2524 25.8533C19.2062 25.9044 19.1557 25.9513 19.1013 25.9937C18.9338 26.1338 18.774 26.2831 18.6229 26.4409L17.7265 27.3374C17.4085 27.6593 17.091 27.9814 16.7685 28.2984C16.6708 28.3944 16.5868 28.5077 16.4968 28.6129C16.4305 28.6456 16.3714 28.6913 16.323 28.7472L16.0041 29.069C15.8551 29.2189 15.7054 29.3657 15.5457 29.504C15.4946 29.5483 15.4449 29.5949 15.3966 29.6438V28.6997C15.4551 28.7576 15.5171 28.8141 15.5824 28.8691C15.7371 29.0034 15.8839 29.1467 16.0218 29.2982C16.2134 29.5037 16.4338 29.6719 16.621 29.8802C16.6419 29.9007 16.6649 29.919 16.6896 29.9348C16.7901 29.9878 16.8698 30.0732 16.9158 30.1771C17.0107 30.2853 17.1126 30.3873 17.2207 30.4824C17.3293 30.5747 17.4391 30.6678 17.543 30.7674C17.6863 30.8977 17.8173 31.0409 17.9343 31.1952C18.0073 31.2933 18.0876 31.3858 18.1745 31.4719H17.2246C17.2836 31.4124 17.3425 31.3527 17.4005 31.2942C17.6338 31.0572 17.8766 30.8367 18.1197 30.615C18.1747 30.5693 18.2248 30.5181 18.2694 30.4622C18.5967 30.0295 18.9705 29.6339 19.3839 29.2825C19.485 29.194 19.5825 29.1039 19.6763 29.008L20.7372 27.9239C20.8466 27.8126 20.95 27.6993 21.0452 27.5811C21.1584 27.4405 21.296 27.3107 21.3997 27.1646C21.4386 27.1168 21.483 27.0738 21.532 27.0364C21.8819 26.7374 22.2006 26.4038 22.4833 26.0406C22.5664 25.9273 22.6641 25.8256 22.7741 25.7381C22.7868 25.7445 22.7867 25.7655 22.841 25.7294C22.9684 25.6064 23.1212 25.467 23.2645 25.3193C23.8628 24.7025 24.4868 24.1137 25.0968 23.5098C25.3759 23.2335 25.6507 22.9528 25.9263 22.673C25.9784 22.6252 26.0246 22.5713 26.0639 22.5126C26.139 22.3935 26.2309 22.2858 26.3365 22.1928L26.757 21.7795C26.8045 21.7333 26.8551 21.6906 26.9126 21.6386C26.9017 21.6696 26.8966 21.6839 26.8909 21.6998C26.902 21.696 26.9125 21.6906 26.9221 21.6839C27.062 21.562 27.1915 21.4279 27.3213 21.2944C27.351 21.2683 27.3769 21.238 27.398 21.2045C27.4512 21.0987 27.5272 21.0059 27.6204 20.9329C27.7753 20.7807 27.9186 20.6192 28.0692 20.4659C28.3076 20.2231 28.5603 19.9935 28.8073 19.7588C28.826 19.7435 28.8456 19.7293 28.866 19.7163C28.7255 19.8899 28.5563 20.0275 28.4038 20.2C28.4856 20.149 28.5584 20.0849 28.6194 20.0103C29.0311 19.6184 29.4278 19.2115 29.8216 18.8019C29.893 18.7276 29.9655 18.6521 30.0413 18.5837C30.4481 18.2059 30.8352 17.8074 31.201 17.3898C31.2351 17.352 31.2717 17.3152 31.3084 17.2785V18.3381C31.2348 18.2555 31.1496 18.1841 31.0554 18.1262C31.0067 18.0067 30.8873 17.9292 30.8107 17.8244C30.7432 17.7324 30.6689 17.6418 30.5944 17.553C30.5134 17.4501 30.4238 17.3543 30.3266 17.2666C30.1456 17.1049 29.9788 16.9279 29.828 16.7377C29.8033 16.6733 29.7468 16.5976 29.7274 16.5281C29.7383 16.5422 29.7496 16.555 29.7591 16.5693C29.7748 16.5926 29.7804 16.5968 29.7758 16.5796C29.7754 16.5784 29.7655 16.5716 29.7603 16.5657L29.7292 16.5295C29.6847 16.4565 29.6403 16.3834 29.5931 16.3059C29.602 16.2691 29.6365 16.2891 29.683 16.3343C29.7259 16.3772 29.7684 16.4194 29.8162 16.4671C29.7695 16.3705 29.7167 16.2771 29.6581 16.1872C29.6606 16.1503 29.7305 16.2456 29.7352 16.2101C29.7392 16.1872 29.7444 16.1645 29.7508 16.1421C29.7172 16.1028 29.6922 16.0737 29.667 16.0441C29.6309 16.0006 29.6009 15.9495 29.6115 15.9331C29.6322 15.9015 29.5578 15.8438 29.546 15.806C29.5453 15.7968 29.5458 15.7875 29.5477 15.7785C29.5577 15.7548 29.6155 15.8036 29.6281 15.793C29.6503 15.7742 29.6467 15.7226 29.6545 15.6806C29.4836 15.4929 29.3169 15.3098 29.143 15.1188C29.2557 15.2104 29.2586 15.215 29.3206 15.2249C29.3575 15.2307 29.3904 15.2644 29.4319 15.3223C29.5575 15.498 29.605 15.5412 29.7021 15.5534C29.6114 15.4131 29.5094 15.2803 29.3971 15.1566C29.3989 15.1248 29.4689 15.1679 29.4129 15.0884C29.4338 15.1033 29.456 15.1191 29.4778 15.1347C29.4753 15.1227 29.4779 15.1121 29.4708 15.1032C29.4176 15.0519 29.3712 14.9941 29.3324 14.9312C29.3003 14.8756 29.2597 14.8253 29.2122 14.7821C29.1552 14.7223 29.1059 14.6557 29.0654 14.5837C29.046 14.5214 29.1432 14.6104 29.1601 14.5958C29.1749 14.5831 29.179 14.5587 29.2326 14.5927C29.2326 14.5927 29.1426 14.4286 29.1419 14.4274C29.155 14.4316 29.1673 14.4377 29.1784 14.4456C29.3604 14.6077 29.5407 14.73 29.7254 14.8858C30.05 15.1604 30.3788 15.4414 30.7031 15.735C31.0445 16.0419 31.3857 16.3488 31.7268 16.6556C31.9475 16.8565 32.1675 17.0578 32.3831 17.2631L32.9256 17.7795L32.3831 18.3534C32.1877 18.5603 31.989 18.7647 31.7816 18.9626C31.5802 19.1547 31.3903 19.3609 31.1958 19.561C30.8571 19.9094 30.5166 20.2587 30.1592 20.5872C29.9079 20.818 29.6611 21.0538 29.4215 21.2968C29.1518 21.5703 28.872 21.8283 28.5937 22.0901C28.3535 22.3159 28.1198 22.5524 27.8891 22.7892C27.5532 23.1382 27.2172 23.4874 26.881 23.8369C26.7449 23.9773 26.6019 24.1075 26.4521 24.2348C26.2677 24.3915 26.092 24.5718 25.9152 24.745C25.665 24.9904 25.4216 25.2426 25.159 25.4746C25.0442 25.5787 24.9346 25.6887 24.8309 25.804C24.7226 25.9374 24.605 26.063 24.479 26.1799C24.3501 26.287 24.2377 26.4359 24.1093 26.5505C23.9701 26.6749 23.8443 26.8098 23.71 26.9369C23.5147 27.1201 23.331 27.3152 23.1599 27.5211C23.0747 27.6226 22.9814 27.7171 22.881 27.8037C22.6062 28.0464 22.3326 28.2935 22.0715 28.5575C21.9925 28.6316 21.9252 28.7174 21.872 28.8118C21.7881 28.9567 21.6852 29.0897 21.5661 29.2073C20.9637 29.8484 20.3329 30.46 19.7046 31.0751L18.8486 31.9281L18.3405 32.4291L18.2607 32.508L17.6926 33.069L17.1382 32.508L16.1701 31.5284L15.3377 30.6926C15.0805 30.4381 14.8147 30.1935 14.5638 29.9316L14.3679 29.7281L13.8145 29.1533L14.3679 28.6153L15.0501 27.9521C15.0805 27.9225 15.1116 27.8931 15.1406 27.8622C15.5196 27.4601 15.9219 27.079 16.2946 26.6683C16.3443 26.6133 16.3986 26.5607 16.4521 26.5089L17.3692 25.6213L18.2092 24.7863C18.5348 24.4631 18.8604 24.1398 19.1859 23.8167C19.5227 23.4685 19.878 23.1388 20.2502 22.8288C20.289 22.7978 20.3284 22.7601 20.3664 22.7232C20.7552 22.3452 21.149 21.9765 21.5312 21.5879C22.0048 21.1066 22.4836 20.6362 22.9633 20.1684L23.4689 19.6869L26.3542 16.9194C26.674 16.6143 26.9949 16.3195 27.3138 16.0297C27.5729 15.794 27.8294 15.5422 28.0871 15.2916C28.1924 15.176 28.3109 15.073 28.44 14.9848C28.5028 14.9338 28.5619 14.8785 28.6169 14.8193C28.6408 14.8105 28.6605 14.8088 28.6395 14.8461C28.588 14.938 28.6025 14.9681 28.6196 14.9931C28.6643 14.9991 28.7661 14.8719 28.8134 14.8657C28.8079 14.8709 28.8027 14.8764 28.7978 14.8821C28.7798 14.9048 28.7615 14.9281 28.7433 14.9512C28.7559 14.9506 28.7684 14.9484 28.7805 14.9448C28.7921 14.9389 28.8031 14.932 28.8133 14.924L28.8183 14.9135L28.8182 14.9207L28.8131 14.9247C28.7841 14.9784 28.7487 15.0284 28.7078 15.0736C28.6823 15.0895 28.6574 15.1049 28.6368 15.1177C28.6232 15.1319 28.6125 15.1486 28.605 15.1668C28.4658 15.3899 28.4505 15.5101 28.4947 15.5801C28.5014 15.5909 28.4936 15.6186 28.5339 15.601C28.6248 15.5062 28.7205 15.4162 28.8207 15.3313C28.8885 15.2361 28.8098 15.2908 28.8385 15.2383C28.9428 15.1479 28.9118 15.2292 28.9141 15.2682ZM27.5286 21.0704C27.6101 21.0125 27.6814 20.9415 27.7396 20.8602C27.6568 20.9165 27.5852 20.9878 27.5286 21.0704ZM15.3911 28.7351C15.3915 28.7459 15.3945 28.7564 15.3997 28.7658C15.4118 28.7804 15.4259 28.7931 15.4416 28.8037C15.4613 28.8171 15.466 28.8102 15.4521 28.7889C15.4379 28.7651 15.4165 28.7463 15.3911 28.7351ZM17.239 27.7655C17.2323 27.7695 17.2261 27.7742 17.2205 27.7796C17.2038 27.801 17.2065 27.8068 17.2272 27.7941C17.2336 27.7893 17.2388 27.7831 17.2425 27.7761C17.2445 27.7716 17.2403 27.769 17.239 27.7655ZM18.2319 26.7399L18.197 26.7795C18.2036 26.7763 18.21 26.7725 18.2159 26.7682C18.2229 26.7622 18.2291 26.7554 18.2345 26.7481C18.2361 26.746 18.233 26.7427 18.2319 26.7399Z" fill="white"/>
<path d="M28.8154 15.5434C28.7119 15.599 28.6258 15.6821 28.5664 15.7834C28.5989 15.782 28.6292 15.7806 28.6596 15.7792C28.6989 15.7032 28.7924 15.6184 28.8154 15.5434Z" fill="white"/>
<path d="M29.0596 14.7061C29.0412 14.71 29.0245 14.7198 29.012 14.7339C28.9876 14.755 28.9719 14.7844 28.9678 14.8163C28.9684 14.8297 28.9804 14.8288 29.0079 14.8029C29.0405 14.7692 29.0745 14.7085 29.0596 14.7061Z" fill="white"/>
<path d="M29.2864 19.2959C29.2546 19.3272 29.2279 19.3537 29.2012 19.3801C29.2363 19.3598 29.2656 19.3308 29.2864 19.2959Z" fill="white"/>
<path d="M28.2926 16.4343L28.2832 16.444C28.2868 16.4432 28.2897 16.4388 28.2926 16.4343Z" fill="white"/>
<path d="M28.352 16.3668C28.328 16.3848 28.3082 16.4079 28.2939 16.4343C28.318 16.4163 28.3379 16.3933 28.352 16.3668Z" fill="white"/>
<path d="M17.6276 27.4992L17.6386 27.4843L17.6211 27.4984L17.6276 27.4992Z" fill="white"/>
<path d="M28.8191 14.8681L28.8192 14.86L28.8135 14.8656C28.8155 14.8659 28.8175 14.8668 28.8191 14.8681Z" fill="white"/>
<path d="M28.8191 14.868L28.8184 14.9134C28.8317 14.8855 28.8284 14.8738 28.8191 14.868Z" fill="white"/>
<path d="M29.5261 15.3395L29.5068 15.325C29.5075 15.3299 29.509 15.3347 29.5113 15.3391C29.5172 15.3446 29.5235 15.3496 29.53 15.3543L29.5261 15.3395Z" fill="white"/>
<path d="M28.362 16.1584C28.3476 16.1793 28.3498 16.1832 28.3674 16.1678C28.3733 16.1614 28.3787 16.1545 28.3836 16.1472C28.3823 16.1456 28.3823 16.1411 28.3794 16.143C28.3728 16.1472 28.3669 16.1524 28.362 16.1584Z" fill="white"/>
<path d="M28.2266 16.6252C28.2267 16.6288 28.2291 16.63 28.2308 16.632L28.243 16.6165L28.2387 16.61C28.2345 16.6152 28.2266 16.6244 28.2266 16.6252Z" fill="white"/>
<path d="M16.4941 28.6155L16.4993 28.6115C16.4974 28.6126 16.4957 28.614 16.4941 28.6155Z" fill="white"/>
<path d="M16.4609 28.6535L16.4947 28.6155C16.4805 28.6263 16.4611 28.6326 16.4609 28.6535Z" fill="white"/>
<path d="M14.9248 17.8081L17.6999 15.033L31.8385 29.1716L29.0634 31.9467L14.9248 17.8081Z" fill="white"/>
<path d="M17.8501 15.0972C18.0066 15.2113 18.2088 15.4793 18.3347 15.4929C18.2786 15.3591 18.2784 15.3591 18.3199 15.3292C18.2575 15.2449 18.1735 15.1902 18.1177 15.107C18.146 15.1039 18.1591 15.0777 18.2533 15.1583C18.27 15.1727 18.2667 15.1978 18.2894 15.2286C18.3622 15.3275 18.4358 15.3892 18.4789 15.3857C18.54 15.3807 18.5805 15.3524 18.5301 15.2292C18.5353 15.2262 18.5383 15.2199 18.5475 15.2232C18.5624 15.2298 18.5758 15.2393 18.5869 15.2511C18.7794 15.4622 18.9759 15.6267 19.17 15.824C19.232 15.8824 19.2908 15.9443 19.346 16.0092C19.3855 16.0576 19.4304 16.1013 19.4799 16.1394C19.607 16.247 19.7274 16.3623 19.8404 16.4847C20.0585 16.7042 20.2763 16.9234 20.4937 17.1421C20.5899 17.2371 20.6943 17.3235 20.8057 17.4001C20.9731 17.5174 21.1301 17.6488 21.275 17.7929C21.5775 18.0933 21.8828 18.3839 22.1874 18.6776C22.2663 18.7647 22.3575 18.8399 22.4581 18.9006C22.4987 18.9277 22.5363 18.9591 22.5701 18.9943L23.1003 19.4849C23.2076 19.5848 23.3115 19.6922 23.4152 19.8031C23.7416 20.1524 24.0803 20.4649 24.4187 20.7803C24.4807 20.8381 24.5415 20.8942 24.5995 20.9584C24.669 21.0363 24.746 21.107 24.8294 21.1697C25.0287 21.3246 25.2072 21.5046 25.3604 21.7053C25.5252 21.9032 25.7006 22.0919 25.886 22.2705C26.021 22.4046 26.1608 22.5306 26.2998 22.656C26.3668 22.7169 26.4373 22.7739 26.511 22.8266C26.5587 22.8606 26.6029 22.8972 26.6502 22.9379C26.7965 23.0568 26.9242 23.1969 27.029 23.3536C27.1066 23.4671 27.1976 23.5709 27.3 23.6627C27.4535 23.8082 27.6013 23.9737 27.7562 24.1061C27.9468 24.2689 28.1161 24.4642 28.3039 24.6277C28.3586 24.6776 28.4093 24.7319 28.4554 24.7899C28.6069 24.9685 28.7673 25.1394 28.9361 25.3017L29.883 26.2484C30.2219 26.5835 30.561 26.9179 30.8954 27.2579C30.9966 27.3608 31.113 27.448 31.2228 27.5425C31.2593 27.6122 31.3084 27.6746 31.3675 27.7266L31.7057 28.0619C31.8632 28.2185 32.0178 28.376 32.1636 28.5432C32.2103 28.5967 32.2592 28.6486 32.3105 28.6994L32.7824 29.1663L32.3105 29.6436C32.2525 29.7021 32.1961 29.7641 32.1411 29.8293C32.0068 29.9841 31.8635 30.1309 31.7119 30.2689C31.5065 30.4604 31.3383 30.6807 31.13 30.8679C31.1095 30.8889 31.0912 30.9119 31.0755 30.9366C31.0224 31.0371 30.9371 31.1168 30.8331 31.1628C30.7248 31.2577 30.6228 31.3595 30.5277 31.4676C30.4355 31.5763 30.3423 31.6861 30.2427 31.7899C30.1126 31.9333 29.9694 32.0643 29.8151 32.1813C29.7169 32.2542 29.6244 32.3346 29.5384 32.4216L29.0616 32.8901L28.5884 32.4216C28.5289 32.3627 28.4692 32.3036 28.4107 32.2457C28.1737 32.0124 27.9532 31.7696 27.7314 31.5265C27.6858 31.4715 27.6346 31.4214 27.5787 31.3768C27.146 31.0494 26.7504 30.6757 26.399 30.2623C26.3105 30.1612 26.2204 30.0638 26.1246 29.9699L25.0403 28.909C24.929 28.7996 24.8158 28.6962 24.6976 28.6011C24.5569 28.4879 24.4273 28.3502 24.2811 28.2464C24.2333 28.2075 24.1902 28.1631 24.1529 28.1141C23.8539 27.7643 23.5203 27.4455 23.1571 27.1628C23.0437 27.0798 22.942 26.982 22.8546 26.872C22.861 26.8594 22.882 26.8594 22.8458 26.8052C22.7229 26.6778 22.5835 26.5249 22.4357 26.3816C21.8189 25.7834 21.2302 25.1594 20.6263 24.5493C20.3501 24.2702 20.0694 23.9954 19.7895 23.7198C19.7416 23.6678 19.6878 23.6216 19.6291 23.5823C19.51 23.5071 19.4024 23.4153 19.3093 23.3096L18.8959 22.8891C18.8498 22.8416 18.807 22.7911 18.7551 22.7335C18.786 22.7445 18.8004 22.7496 18.8164 22.7552C18.8125 22.7442 18.8072 22.7337 18.8005 22.7241C18.6786 22.5842 18.5444 22.4546 18.4109 22.3249C18.3848 22.2951 18.3545 22.2693 18.321 22.2483C18.2152 22.195 18.1224 22.119 18.0494 22.0257C17.8972 21.8708 17.7357 21.7276 17.5824 21.5769C17.3397 21.3386 17.1101 21.0858 16.8753 20.8389C16.86 20.8202 16.8458 20.8006 16.8328 20.7802C17.0064 20.9206 17.1439 21.09 17.3165 21.2424C17.2655 21.1606 17.2015 21.0877 17.1269 21.0267C16.7349 20.615 16.328 20.2184 15.9185 19.8246C15.8441 19.7531 15.7686 19.6807 15.7003 19.6048C15.3225 19.198 14.9239 18.811 14.5063 18.4451C14.4686 18.411 14.4318 18.3745 14.395 18.3378L13.8652 17.8079L14.395 17.2782C14.5034 17.1785 14.6007 17.0674 14.6852 16.9468C14.827 16.8761 14.9425 16.7185 15.0757 16.6136C15.1914 16.5224 15.3073 16.4228 15.4214 16.3229C15.5569 16.2097 15.6849 16.0879 15.8046 15.9582C16.0316 15.7116 16.2739 15.4794 16.5301 15.2632C16.5868 15.2462 16.6771 15.1752 16.7267 15.1756C16.7099 15.1892 16.6934 15.2041 16.6778 15.215C16.6522 15.2329 16.6451 15.2414 16.6575 15.2416C16.6592 15.2397 16.6717 15.2262 16.6785 15.219L16.7243 15.1784C16.7975 15.1337 16.8708 15.089 16.9486 15.0415C16.9522 15.0836 16.9112 15.1393 16.85 15.2017C16.7934 15.2586 16.7373 15.3147 16.6743 15.3779C16.7449 15.3776 16.8586 15.2644 16.9282 15.2456C16.939 15.2743 16.8423 15.3457 16.8521 15.376C16.858 15.3992 16.8624 15.4226 16.8655 15.4463C16.9075 15.41 16.9385 15.383 16.9701 15.3557C17.0156 15.3176 17.0575 15.297 17.0532 15.3284C17.0451 15.3885 17.1255 15.2916 17.1457 15.2972C17.1493 15.3045 17.1512 15.3125 17.1515 15.3207C17.1489 15.357 17.0876 15.4273 17.0808 15.4574C17.0754 15.5 17.0794 15.5434 17.0926 15.5843C17.2687 15.425 17.4405 15.2695 17.6197 15.1073C17.5504 15.1778 17.4933 15.2592 17.4505 15.3483C17.4284 15.3979 17.3916 15.4396 17.345 15.4676C17.2288 15.5296 17.1397 15.6325 17.0952 15.7565C17.205 15.6996 17.3069 15.6286 17.3984 15.5453C17.4012 15.576 17.344 15.66 17.3967 15.6307C17.3795 15.654 17.3613 15.6786 17.3434 15.7028C17.3471 15.7087 17.3472 15.7216 17.3536 15.717C17.3942 15.688 17.4478 15.6197 17.4756 15.6286C17.4958 15.6352 17.5382 15.5929 17.5777 15.5555C17.6084 15.5191 17.651 15.4948 17.6979 15.4868C17.7129 15.5148 17.6373 15.5986 17.6257 15.6416C17.618 15.6868 17.6007 15.7299 17.575 15.7679L17.6441 15.7732C17.6368 15.7884 17.6285 15.8029 17.6191 15.8169C17.4908 15.965 17.3716 16.1422 17.2495 16.2933C17.0329 16.5598 16.8201 16.8202 16.6032 17.0679C16.3758 17.3296 16.1485 17.5913 15.9214 17.8528C15.7727 18.0212 15.6239 18.1888 15.4699 18.3531V17.2628C15.6767 17.4582 15.8813 17.6569 16.0792 17.8644C16.2712 18.0658 16.4774 18.2556 16.6776 18.4501C17.026 18.7887 17.3752 19.1294 17.7037 19.4868C17.9345 19.7381 18.1703 19.9848 18.4133 20.2245C18.6868 20.4941 18.9449 20.7739 19.2066 21.0523C19.4323 21.2925 19.669 21.5261 19.9058 21.757C20.2548 22.0927 20.604 22.4287 20.9535 22.765C21.0939 22.9011 21.2241 23.044 21.3513 23.1938C21.508 23.3783 21.6883 23.554 21.8615 23.7307C22.1069 23.981 22.3592 24.2242 22.5911 24.487C22.6953 24.6018 22.8052 24.7113 22.9205 24.815C23.054 24.9233 23.1796 25.041 23.2965 25.167C23.4036 25.2958 23.5524 25.4082 23.667 25.5366C23.7913 25.6758 23.9264 25.8017 24.0534 25.9361C24.2366 26.1312 24.4317 26.3149 24.6376 26.486C24.7391 26.5713 24.8336 26.6645 24.9202 26.7649C25.1629 27.0396 25.4101 27.3134 25.6741 27.5744C25.7481 27.6535 25.8339 27.7208 25.9283 27.774C26.0731 27.8579 26.2061 27.9608 26.3238 28.0799C26.9649 28.6823 27.5765 29.3132 28.1916 29.9414L29.0446 30.7974L29.5456 31.3055L29.6245 31.3854H28.5021L29.4816 30.4173L30.3174 29.5849C30.572 29.3277 30.8166 29.0619 31.0785 28.811L31.282 28.6151V29.7279L30.655 29.0821C30.6271 29.0532 30.5993 29.0238 30.5701 28.9964C30.1907 28.6401 29.8302 28.2584 29.446 27.9123C29.3947 27.866 29.3451 27.8148 29.2962 27.7644L28.4593 26.898L27.6753 26.1088C27.372 25.8033 27.0689 25.4978 26.7659 25.1923C26.433 24.8699 26.118 24.5294 25.8223 24.1726C25.7911 24.1333 25.7554 24.0959 25.7205 24.0599C25.3634 23.6919 25.0095 23.3131 24.6479 22.9579C24.2003 22.5181 23.7587 22.068 23.3172 21.6146L22.8571 21.1303L20.2091 18.3648C19.9148 18.0556 19.6212 17.7357 19.3279 17.4135C19.0894 17.1515 18.8498 16.9073 18.6099 16.6605C18.4892 16.5468 18.3797 16.4217 18.2829 16.2871C18.2317 16.2248 18.1765 16.1658 18.1177 16.1106C18.0959 16.0738 18.0781 16.038 18.0985 16.0419C18.1485 16.0516 18.137 15.9956 18.1225 15.9389C18.0818 15.8474 17.9835 15.7746 17.9393 15.6892C17.9439 15.6943 17.949 15.6991 17.9543 15.7035C17.9715 15.716 17.9893 15.7289 18.007 15.7417C17.9956 15.7198 17.9856 15.6986 17.972 15.6759C17.9639 15.6623 17.9518 15.6472 17.9407 15.6325C17.9384 15.632 17.9375 15.6331 17.9359 15.6332L17.9361 15.6264L17.941 15.6324C17.9803 15.6418 18.0162 15.6624 18.0441 15.6917C18.0684 15.7259 18.0921 15.7589 18.1117 15.7864C18.1344 15.8086 18.1345 15.7971 18.1433 15.8006C18.2819 15.8553 18.3047 15.7732 18.267 15.6212C18.2646 15.5863 18.2521 15.5529 18.2309 15.5251C18.1431 15.4263 18.0319 15.3387 17.9434 15.2205C17.8747 15.1794 17.9532 15.2818 17.9238 15.276C17.8201 15.1587 17.8516 15.1401 17.8501 15.0972ZM18.187 22.1176C18.129 22.0361 18.058 21.9648 17.9767 21.9065C18.0331 21.9893 18.1044 22.061 18.187 22.1176ZM32.2749 29.6382C32.2642 29.6387 32.2537 29.6416 32.2442 29.6468C32.2297 29.6589 32.2169 29.673 32.2063 29.6887C32.1929 29.7084 32.1998 29.7131 32.2212 29.6992C32.245 29.6849 32.2637 29.6636 32.2749 29.6382ZM30.3422 26.7669C30.3466 26.774 30.3517 26.7806 30.3576 26.7866C30.3794 26.8039 30.3845 26.8004 30.3701 26.778C30.3651 26.7715 30.3587 26.766 30.3515 26.7621C30.3471 26.7603 30.3452 26.765 30.3422 26.7669ZM29.2696 25.727L29.3104 25.7632C29.3065 25.7559 29.3021 25.7488 29.2972 25.7422C29.2909 25.735 29.2839 25.7285 29.2763 25.7228C29.2742 25.7212 29.2718 25.7254 29.2696 25.727Z" fill="white"/>
<path d="M17.9541 15.0239C18.0163 15.1314 18.1039 15.2221 18.2092 15.288C18.1772 15.225 18.1471 15.1661 18.1172 15.1071C18.0751 15.1015 17.9791 14.9968 17.9541 15.0239Z" fill="white"/>
<path d="M17.7027 15.3671C17.7149 15.3911 17.7304 15.4132 17.7487 15.4329C17.7799 15.4623 17.7926 15.4575 17.7918 15.4378C17.7863 15.4124 17.7727 15.3894 17.753 15.3723C17.7213 15.3418 17.6883 15.3353 17.7027 15.3671Z" fill="white"/>
<path d="M16.4121 20.3602C16.4434 20.3918 16.4699 20.4186 16.4964 20.4454C16.476 20.4103 16.447 20.381 16.4121 20.3602Z" fill="white"/>
<path d="M18.5176 15.2199L18.5282 15.23C18.5259 15.2255 18.5222 15.2219 18.5176 15.2199Z" fill="white"/>
<path d="M18.4561 15.1671C18.4715 15.1902 18.4931 15.2086 18.5184 15.22C18.4969 15.1977 18.4734 15.1659 18.4561 15.1671Z" fill="white"/>
<path d="M30.0445 26.3476L30.0293 26.3362L30.0446 26.3551L30.0445 26.3476Z" fill="white"/>
<path d="M17.9339 15.676L17.9336 15.6842L17.9395 15.6901C17.9372 15.6844 17.9356 15.6803 17.9339 15.676Z" fill="white"/>
<path d="M17.934 15.676L17.9359 15.6333C17.9226 15.6343 17.9255 15.6522 17.934 15.676Z" fill="white"/>
<path d="M17.2705 15.6183L17.2876 15.5965C17.2856 15.5951 17.2838 15.5908 17.2815 15.593C17.2755 15.5995 17.2699 15.6063 17.2646 15.6134L17.2705 15.6183Z" fill="white"/>
<path d="M18.43 15.3385C18.4454 15.3476 18.4435 15.3396 18.4254 15.3192C18.4202 15.3143 18.4144 15.31 18.4082 15.3064C18.4087 15.3107 18.41 15.3149 18.412 15.3188C18.4171 15.3261 18.4232 15.3328 18.43 15.3385Z" fill="white"/>
<path d="M18.6001 15.1781C18.5996 15.1731 18.5984 15.1682 18.5965 15.1635L18.583 15.1531L18.5868 15.1678C18.591 15.1715 18.5955 15.175 18.6001 15.1781Z" fill="white"/>
<path d="M31.2245 27.5445L31.2207 27.5397C31.2207 27.5402 31.2215 27.5412 31.2245 27.5445Z" fill="white"/>
<path d="M31.2643 27.5797L31.2256 27.5452C31.237 27.5599 31.2446 27.5801 31.2643 27.5797Z" fill="white"/>
</svg>
