<svg width="11" height="11" viewBox="0 0 11 11" fill="none" xmlns="http://www.w3.org/2000/svg">
<path d="M10.4541 9.02969L6.79938 5.375L10.4541 1.72031C10.8486 1.32574 10.8486 0.690502 10.4541 0.295929C10.0595 -0.0986431 9.42426 -0.0986431 9.02969 0.295929L5.375 3.95062L1.72031 0.295929C1.32574 -0.0986431 0.690502 -0.0986431 0.295929 0.295929C-0.0986431 0.690502 -0.0986431 1.32574 0.295929 1.72031L3.95062 5.375L0.295929 9.02969C-0.0986431 9.42426 -0.0986431 10.0595 0.295929 10.4541C0.690502 10.8486 1.32574 10.8486 1.72031 10.4541L5.375 6.79938L9.02969 10.4541C9.42426 10.8486 10.0595 10.8486 10.4541 10.4541C10.8458 10.0595 10.8458 9.42147 10.4541 9.02969Z" fill="#6E7A8A"/>
</svg>
