<svg width="15" height="16" viewBox="0 0 15 16" fill="none" xmlns="http://www.w3.org/2000/svg">
<path id="Vector" d="M12.925 1.6H12.125V0H10.525V1.6H4.125V0H2.525V1.6H1.725C0.837 1.6 0.133 2.32 0.133 3.2L0.125 14.4C0.125 14.8243 0.293571 15.2313 0.593629 15.5314C0.893687 15.8314 1.30065 16 1.725 16H12.925C13.805 16 14.525 15.28 14.525 14.4V3.2C14.525 2.32 13.805 1.6 12.925 1.6ZM12.925 14.4H1.725V6.4H12.925V14.4ZM4.925 9.6H3.325V8H4.925V9.6ZM8.125 9.6H6.525V8H8.125V9.6ZM11.325 9.6H9.725V8H11.325V9.6ZM4.925 12.8H3.325V11.2H4.925V12.8ZM8.125 12.8H6.525V11.2H8.125V12.8ZM11.325 12.8H9.725V11.2H11.325V12.8Z" fill="#6E7A8A"/>
</svg>
