<svg width="45" height="45" viewBox="0 0 45 45" fill="none" xmlns="http://www.w3.org/2000/svg">
<rect width="45" height="45" rx="4.5" fill="#D0EDFB"/>
<path d="M30.8704 13.1398H29.7004V10.7998H27.3604V13.1398H18.0004V10.7998H15.6604V13.1398H14.4904C13.1917 13.1398 12.1621 14.1928 12.1621 15.4798L12.1504 31.8598C12.1504 32.4804 12.3969 33.0756 12.8358 33.5144C13.2746 33.9533 13.8698 34.1998 14.4904 34.1998H30.8704C32.1574 34.1998 33.2104 33.1468 33.2104 31.8598V15.4798C33.2104 14.1928 32.1574 13.1398 30.8704 13.1398ZM30.8704 31.8598H14.4904V20.1598H30.8704V31.8598ZM19.1704 24.8398H16.8304V22.4998H19.1704V24.8398ZM23.8504 24.8398H21.5104V22.4998H23.8504V24.8398ZM28.5304 24.8398H26.1904V22.4998H28.5304V24.8398ZM19.1704 29.5198H16.8304V27.1798H19.1704V29.5198ZM23.8504 29.5198H21.5104V27.1798H23.8504V29.5198ZM28.5304 29.5198H26.1904V27.1798H28.5304V29.5198Z" fill="#4C95D6"/>
</svg>
