<svg width="50" height="51" viewBox="0 0 50 51" fill="none" xmlns="http://www.w3.org/2000/svg">
<mask id="path-1-inside-1_1481_12953" fill="white">
<path d="M49.8364 25.6284C49.8364 24.5368 49.3821 23.4871 48.5441 22.5069C47.8521 21.6984 47.35 20.7452 47.0746 19.7173C46.7992 18.6893 46.7574 17.6128 46.9525 16.5666C47.188 15.2987 47.0566 14.1625 46.5108 13.2172C45.965 12.2719 45.0467 11.5899 43.8309 11.16C42.8274 10.8058 41.9159 10.2314 41.1634 9.47891C40.4109 8.72641 39.8365 7.81495 39.4823 6.81144C39.0524 5.59561 38.3705 4.67734 37.4251 4.13155C36.4798 3.58577 35.3436 3.45431 34.0757 3.6899C33.0295 3.88494 31.953 3.84321 30.925 3.56777C29.8971 3.29234 28.9439 2.79019 28.1354 2.09819C27.1552 1.26017 26.1054 0.805908 25.0139 0.805908C23.9223 0.805908 22.8725 1.26019 21.8923 2.09816C21.0838 2.79014 20.1306 3.29228 19.1027 3.56771C18.0748 3.84314 16.9982 3.88487 15.9521 3.68984C14.6842 3.45426 13.5479 3.5857 12.6026 4.1315C11.6574 4.67729 10.9754 5.59556 10.5454 6.81138C10.1913 7.8149 9.61685 8.72636 8.86435 9.47885C8.11186 10.2313 7.2004 10.8058 6.19688 11.1599C4.98106 11.5899 4.06278 12.2718 3.51701 13.2172C2.97124 14.1625 2.83976 15.2987 3.07534 16.5666C3.27037 17.6127 3.22864 18.6893 2.95321 19.7172C2.67778 20.7451 2.17564 21.6983 1.48366 22.5068C0.645688 23.487 0.191406 24.5368 0.191406 25.6283C0.191406 26.7199 0.645688 27.7696 1.48366 28.7499C2.17565 29.5584 2.67779 30.5116 2.95321 31.5395C3.22863 32.5675 3.27034 33.6441 3.07528 34.6902C2.8397 35.9581 2.97116 37.0944 3.51696 38.0396C4.06275 38.9849 4.981 39.6669 6.19682 40.0969C7.20034 40.451 8.1118 41.0255 8.86429 41.778C9.61678 42.5304 10.1912 43.4419 10.5454 44.4454C10.9753 45.6612 11.6573 46.5795 12.6026 47.1253C13.5479 47.6711 14.6841 47.8025 15.952 47.567C16.9982 47.3719 18.0747 47.4137 19.1026 47.6891C20.1306 47.9645 21.0837 48.4667 21.8922 49.1586C22.8724 49.9966 23.9222 50.4509 25.0138 50.4509C26.1054 50.4509 27.1551 49.9966 28.1353 49.1587C28.9438 48.4667 29.897 47.9645 30.925 47.6891C31.9529 47.4137 33.0295 47.3719 34.0756 47.567C35.3436 47.8025 36.4798 47.6711 37.4251 47.1253C38.3703 46.5795 39.0523 45.6612 39.4823 44.4454C39.8365 43.4419 40.4109 42.5304 41.1634 41.778C41.9159 41.0255 42.8273 40.451 43.8308 40.0969C45.0466 39.6669 45.9649 38.985 46.5107 38.0396C47.0565 37.0943 47.188 35.9581 46.9524 34.6902C46.7574 33.6441 46.7991 32.5675 47.0745 31.5395C47.35 30.5116 47.8521 29.5584 48.5441 28.7499C49.3821 27.7697 49.8364 26.72 49.8364 25.6284Z"/>
</mask>
<path d="M49.8364 25.6284C49.8364 24.5368 49.3821 23.4871 48.5441 22.5069C47.8521 21.6984 47.35 20.7452 47.0746 19.7173C46.7992 18.6893 46.7574 17.6128 46.9525 16.5666C47.188 15.2987 47.0566 14.1625 46.5108 13.2172C45.965 12.2719 45.0467 11.5899 43.8309 11.16C42.8274 10.8058 41.9159 10.2314 41.1634 9.47891C40.4109 8.72641 39.8365 7.81495 39.4823 6.81144C39.0524 5.59561 38.3705 4.67734 37.4251 4.13155C36.4798 3.58577 35.3436 3.45431 34.0757 3.6899C33.0295 3.88494 31.953 3.84321 30.925 3.56777C29.8971 3.29234 28.9439 2.79019 28.1354 2.09819C27.1552 1.26017 26.1054 0.805908 25.0139 0.805908C23.9223 0.805908 22.8725 1.26019 21.8923 2.09816C21.0838 2.79014 20.1306 3.29228 19.1027 3.56771C18.0748 3.84314 16.9982 3.88487 15.9521 3.68984C14.6842 3.45426 13.5479 3.5857 12.6026 4.1315C11.6574 4.67729 10.9754 5.59556 10.5454 6.81138C10.1913 7.8149 9.61685 8.72636 8.86435 9.47885C8.11186 10.2313 7.2004 10.8058 6.19688 11.1599C4.98106 11.5899 4.06278 12.2718 3.51701 13.2172C2.97124 14.1625 2.83976 15.2987 3.07534 16.5666C3.27037 17.6127 3.22864 18.6893 2.95321 19.7172C2.67778 20.7451 2.17564 21.6983 1.48366 22.5068C0.645688 23.487 0.191406 24.5368 0.191406 25.6283C0.191406 26.7199 0.645688 27.7696 1.48366 28.7499C2.17565 29.5584 2.67779 30.5116 2.95321 31.5395C3.22863 32.5675 3.27034 33.6441 3.07528 34.6902C2.8397 35.9581 2.97116 37.0944 3.51696 38.0396C4.06275 38.9849 4.981 39.6669 6.19682 40.0969C7.20034 40.451 8.1118 41.0255 8.86429 41.778C9.61678 42.5304 10.1912 43.4419 10.5454 44.4454C10.9753 45.6612 11.6573 46.5795 12.6026 47.1253C13.5479 47.6711 14.6841 47.8025 15.952 47.567C16.9982 47.3719 18.0747 47.4137 19.1026 47.6891C20.1306 47.9645 21.0837 48.4667 21.8922 49.1586C22.8724 49.9966 23.9222 50.4509 25.0138 50.4509C26.1054 50.4509 27.1551 49.9966 28.1353 49.1587C28.9438 48.4667 29.897 47.9645 30.925 47.6891C31.9529 47.4137 33.0295 47.3719 34.0756 47.567C35.3436 47.8025 36.4798 47.6711 37.4251 47.1253C38.3703 46.5795 39.0523 45.6612 39.4823 44.4454C39.8365 43.4419 40.4109 42.5304 41.1634 41.778C41.9159 41.0255 42.8273 40.451 43.8308 40.0969C45.0466 39.6669 45.9649 38.985 46.5107 38.0396C47.0565 37.0943 47.188 35.9581 46.9524 34.6902C46.7574 33.6441 46.7991 32.5675 47.0745 31.5395C47.35 30.5116 47.8521 29.5584 48.5441 28.7499C49.3821 27.7697 49.8364 26.72 49.8364 25.6284Z" fill="#FFF1F1" stroke="#FFD7D9" stroke-width="2.20757" mask="url(#path-1-inside-1_1481_12953)"/>
<path fill-rule="evenodd" clip-rule="evenodd" d="M32.7401 16.7982H28.8768L27.7731 15.6944H22.2541L21.1504 16.7982H17.2871V19.0057H32.7401V16.7982Z" fill="#FA4D56"/>
<path fill-rule="evenodd" clip-rule="evenodd" d="M18.3906 33.355C18.3906 34.5691 19.384 35.5625 20.5982 35.5625H29.4285C30.6426 35.5625 31.636 34.5691 31.636 33.355V20.1096H18.3906V33.355Z" fill="#FA4D56"/>
</svg>
