<svg width="10" height="13" viewBox="0 0 10 13" fill="none" xmlns="http://www.w3.org/2000/svg">
<path d="M9.64286 2.62488H7.80402L7.04509 1.2948C6.83259 0.956761 6.50446 0.749878 6.12946 0.749878H3.87054C3.49554 0.749878 3.14732 0.956761 2.95536 1.2948L2.19598 2.62488H0.357143C0.15904 2.62488 0 2.79199 0 2.99988V3.37488C0 3.58347 0.15904 3.74988 0.357143 3.74988H0.714286V11.2499C0.714286 12.0784 1.35379 12.7499 2.14286 12.7499H7.85714C8.64621 12.7499 9.28571 12.0784 9.28571 11.2499V3.74988H9.64286C9.84152 3.74988 10 3.58347 10 3.37488V2.99988C10 2.79199 9.84152 2.62488 9.64286 2.62488ZM3.83705 1.94238C3.85937 1.90136 3.90402 1.87488 3.95089 1.87488H6.04911C6.09654 1.87488 6.14118 1.90125 6.1635 1.94226L6.55357 2.62488H3.44643L3.83705 1.94238ZM7.85714 11.6249H2.14286C1.9456 11.6249 1.78571 11.457 1.78571 11.2499V3.74988H8.21429V11.2499C8.21429 11.4561 8.05357 11.6249 7.85714 11.6249ZM5 10.4999C5.19741 10.4999 5.35714 10.3322 5.35714 10.1249V5.24988C5.35714 5.0426 5.19741 4.87488 5 4.87488C4.80259 4.87488 4.64286 5.04363 4.64286 5.24988V10.1249C4.64286 10.3311 4.80357 10.4999 5 10.4999ZM3.21429 10.4999C3.41071 10.4999 3.57143 10.3311 3.57143 10.1249V5.24988C3.57143 5.0426 3.4117 4.87488 3.21429 4.87488C3.01688 4.87488 2.85714 5.04363 2.85714 5.24988V10.1249C2.85714 10.3311 3.01786 10.4999 3.21429 10.4999ZM6.78571 10.4999C6.98313 10.4999 7.14286 10.3322 7.14286 10.1249V5.24988C7.14286 5.0426 6.98313 4.87488 6.78571 4.87488C6.5883 4.87488 6.42857 5.04363 6.42857 5.24988V10.1249C6.42857 10.3311 6.58929 10.4999 6.78571 10.4999Z" fill="#202833"/>
</svg>
