<svg width="11" height="7" viewBox="0 0 11 7" fill="none" xmlns="http://www.w3.org/2000/svg">
<path d="M1.12413 0.825086C1.25688 0.692346 1.41404 0.625976 1.59563 0.625976C1.77722 0.625976 1.9342 0.692346 2.06659 0.825086L5.95588 4.71437L9.85843 0.811813C9.98233 0.687922 10.1372 0.625977 10.323 0.625977C10.5089 0.625977 10.6681 0.692347 10.8009 0.825087C10.9336 0.957827 11 1.11499 11 1.29658C11 1.47817 10.9336 1.63516 10.8009 1.76754L6.32755 6.22761C6.27445 6.28071 6.21693 6.3184 6.15499 6.34071C6.09304 6.36301 6.02667 6.37398 5.95588 6.37362C5.88508 6.37362 5.81871 6.36247 5.75676 6.34017C5.69482 6.31787 5.6373 6.28035 5.5842 6.22761L1.11086 1.75427C0.98697 1.63038 0.925024 1.47764 0.925024 1.29605C0.925024 1.11446 0.991394 0.957473 1.12413 0.825086Z" fill="white"/>
</svg>
