<svg width="16" height="17" viewBox="0 0 16 17" fill="none" xmlns="http://www.w3.org/2000/svg">
<path d="M12.4862 12.7551C12.4862 13.2455 12.0876 13.659 11.5971 13.659H4.48212C3.99161 13.659 3.59296 13.2455 3.59296 12.7551V5.64256C3.59296 5.15221 3.99161 4.76817 4.48212 4.76817H8.63228V4.17596H4.48212C3.66478 4.17596 3 4.82605 3 5.64312V12.7551C3 13.5722 3.66478 14.2512 4.48212 14.2512H11.5965C12.4139 14.2512 13.0786 13.5716 13.0786 12.7551V8.62083H12.4857L12.4862 12.7551Z" fill="#202833" stroke="#202833" stroke-width="0.437564"/>
<path d="M13.1535 4.08585C12.7059 3.6378 11.9247 3.6378 11.4765 4.08585L7.49954 8.06152C7.46168 8.09937 7.4344 8.14724 7.42159 8.199L7.0029 9.87487C6.97785 9.97561 7.00736 10.0825 7.08085 10.1565C7.13708 10.2127 7.2128 10.2433 7.29019 10.2433C7.31414 10.2433 7.33808 10.2405 7.36202 10.2344L9.03901 9.81532C9.09134 9.80252 9.13867 9.77524 9.17653 9.7374L13.1535 5.76172C13.3774 5.53798 13.501 5.24021 13.501 4.92351C13.501 4.60682 13.3779 4.3096 13.1535 4.08585ZM8.81574 9.2604L7.69775 9.53981L7.97725 8.42219L11.2672 5.13334L12.1057 5.97156L8.81574 9.2604ZM12.7343 5.34262L12.5249 5.55189L11.6864 4.71368L11.8958 4.5044C12.1196 4.28066 12.5105 4.28066 12.7343 4.5044C12.8462 4.61628 12.908 4.76488 12.908 4.92351C12.908 5.08214 12.8462 5.23074 12.7343 5.34262Z" fill="#202833" stroke="#202833" stroke-width="0.437564"/>
</svg>
