<svg width="16" height="17" viewBox="0 0 16 17" fill="none" xmlns="http://www.w3.org/2000/svg">
<g id="Edit">
<g id="Group 44">
<path id="Vector" d="M12.4862 12.5053C12.4862 12.9957 12.0876 13.4092 11.5971 13.4092H4.48212C3.99161 13.4092 3.59296 12.9957 3.59296 12.5053V5.39274C3.59296 4.90239 3.99161 4.51835 4.48212 4.51835H8.63228V3.92615H4.48212C3.66478 3.92615 3 4.57624 3 5.3933V12.5053C3 13.3224 3.66478 14.0014 4.48212 14.0014H11.5965C12.4139 14.0014 13.0786 13.3218 13.0786 12.5053V8.37102H12.4857L12.4862 12.5053Z" fill="white" stroke="white" stroke-width="0.437564"/>
<path id="Vector_2" d="M13.1533 3.83604C12.7056 3.38799 11.9245 3.38799 11.4763 3.83604L7.4993 7.81171C7.46144 7.84956 7.43415 7.89742 7.42135 7.94918L7.00266 9.62505C6.9776 9.7258 7.00711 9.83266 7.0806 9.90669C7.13684 9.9629 7.21256 9.99351 7.28995 9.99351C7.31389 9.99351 7.33783 9.99073 7.36177 9.98461L9.03876 9.5655C9.0911 9.5527 9.13842 9.52543 9.17629 9.48758L13.1533 5.51191C13.3771 5.28816 13.5007 4.99039 13.5007 4.67369C13.5007 4.357 13.3777 4.05978 13.1533 3.83604ZM8.8155 9.01059L7.69751 9.28999L7.977 8.17237L11.267 4.88353L12.1054 5.72174L8.8155 9.01059ZM12.734 5.0928L12.5247 5.30208L11.6862 4.46386L11.8955 4.25459C12.1194 4.03084 12.5102 4.03084 12.734 4.25459C12.846 4.36646 12.9078 4.51507 12.9078 4.67369C12.9078 4.83232 12.846 4.98093 12.734 5.0928Z" fill="white" stroke="white" stroke-width="0.437564"/>
</g>
</g>
</svg>
