<svg width="96" height="96" viewBox="0 0 96 96" fill="none" xmlns="http://www.w3.org/2000/svg">
<rect width="96" height="96" rx="48" fill="#D0EDFB" fill-opacity="0.5"/>
<path d="M70.9997 28V56C70.9978 57.0606 70.5774 58.0777 69.8297 58.83L62.9997 52L51.9997 41L51.7197 40.57L70.9997 28Z" fill="#F6B445"/>
<path d="M62.9999 51.9998L69.8299 58.8298C69.0776 59.5775 68.0606 59.9979 66.9999 59.9998H28.9999C27.9393 59.9979 26.9223 59.5775 26.1699 58.8298L32.9999 51.9998L43.9999 40.9998L44.2499 40.6098L47.9999 42.9998L51.7199 40.5698L51.9999 40.9998L62.9999 51.9998Z" fill="#F6A945"/>
<path d="M44.25 40.6101L44 41.0001L33 52.0001L26.17 58.8301C25.4224 58.0777 25.0019 57.0607 25 56.0001V30.0001C24.9988 29.5965 25.0595 29.1952 25.18 28.8101L26 29.0001L44.25 40.6101Z" fill="#F6B445"/>
<path d="M70.9997 28L51.7197 40.57L47.9997 43L44.2497 40.61L25.9997 29L25.1797 28.81C25.4335 27.9955 25.9411 27.2834 26.6284 26.7779C27.3156 26.2723 28.1465 25.9998 28.9997 26H65.9997C69.9997 26 70.9997 28 70.9997 28Z" fill="#FED049"/>
<path d="M59 70C65.6274 70 71 64.6274 71 58C71 51.3726 65.6274 46 59 46C52.3726 46 47 51.3726 47 58C47 64.6274 52.3726 70 59 70Z" fill="#A7F0BA"/>
<path d="M61.7072 62.7079L65.7072 58.7079C65.8005 58.6148 65.8743 58.504 65.9242 58.3819C66.0253 58.1373 66.0253 57.8626 65.9242 57.6179C65.8743 57.4959 65.8005 57.3851 65.7072 57.2919L61.7072 53.2919C61.5186 53.1098 61.266 53.009 61.0038 53.0113C60.7416 53.0135 60.4908 53.1187 60.3053 53.3041C60.1199 53.4895 60.0148 53.7403 60.0125 54.0025C60.0102 54.2647 60.111 54.5173 60.2932 54.7059L62.5862 57.0009L53.0002 57.0009C52.7349 57.0009 52.4806 57.1063 52.2931 57.2938C52.1055 57.4814 52.0002 57.7357 52.0002 58.0009C52.0002 58.2662 52.1055 58.5205 52.2931 58.708C52.4806 58.8956 52.7349 59.0009 53.0002 59.0009L62.5862 59.0009L60.2932 61.2939C60.111 61.4825 60.0102 61.7351 60.0125 61.9973C60.0148 62.2595 60.1199 62.5104 60.3053 62.6958C60.4907 62.8812 60.7416 62.9863 61.0038 62.9886C61.266 62.9909 61.5186 62.8901 61.7072 62.7079Z" fill="#198038"/>
</svg>
