<svg width="10" height="11" viewBox="0 0 10 11" fill="none" xmlns="http://www.w3.org/2000/svg">
<path d="M5.37587 6.69741L8.59712 9.83643C8.74059 9.9563 8.92515 10.0189 9.11391 10.0118C9.30266 10.0047 9.48172 9.92837 9.61529 9.79806C9.74886 9.66775 9.82711 9.49306 9.8344 9.30891C9.84169 9.12475 9.77749 8.9447 9.65462 8.80472L5.90462 5.14619C5.7641 5.0099 5.57401 4.93341 5.37587 4.93341C5.17773 4.93341 4.98764 5.0099 4.84712 5.14619L1.09712 8.80472C0.974248 8.9447 0.910043 9.12475 0.917333 9.30891C0.924625 9.49306 1.00287 9.66775 1.13645 9.79806C1.27002 9.92837 1.44907 10.0047 1.63783 10.0118C1.82658 10.0189 2.01114 9.9563 2.15462 9.83643L5.37587 6.69741Z" fill="#E94E4E" fill-opacity="0.7"/>
<path d="M5.37587 2.67308L8.59712 5.81211C8.74059 5.93198 8.92515 5.99462 9.11391 5.98751C9.30266 5.98039 9.48172 5.90405 9.61529 5.77374C9.74886 5.64343 9.82711 5.46874 9.8344 5.28459C9.84169 5.10043 9.77749 4.92038 9.65462 4.7804L5.90462 1.12186C5.7641 0.985582 5.57401 0.909088 5.37587 0.909088C5.17773 0.909088 4.98764 0.985582 4.84712 1.12186L1.09712 4.7804C0.974248 4.92038 0.910043 5.10043 0.917333 5.28459C0.924625 5.46874 1.00287 5.64343 1.13645 5.77374C1.27002 5.90405 1.44907 5.98039 1.63783 5.98751C1.82658 5.99462 2.01114 5.93198 2.15462 5.81211L5.37587 2.67308Z" fill="#E94E4E"/>
</svg>
