<svg width="12" height="16" viewBox="0 0 12 16" fill="none" xmlns="http://www.w3.org/2000/svg">
<g clip-path="url(#clip0_1429_3069)">
<path d="M6.37489 6.65727L9.59614 9.7963C9.73962 9.91617 9.92417 9.97881 10.1129 9.9717C10.3017 9.96459 10.4807 9.88824 10.6143 9.75793C10.7479 9.62762 10.8261 9.45293 10.8334 9.26878C10.8407 9.08462 10.7765 8.90457 10.6536 8.76459L6.90364 5.10606C6.76312 4.96977 6.57303 4.89328 6.37489 4.89328C6.17675 4.89328 5.98666 4.96977 5.84614 5.10605L2.09614 8.76459C1.97327 8.90457 1.90907 9.08462 1.91636 9.26878C1.92365 9.45293 2.0019 9.62762 2.13547 9.75793C2.26904 9.88824 2.44809 9.96458 2.63685 9.9717C2.82561 9.97881 3.01016 9.91617 3.15364 9.7963L6.37489 6.65727Z" fill="#E94E4E" fill-opacity="0.9"/>
<path d="M6.37489 2.63288L9.59614 5.77191C9.73962 5.89178 9.92417 5.95442 10.1129 5.94731C10.3017 5.94019 10.4807 5.86385 10.6143 5.73354C10.7479 5.60323 10.8261 5.42854 10.8334 5.24439C10.8407 5.06023 10.7765 4.88018 10.6536 4.7402L6.90364 1.08166C6.76312 0.945383 6.57303 0.868889 6.37489 0.868889C6.17675 0.868889 5.98666 0.945383 5.84614 1.08166L2.09614 4.7402C1.97327 4.88018 1.90907 5.06023 1.91636 5.24439C1.92365 5.42854 2.0019 5.60323 2.13547 5.73354C2.26904 5.86385 2.44809 5.94019 2.63685 5.94731C2.82561 5.95442 3.01016 5.89178 3.15364 5.77191L6.37489 2.63288Z" fill="#D53A3A"/>
<path d="M6.37489 11.0475L9.59614 14.1865C9.73962 14.3064 9.92417 14.3691 10.1129 14.3619C10.3017 14.3548 10.4807 14.2785 10.6143 14.1482C10.7479 14.0179 10.8261 13.8432 10.8334 13.659C10.8407 13.4749 10.7765 13.2948 10.6536 13.1548L6.90364 9.4963C6.76312 9.36002 6.57303 9.28353 6.37489 9.28353C6.17675 9.28353 5.98666 9.36002 5.84614 9.4963L2.09614 13.1548C1.97327 13.2948 1.90907 13.4749 1.91636 13.659C1.92365 13.8432 2.0019 14.0179 2.13547 14.1482C2.26904 14.2785 2.44809 14.3548 2.63685 14.3619C2.82561 14.3691 3.01016 14.3064 3.15364 14.1865L6.37489 11.0475Z" fill="#E94E4E" fill-opacity="0.7"/>
</g>
<defs>
<clipPath id="clip0_1429_3069">
<rect width="15" height="12" fill="white" transform="translate(12 0.5) rotate(90)"/>
</clipPath>
</defs>
</svg>
