<svg width="14" height="13" viewBox="0 0 14 13" fill="none" xmlns="http://www.w3.org/2000/svg">
<path fill-rule="evenodd" clip-rule="evenodd" d="M6.83035 0.212247C7.03514 0.0620634 7.31369 0.0620634 7.51849 0.212247L13.3367 4.47891C13.4861 4.58851 13.5744 4.76276 13.5744 4.9481V11.9299C13.5744 12.2512 13.3139 12.5118 12.9926 12.5118H8.72593C8.40457 12.5118 8.14409 12.2512 8.14409 11.9299V9.02081H6.20472V11.9299C6.20472 12.2512 5.94423 12.5118 5.6229 12.5118H1.35623C1.0349 12.5118 0.774414 12.2512 0.774414 11.9299V4.9481C0.774414 4.76276 0.86271 4.58851 1.01217 4.47891L6.83035 0.212247ZM1.93805 5.24292V11.3481H5.04108V8.43897C5.04108 8.11769 5.30157 7.85721 5.6229 7.85721H8.72593C9.04729 7.85721 9.30777 8.11769 9.30777 8.43897V11.3481H12.4108V5.24292L7.17441 1.40292L1.93805 5.24292Z" fill="#F2F8FF"/>
</svg>
