<svg width="16" height="17" viewBox="0 0 16 17" fill="none" xmlns="http://www.w3.org/2000/svg">
<path d="M13.2441 14.5H2.75591C2.62947 14.5 2.50821 14.4514 2.41881 14.3648C2.3294 14.2783 2.27917 14.1609 2.27917 14.0385V2.96154C2.27917 2.83913 2.3294 2.72174 2.41881 2.63518C2.50821 2.54863 2.62947 2.5 2.75591 2.5H13.2441C13.3705 2.5 13.4918 2.54863 13.5812 2.63518C13.6706 2.72174 13.7208 2.83913 13.7208 2.96154V14.0385C13.7208 14.1609 13.6706 14.2783 13.5812 14.3648C13.4918 14.4514 13.3705 14.5 13.2441 14.5ZM3.23265 13.5769H12.7674V3.42308H3.23265V13.5769Z" fill="#101820"/>
<path d="M2.75567 12.1277C2.6306 12.1272 2.51075 12.0791 2.42196 11.9938C2.33316 11.9073 2.28333 11.7904 2.28333 11.6684C2.28333 11.5465 2.33316 11.4295 2.42196 11.343L4.35273 9.42305C4.56659 9.2116 4.8519 9.08172 5.15652 9.05715C5.46114 9.03257 5.76472 9.11494 6.01177 9.2892L7.72325 10.4892C7.78626 10.5324 7.86314 10.5525 7.94006 10.5457C8.01697 10.5389 8.08886 10.5058 8.14278 10.4523L9.9067 8.73536C10.1511 8.50693 10.4776 8.37927 10.8173 8.37927C11.157 8.37927 11.4834 8.50693 11.7278 8.73536L13.5776 10.5492C13.6551 10.638 13.6951 10.7519 13.6896 10.868C13.6841 10.9842 13.6336 11.0941 13.5481 11.1757C13.4626 11.2573 13.3484 11.3047 13.2283 11.3083C13.1083 11.312 12.9912 11.2716 12.9006 11.1954L11.0509 9.38151C11.0201 9.35023 10.9832 9.32532 10.9422 9.30831C10.9012 9.29129 10.8571 9.28251 10.8125 9.28251C10.7679 9.28251 10.7238 9.29129 10.6828 9.30831C10.6418 9.32532 10.6049 9.35023 10.5741 9.38151L8.80544 11.1123C8.59168 11.3236 8.30679 11.4537 8.00242 11.4791C7.69806 11.5045 7.39437 11.4235 7.1464 11.2507L5.43492 10.0507C5.37282 10.006 5.29605 9.98461 5.21889 9.99055C5.14172 9.99649 5.06941 10.0294 5.0154 10.083L3.09415 11.9892C3.05 12.0328 2.99735 12.0675 2.93925 12.0913C2.88114 12.115 2.81875 12.1274 2.75567 12.1277Z" fill="#101820"/>
<path d="M8.40517 7.97392C8.02802 7.97392 7.65933 7.86565 7.34573 7.66279C7.03214 7.45993 6.78772 7.1716 6.64339 6.83426C6.49906 6.49692 6.46129 6.12572 6.53487 5.7676C6.60845 5.40949 6.79007 5.08053 7.05676 4.82234C7.32345 4.56415 7.66324 4.38832 8.03315 4.31709C8.40306 4.24586 8.78648 4.28242 9.13493 4.42215C9.48338 4.56188 9.7812 4.7985 9.99074 5.1021C10.2003 5.4057 10.3121 5.76264 10.3121 6.12777C10.3121 6.37021 10.2628 6.61028 10.167 6.83426C10.0711 7.05825 9.93066 7.26177 9.75358 7.4332C9.57651 7.60463 9.36629 7.74062 9.13493 7.83339C8.90357 7.92617 8.6556 7.97392 8.40517 7.97392ZM8.40517 5.20469C8.21659 5.20469 8.03225 5.25883 7.87545 5.36026C7.71865 5.46169 7.59645 5.60585 7.52428 5.77452C7.45211 5.94319 7.43323 6.12879 7.47002 6.30785C7.50681 6.48691 7.59762 6.65139 7.73097 6.78049C7.86431 6.90958 8.0342 6.99749 8.21916 7.03311C8.40411 7.06873 8.59583 7.05045 8.77005 6.98058C8.94427 6.91072 9.09319 6.7924 9.19795 6.64061C9.30272 6.48881 9.35864 6.31034 9.35864 6.12777C9.35864 5.88296 9.25819 5.64817 9.07938 5.47506C8.90057 5.30195 8.65805 5.20469 8.40517 5.20469Z" fill="#101820"/>
</svg>
