<svg width="14" height="15" viewBox="0 0 14 15" fill="none" xmlns="http://www.w3.org/2000/svg">
<path d="M13.6665 6.9376H12.5315C12.2676 4.28199 10.1559 2.17053 7.50036 1.9066V0.753906H6.37608V1.9066C3.72052 2.17053 1.60911 4.28199 1.34519 6.9376H0.174805V8.06191H1.34519C1.60911 10.7175 3.72052 12.8293 6.37608 13.0929V14.2456H7.50036V13.0929C10.1559 12.8293 12.2676 10.7175 12.5313 8.06191H13.6662L13.6665 6.9376ZM7.50036 11.9582V11.4348H6.37608V11.9582C4.34281 11.7041 2.73396 10.0952 2.47987 8.06191H2.98552V6.9376H2.47987C2.73396 4.90429 4.34281 3.2954 6.37608 3.04131V3.56468H7.50036V3.04131C9.53363 3.2954 11.1425 4.90429 11.3963 6.9376H10.8555V8.06191H11.3966C11.1425 10.0952 9.53363 11.7041 7.50036 11.9582Z" fill="white"/>
</svg>
