<svg width="16" height="17" viewBox="0 0 16 17" fill="none" xmlns="http://www.w3.org/2000/svg">
<g id="Logout">
<g id="Group 46">
<path id="Vector" d="M8 14.4197C9.14894 14.4186 10.2625 14.0222 11.1537 13.2971C12.045 12.572 12.6596 11.5623 12.8944 10.4376C13.1292 9.31292 12.9698 8.14168 12.4431 7.12057C11.9165 6.09946 11.0545 5.29066 10.0019 4.82997C9.94712 4.8057 9.88804 4.7925 9.82811 4.79113C9.76817 4.78977 9.70856 4.80026 9.65269 4.82201C9.59682 4.84376 9.5458 4.87633 9.50257 4.91786C9.45933 4.95939 9.42473 5.00906 9.40075 5.064C9.37677 5.11895 9.36388 5.17809 9.36283 5.23804C9.36178 5.29798 9.37259 5.35754 9.39463 5.41329C9.41667 5.46904 9.44952 5.51989 9.49127 5.5629C9.53303 5.60592 9.58288 5.64026 9.63795 5.66395C10.5002 6.04026 11.2065 6.70197 11.6382 7.53782C12.07 8.37367 12.2007 9.33268 12.0085 10.2536C11.8163 11.1745 11.3129 12.0012 10.5828 12.5945C9.85282 13.1879 8.94076 13.5118 8 13.5118C7.05924 13.5118 6.14717 13.1879 5.41716 12.5945C4.68714 12.0012 4.18371 11.1745 3.9915 10.2536C3.7993 9.33268 3.93004 8.37367 4.36176 7.53782C4.79348 6.70197 5.49983 6.04026 6.36205 5.66395C6.41712 5.64026 6.46697 5.60592 6.50873 5.5629C6.55048 5.51989 6.58333 5.46904 6.60537 5.41329C6.62741 5.35754 6.63822 5.29798 6.63717 5.23804C6.63612 5.17809 6.62323 5.11895 6.59925 5.064C6.57527 5.00906 6.54067 4.95939 6.49743 4.91786C6.45419 4.87633 6.40318 4.84376 6.34731 4.82201C6.29144 4.80026 6.23183 4.78977 6.17189 4.79113C6.11196 4.7925 6.05288 4.8057 5.99806 4.82997C4.94552 5.29066 4.08354 6.09946 3.55685 7.12057C3.03016 8.14168 2.87083 9.31292 3.10562 10.4376C3.34041 11.5623 3.95502 12.572 4.84625 13.2971C5.73748 14.0222 6.85106 14.4186 8 14.4197Z" fill="#202833"/>
<path id="Vector_2" d="M7.99991 8.04986C8.12058 8.04986 8.2363 8.00192 8.32163 7.9166C8.40696 7.83127 8.45489 7.71554 8.45489 7.59487V3.95499C8.45489 3.83432 8.40696 3.71859 8.32163 3.63326C8.2363 3.54794 8.12058 3.5 7.99991 3.5C7.87924 3.5 7.76351 3.54794 7.67818 3.63326C7.59286 3.71859 7.54492 3.83432 7.54492 3.95499V7.59487C7.54492 7.71554 7.59286 7.83127 7.67818 7.9166C7.76351 8.00192 7.87924 8.04986 7.99991 8.04986Z" fill="#202833"/>
</g>
</g>
</svg>
