<svg width="12" height="16" viewBox="0 0 12 16" fill="none" xmlns="http://www.w3.org/2000/svg">
<g clip-path="url(#clip0_1429_3186)">
<path d="M6.37489 6.21159L9.59614 3.07257C9.73962 2.95269 9.92417 2.89005 10.1129 2.89717C10.3017 2.90428 10.4807 2.98062 10.6143 3.11094C10.7479 3.24125 10.8261 3.41594 10.8334 3.60009C10.8407 3.78424 10.7765 3.9643 10.6536 4.10427L6.90364 7.76281C6.76312 7.89909 6.57303 7.97559 6.37489 7.97559C6.17675 7.97559 5.98666 7.89909 5.84614 7.76281L2.09614 4.10427C1.97327 3.9643 1.90907 3.78424 1.91636 3.60009C1.92365 3.41594 2.0019 3.24125 2.13547 3.11094C2.26904 2.98062 2.44809 2.90428 2.63685 2.89717C2.82561 2.89006 3.01016 2.95269 3.15364 3.07257L6.37489 6.21159Z" fill="#3685E2" fill-opacity="0.9"/>
<path d="M6.37489 10.236L9.59614 7.09698C9.73962 6.97711 9.92417 6.91447 10.1129 6.92158C10.3017 6.92869 10.4807 7.00504 10.6143 7.13535C10.7479 7.26566 10.8261 7.44035 10.8334 7.6245C10.8407 7.80866 10.7765 7.98871 10.6536 8.12869L6.90364 11.7872C6.76312 11.9235 6.57303 12 6.37489 12C6.17675 12 5.98666 11.9235 5.84614 11.7872L2.09614 8.12869C1.97327 7.98871 1.90907 7.80866 1.91636 7.6245C1.92365 7.44035 2.0019 7.26566 2.13547 7.13535C2.26904 7.00504 2.44809 6.9287 2.63685 6.92158C2.82561 6.91447 3.01016 6.97711 3.15364 7.09698L6.37489 10.236Z" fill="#2675D1"/>
</g>
<defs>
<clipPath id="clip0_1429_3186">
<rect width="15" height="12" fill="white" transform="matrix(-4.37114e-08 -1 -1 4.37114e-08 12 15.5)"/>
</clipPath>
</defs>
</svg>
