<svg width="12" height="16" viewBox="0 0 12 16" fill="none" xmlns="http://www.w3.org/2000/svg">
<g clip-path="url(#clip0_1429_3207)">
<path d="M6.37489 9.34273L9.59614 6.2037C9.73962 6.08383 9.92417 6.02119 10.1129 6.0283C10.3017 6.03541 10.4807 6.11176 10.6143 6.24207C10.7479 6.37238 10.8261 6.54707 10.8334 6.73122C10.8407 6.91538 10.7765 7.09543 10.6536 7.23541L6.90364 10.8939C6.76312 11.0302 6.57303 11.1067 6.37489 11.1067C6.17675 11.1067 5.98666 11.0302 5.84614 10.8939L2.09614 7.23541C1.97327 7.09543 1.90907 6.91538 1.91636 6.73122C1.92365 6.54707 2.0019 6.37238 2.13547 6.24207C2.26904 6.11176 2.44809 6.03542 2.63685 6.0283C2.82561 6.02119 3.01016 6.08383 3.15364 6.2037L6.37489 9.34273Z" fill="#3685E2" fill-opacity="0.9"/>
<path d="M6.37489 13.3671L9.59614 10.2281C9.73962 10.1082 9.92417 10.0456 10.1129 10.0527C10.3017 10.0598 10.4807 10.1361 10.6143 10.2665C10.7479 10.3968 10.8261 10.5715 10.8334 10.7556C10.8407 10.9398 10.7765 11.1198 10.6536 11.2598L6.90364 14.9183C6.76312 15.0546 6.57303 15.1311 6.37489 15.1311C6.17675 15.1311 5.98666 15.0546 5.84614 14.9183L2.09614 11.2598C1.97327 11.1198 1.90907 10.9398 1.91636 10.7556C1.92365 10.5715 2.0019 10.3968 2.13547 10.2665C2.26904 10.1361 2.44809 10.0598 2.63685 10.0527C2.82561 10.0456 3.01016 10.1082 3.15364 10.2281L6.37489 13.3671Z" fill="#2675D1"/>
<path d="M6.37489 4.95248L9.59614 1.81346C9.73962 1.69358 9.92417 1.63095 10.1129 1.63806C10.3017 1.64517 10.4807 1.72151 10.6143 1.85183C10.7479 1.98214 10.8261 2.15683 10.8334 2.34098C10.8407 2.52513 10.7765 2.70519 10.6536 2.84516L6.90364 6.5037C6.76312 6.63998 6.57303 6.71648 6.37489 6.71648C6.17675 6.71648 5.98666 6.63998 5.84614 6.5037L2.09614 2.84516C1.97327 2.70519 1.90907 2.52513 1.91636 2.34098C1.92365 2.15683 2.0019 1.98214 2.13547 1.85183C2.26904 1.72151 2.44809 1.64517 2.63685 1.63806C2.82561 1.63095 3.01016 1.69358 3.15364 1.81346L6.37489 4.95248Z" fill="#3685E2" fill-opacity="0.7"/>
</g>
<defs>
<clipPath id="clip0_1429_3207">
<rect width="15" height="12" fill="white" transform="matrix(-4.37114e-08 -1 -1 4.37114e-08 12 15.5)"/>
</clipPath>
</defs>
</svg>
