<svg width="4" height="14" viewBox="0 0 4 14" fill="none" xmlns="http://www.w3.org/2000/svg">
<path d="M2 1.43051e-05C2.48125 1.43051e-05 2.89338 0.171514 3.23637 0.514513C3.57937 0.857512 3.75058 1.26935 3.75 1.75001C3.75 2.23126 3.5785 2.64338 3.2355 2.98638C2.8925 3.32938 2.48067 3.50059 2 3.50001C1.51875 3.50001 1.10663 3.32851 0.763628 2.98551C0.420629 2.64251 0.249421 2.23068 0.250004 1.75001C0.250004 1.26876 0.421504 0.856638 0.764504 0.513638C1.1075 0.170639 1.51934 -0.000569344 2 1.43051e-05ZM2 5.25C2.48125 5.25 2.89338 5.4215 3.23637 5.7645C3.57937 6.1075 3.75058 6.51934 3.75 7C3.75 7.48125 3.5785 7.89337 3.2355 8.23637C2.8925 8.57937 2.48067 8.75058 2 8.75C1.51875 8.75 1.10663 8.5785 0.763628 8.2355C0.420629 7.8925 0.249421 7.48067 0.250004 7C0.250004 6.51875 0.421504 6.10663 0.764504 5.76363C1.1075 5.42063 1.51934 5.24942 2 5.25ZM2 10.5C2.48125 10.5 2.89338 10.6715 3.23637 11.0145C3.57937 11.3575 3.75058 11.7693 3.75 12.25C3.75 12.7312 3.5785 13.1434 3.2355 13.4864C2.8925 13.8294 2.48067 14.0006 2 14C1.51875 14 1.10663 13.8285 0.763628 13.4855C0.420629 13.1425 0.249421 12.7307 0.250004 12.25C0.250004 11.7687 0.421504 11.3566 0.764504 11.0136C1.1075 10.6706 1.51934 10.4994 2 10.5Z" fill="#6E7A8A"/>
</svg>
