<svg width="37" height="37" viewBox="0 0 37 37" fill="none" xmlns="http://www.w3.org/2000/svg">
<rect width="37" height="37" rx="8" fill="#F8F9FA"/>
<path d="M22.8359 5.54999L28.6172 11.3312L22.8359 11.3891V5.54999Z" fill="#56AAFF"/>
<path d="M27.75 10.9844H24.2812C23.6453 10.9844 23.125 10.4641 23.125 9.82812V6.35938C23.125 5.72344 22.6047 5.20312 21.9688 5.20312H9.25C8.61406 5.20312 8.09375 5.72344 8.09375 6.35938V30.6406C8.09375 31.2766 8.61406 31.7969 9.25 31.7969H27.75C28.3859 31.7969 28.9062 31.2766 28.9062 30.6406V12.1406C28.9062 11.5047 28.3859 10.9844 27.75 10.9844Z" fill="#E1E7EC"/>
<path d="M22.5469 27.1719H6.35938C6.0125 27.1719 5.78125 26.9406 5.78125 26.5938V19.6562C5.78125 19.3094 6.0125 19.0781 6.35938 19.0781H22.5469C22.8937 19.0781 23.125 19.3094 23.125 19.6562V26.5938C23.125 26.9406 22.8937 27.1719 22.5469 27.1719Z" fill="#0478ED"/>
<path d="M9.19214 21.3906H10.175L11.1578 23.9922L12.1406 21.3906H13.1234V25.0906H12.4875V22.0266L11.389 25.0906H10.9843L9.82808 22.0266V25.0906H9.19214V21.3906Z" fill="white"/>
<path d="M14.1641 21.3906H15.3781C15.5516 21.3906 15.725 21.3906 15.8984 21.4484C16.0719 21.5062 16.1875 21.5641 16.3609 21.6219C16.4766 21.6797 16.5922 21.7953 16.65 21.9688C16.7078 22.0844 16.7656 22.2578 16.7656 22.4891C16.7656 22.7203 16.7078 22.8938 16.65 23.0672C16.5922 23.1828 16.4766 23.2984 16.3031 23.4141C16.1875 23.4719 16.0141 23.5297 15.8406 23.5875C15.6672 23.6453 15.4937 23.6453 15.2625 23.6453H14.8V25.1484H14.1641V21.3906ZM15.2047 23.0094C15.3203 23.0094 15.3781 23.0094 15.4937 23.0094C15.6094 23.0094 15.6672 23.0094 15.7828 22.9516C15.8406 22.8938 15.9563 22.8938 16.0141 22.7781C16.0719 22.7203 16.0719 22.6047 16.0719 22.4891C16.0719 22.3734 16.0719 22.2578 16.0141 22.2C15.9563 22.1422 15.8984 22.0844 15.8406 22.0266C15.7828 21.9687 15.6094 21.9688 15.5516 21.9688C15.4937 21.9688 15.3781 21.9688 15.2625 21.9688H14.8V23.0094H15.2047Z" fill="white"/>
<path d="M18.789 24.3391H17.228V23.7031L18.7312 21.3906H19.4249V23.7609H19.9452V24.3391H19.4249V25.0906H18.789V24.3391ZM18.789 22.2578L17.864 23.7609H18.789V22.2578Z" fill="white"/>
</svg>
