<svg width="244" height="176" viewBox="0 0 244 176" fill="none" xmlns="http://www.w3.org/2000/svg">
<path d="M222.925 103.556C222.728 104.906 222.561 105.745 222.52 105.937C221.479 110.798 219.811 115.503 217.555 119.933V119.935C216.914 121.205 216.227 122.457 215.496 123.69C213.362 127.273 210.92 130.664 208.197 133.824C206.544 135.758 204.781 137.632 202.91 139.446C194.808 147.329 184.827 154.07 173.876 159.523C171.819 160.548 169.729 161.527 167.606 162.457C160.888 165.402 153.973 167.873 146.91 169.854C145.447 170.266 143.983 170.655 142.516 171.023C139.969 171.664 137.41 172.24 134.856 172.748C131.406 173.436 127.969 174.003 124.544 174.448C120.164 175.019 115.822 175.381 111.566 175.537C106.483 175.713 101.395 175.627 96.3221 175.279C93.7193 175.109 91.0781 174.868 88.415 174.558C88.412 174.559 88.4087 174.56 88.4054 174.56C88.4021 174.56 88.3988 174.559 88.3958 174.558C86.0344 174.286 83.6574 173.961 81.2649 173.581C80.6122 173.477 79.9594 173.368 79.3039 173.258C74.8745 172.498 70.4314 171.549 66.035 170.405C65.9554 170.386 65.8759 170.367 65.7964 170.342C65.7519 170.334 65.7079 170.323 65.6647 170.309C65.5413 170.279 65.4179 170.246 65.2945 170.211C61.378 169.174 57.5081 167.981 53.7232 166.626C51.0601 165.674 48.4381 164.64 45.8793 163.524C44.6615 162.995 43.4593 162.446 42.2727 161.879C41.1866 161.36 40.1133 160.825 39.0528 160.274C32.7968 157.027 27.0427 153.228 22.0703 148.851C19.818 146.875 17.7082 144.742 15.7567 142.469C12.7927 139.028 10.2879 135.217 8.30497 131.131C7.32988 129.11 6.49951 127.022 5.82013 124.883C5.53764 123.997 5.27892 123.096 5.04396 122.179C3.99062 117.995 3.40921 113.706 3.31061 109.393C3.28318 108.359 3.28318 107.32 3.31061 106.277C3.39759 102.646 3.81529 99.0311 4.55851 95.4763C6.53048 86.1102 10.8392 77.4461 17.7424 71.6674C29.6291 61.7116 47.9801 61.3495 59.3484 62.2985C63.7778 62.6688 67.1485 63.2365 68.6624 63.5162C70.9142 63.9304 73.1192 64.4433 75.349 64.9808C83.6126 66.9692 92.2245 69.2676 104.764 67.8579C106.069 67.7098 110.619 67.1612 118.949 64.8437C125.172 63.1556 131.253 60.9813 137.135 58.3409C137.399 58.2202 137.659 58.1023 137.917 57.9843C138.584 57.6744 139.225 57.37 139.853 57.0655C140.012 56.9887 140.174 56.9092 140.331 56.8324C141.595 56.2126 142.788 55.601 143.929 55.0031H143.934C143.976 54.9811 144.014 54.9592 144.055 54.9372C144.211 54.855 144.365 54.7754 144.519 54.6931C144.534 54.6866 144.549 54.6783 144.562 54.6685C146.225 53.7935 147.785 52.9461 149.31 52.1425C149.625 51.9752 149.941 51.8106 150.253 51.6488C150.473 51.5364 150.692 51.4212 150.912 51.3115C151.063 51.2347 151.213 51.1579 151.361 51.0811H151.364C152.28 50.6203 153.191 50.176 154.121 49.7536C155.566 49.0927 157.05 48.4838 158.63 47.9353C159.875 47.4992 161.177 47.1042 162.571 46.7504C176.383 43.2371 197.038 44.3588 210.178 56.5197C220.879 66.4289 223.463 80.762 223.666 91.4529C223.742 95.5006 223.494 99.5479 222.925 103.556Z" fill="#E6EDFA"/>
<path d="M134.855 95.9974V172.748C127.179 174.299 119.39 175.232 111.565 175.537C91.5378 176.269 66.6922 172.594 45.8782 163.527C42.421 162.028 39.0456 160.347 35.7661 158.491C35.7633 158.491 35.7633 158.489 35.7606 158.489C33.7776 157.361 31.8569 156.175 29.9983 154.929C28.3006 153.791 26.6632 152.601 25.0862 151.361C24.0522 150.543 23.0466 149.705 22.0693 148.846C14.5435 142.222 8.80309 134.271 5.81909 124.883C5.53934 123.997 5.27879 123.098 5.04567 122.181C3.99043 117.998 3.40809 113.709 3.30957 109.395V106.277C3.39656 102.647 3.81425 99.0329 4.55747 95.4791H24.6611V123.199H28.1031V67.9292H49.4546V151.092H62.5398V82.3939L113.506 107.876V95.9974C113.506 94.6857 113.765 93.3868 114.267 92.1749C114.769 90.963 115.504 89.8618 116.432 88.9342C117.36 88.0067 118.461 87.2709 119.673 86.769C120.884 86.267 122.183 86.0086 123.495 86.0087H124.866C126.178 86.0086 127.477 86.267 128.689 86.769C129.901 87.2709 131.002 88.0067 131.93 88.9342C132.857 89.8618 133.593 90.963 134.095 92.1749C134.597 93.3868 134.855 94.6857 134.855 95.9974Z" fill="#D8DFF3"/>
<path d="M222.924 95.3927V103.558C222.728 104.905 222.561 105.744 222.52 105.936C215.625 138.454 179.843 161.654 142.517 171.024V76.1941H163.866V147.82H167.31V104.852L188.66 95.4777V95.3927C188.651 93.1371 189.087 90.902 189.944 88.8155C190.801 86.7291 192.061 84.8324 193.653 83.2343C195.245 81.6361 197.137 80.3681 199.22 79.5028C201.303 78.6376 203.536 78.1922 205.792 78.1922C208.047 78.1922 210.28 78.6376 212.364 79.5028C214.447 80.3681 216.338 81.6361 217.93 83.2343C219.522 84.8324 220.782 86.7291 221.639 88.8155C222.496 90.902 222.932 93.1371 222.923 95.3927H222.924Z" fill="#D8DFF3"/>
<path d="M215.497 123.689C213.363 127.273 210.92 130.664 208.197 133.823V127.767C208.197 125.514 211.281 123.689 215.087 123.689H215.497Z" fill="#BDCFD3"/>
<path d="M81.2657 173.58C80.6135 173.477 79.9601 173.37 79.3056 173.257C70.6037 171.788 62.0449 169.57 53.7246 166.629L66.1993 133.16L81.2657 173.58Z" fill="#CAD4EF"/>
<path d="M42.2735 161.88C31.8311 156.894 22.5917 150.468 15.7578 142.468L25.3982 116.605L42.2735 161.88Z" fill="#CAD4EF"/>
<path d="M217.556 119.934C216.916 121.206 216.23 122.457 215.497 123.689C213.363 127.272 210.92 130.663 208.198 133.823C206.543 135.756 204.781 137.631 202.911 139.445C188.489 153.473 168.126 163.888 146.91 169.854C145.449 170.264 143.985 170.654 142.518 171.023C139.969 171.663 137.415 172.238 134.855 172.748C131.407 173.435 127.969 174.002 124.543 174.448C125.04 174.04 125.565 173.667 126.114 173.332C129.274 171.408 132.967 170.388 135.886 168.117C134.373 166.962 135.569 164.552 136.934 163.225C140.189 160.072 144.078 157.648 148.343 156.115C147.658 150.761 153.536 145.715 158.724 147.202C158.759 145.89 159.258 144.634 160.134 143.657C161.01 142.68 162.204 142.047 163.504 141.87C164.804 141.693 166.124 141.984 167.229 142.691C168.334 143.398 169.151 144.475 169.535 145.73C169.756 143.851 170.283 142.021 171.096 140.313C171.805 138.821 174.026 138.935 174.549 140.505C174.551 140.516 174.555 140.526 174.559 140.536C176.28 137.074 181.69 136.269 184.343 139.082C183.418 135.635 187.57 132.039 190.85 133.446C189.276 131.136 188.851 127.91 190.336 125.541C191.82 123.172 195.425 122.231 197.585 124.005C196.051 121.39 197.983 117.487 200.994 117.121C202.53 116.935 204.055 117.527 205.603 117.566C206.403 117.584 207.192 117.373 207.876 116.958C209.589 115.875 211.83 116.037 213.197 117.532C214.124 118.575 214.845 119.784 215.323 121.094C216.095 120.731 216.831 120.328 217.556 119.934Z" fill="#CAD4EF"/>
<path d="M77.671 52.5223C68.4422 50.535 58.6694 46.7137 54.1262 38.4388C52.4946 35.4672 51.6718 31.8359 52.8711 28.6651C54.4819 24.4072 59.228 22.1582 63.732 21.503C69.3699 20.6981 75.1177 21.7056 80.1457 24.38C86.985 28.0412 92.4697 34.7618 100.151 35.8443C106.028 36.6717 111.733 33.9546 117.393 32.1713C123.053 30.3881 129.977 29.7874 134.231 33.9242C135.249 34.9132 135.419 36.2294 135.517 36.7647C136.347 41.2901 131.865 45.4427 130.243 46.9446C128.031 48.9942 122.893 52.8668 106.812 54.1638C98.1594 54.861 89.3354 55.0343 77.671 52.5223Z" fill="#E6EDFA"/>
<path d="M55.4843 52.6989H1.48682C0.5682 51.1059 0.191138 49.2578 0.412246 47.4322C0.633355 45.6066 1.4407 43.902 2.71307 42.5743C3.98544 41.2466 5.65417 40.3675 7.46871 40.0689C9.28325 39.7703 11.1457 40.0684 12.7764 40.9185C12.927 39.0227 13.4895 37.1827 14.4246 35.5268C15.3597 33.8709 16.6448 32.439 18.1904 31.3309C19.7359 30.2229 21.5046 29.4655 23.3731 29.1115C25.2415 28.7575 27.1647 28.8154 29.0085 29.2813C30.8522 29.7472 32.5721 30.6098 34.0481 31.8089C35.5241 33.0081 36.7206 34.5148 37.5543 36.224C38.3879 37.9333 38.8386 39.8038 38.8748 41.7052C38.9109 43.6065 38.5318 45.4929 37.7638 47.2326C43.6638 49.1061 49.4502 51.3951 55.4843 52.6989Z" fill="#DAE8EB"/>
<path d="M171.259 69.6008H200.317C200.811 68.7435 201.014 67.749 200.895 66.7667C200.776 65.7843 200.342 64.867 199.657 64.1525C198.972 63.438 198.074 62.9649 197.098 62.8042C196.121 62.6435 195.119 62.8038 194.242 63.2612C194.161 62.2409 193.858 61.2506 193.355 60.3594C192.852 59.4682 192.16 58.6975 191.328 58.1011C190.497 57.5048 189.545 57.0971 188.539 56.9065C187.534 56.716 186.499 56.7472 185.506 56.9979C184.514 57.2487 183.588 57.7129 182.794 58.3583C182 59.0036 181.356 59.8146 180.907 60.7345C180.459 61.6544 180.216 62.6611 180.197 63.6844C180.177 64.7076 180.382 65.7228 180.795 66.659C177.62 67.6661 174.506 68.8984 171.259 69.6008Z" fill="#D8DFF3"/>
<path d="M144.726 32.8696H218.399C219.651 30.6961 220.165 28.1749 219.863 25.6845C219.561 23.1941 218.46 20.8688 216.724 19.0576C214.988 17.2464 212.712 16.0471 210.236 15.6396C207.761 15.2322 205.22 15.6385 202.996 16.7977C202.791 14.2108 202.024 11.6998 200.748 9.43989C199.472 7.18003 197.719 5.22577 195.61 3.71352C193.501 2.20126 191.088 1.16745 188.538 0.684244C185.989 0.201037 183.364 0.280076 180.848 0.91584C178.332 1.5516 175.986 2.72877 173.972 4.36519C171.958 6.00161 170.325 8.05784 169.188 10.3904C168.05 12.7229 167.436 15.2755 167.387 17.8701C167.338 20.4647 167.856 23.0386 168.904 25.4124C160.853 27.9652 152.958 31.0896 144.726 32.8696Z" fill="#DAE8EB"/>
<path d="M136.4 172.432C135.885 172.539 135.372 172.646 134.856 172.748H134.854C134.423 172.835 133.992 172.918 133.562 173C133.255 173.058 132.948 173.118 132.64 173.173C132.27 173.241 131.897 173.31 131.527 173.373C131.255 173.425 130.987 173.472 130.718 173.516C130.375 173.576 130.032 173.634 129.689 173.688C129.272 173.757 128.858 173.826 128.441 173.891L128.321 173.908C127.917 173.971 127.514 174.031 127.114 174.092C126.255 174.218 125.399 174.337 124.544 174.448C123.995 174.519 123.449 174.587 122.904 174.651C122.418 174.709 121.933 174.764 121.45 174.816C121.176 174.849 120.902 174.876 120.63 174.901C120.416 174.925 120.202 174.947 119.988 174.967C119.725 174.994 119.462 175.019 119.201 175.041C118.85 175.076 118.496 175.106 118.145 175.134C118.074 175.142 118.003 175.148 117.934 175.153C117.432 175.197 116.93 175.235 116.431 175.271C116.404 175.274 116.374 175.276 116.346 175.276C115.88 175.309 115.414 175.342 114.948 175.37C114.868 175.375 114.788 175.381 114.709 175.383C114.311 175.408 113.916 175.43 113.521 175.449C112.866 175.485 112.213 175.512 111.563 175.537C109.912 175.597 108.231 175.627 106.519 175.627C106.037 175.627 105.551 175.625 105.066 175.619C104.632 175.617 104.194 175.611 103.757 175.6C103.571 175.597 103.384 175.595 103.198 175.589C102.811 175.581 102.422 175.57 102.03 175.559C102.01 175.559 101.991 175.558 101.972 175.556C101.459 175.542 100.946 175.523 100.431 175.501C99.4899 175.463 98.5437 175.416 97.592 175.361C97.5372 175.359 97.4823 175.353 97.4302 175.35C97.2684 175.342 97.1093 175.331 96.9475 175.32C96.5471 175.296 96.1439 175.271 95.7407 175.241C95.3705 175.216 95.0002 175.189 94.6272 175.158C93.9991 175.112 93.3711 175.06 92.743 175.002C92.5373 174.986 92.3289 174.966 92.1232 174.947C91.8818 174.925 91.6377 174.901 91.3936 174.879C91.2126 174.86 91.0289 174.843 90.8478 174.824C89.7618 174.714 88.672 174.593 87.5786 174.462C87.0987 174.404 86.6187 174.347 86.1387 174.284C85.7959 174.24 85.4531 174.193 85.113 174.146C84.8414 174.111 84.5727 174.072 84.3011 174.034C83.2891 173.894 82.2771 173.741 81.265 173.581C81.2635 173.582 81.262 173.581 81.2606 173.581C81.2592 173.581 81.2579 173.58 81.2568 173.579C80.9332 173.529 80.6095 173.474 80.2859 173.422C79.9623 173.37 79.6332 173.313 79.304 173.258C78.9886 173.203 78.6732 173.148 78.3578 173.091C77.7133 172.978 77.0679 172.859 76.4215 172.734C76.1061 172.676 75.7935 172.616 75.4808 172.553C75.2285 172.506 74.9761 172.457 74.7266 172.405V172.402L75.2751 164.369V164.366L75.5768 159.994H76.2021L81.6271 159.992H81.734L81.8602 159.994H81.8629L106.237 159.989H106.24L106.898 159.986H107.285L111.73 159.983H111.736L112.183 159.986H112.224L126.157 159.983L128.611 159.981H130.784L131.272 159.983L134.854 159.981H135.111V159.989L135.633 165L136.151 170.005L136.154 170.027V170.038L136.2 170.507V170.51L136.4 172.432Z" fill="#687ED4"/>
<path d="M135.111 159.98L75.2764 164.366L75.5753 159.993L135.111 159.98Z" fill="#4863C9"/>
<path d="M106.019 170.468L107.064 170.472L107.01 159.969L105.964 159.963L106.019 170.468Z" fill="#4863C9"/>
<path d="M108.254 167.324C108.723 167.346 109.192 167.275 109.634 167.115C110.075 166.955 110.481 166.709 110.826 166.391C112.886 164.421 111.967 160.07 111.927 159.885L110.906 160.1C110.915 160.139 111.742 164.063 110.102 165.629C109.377 166.321 108.217 166.456 106.653 166.03L106.389 167.043C106.996 167.217 107.623 167.311 108.254 167.324Z" fill="#4863C9"/>
<path d="M75.0779 171.572C75.7882 171.598 76.4961 171.474 77.1553 171.209C77.8146 170.943 78.4104 170.541 78.9039 170.029C81.8769 166.93 81.0706 160.25 81.0357 159.967L79.9889 160.084C79.9971 160.148 80.7689 166.556 78.137 169.297C77.2396 170.231 76.068 170.623 74.5587 170.496L74.4844 171.545C74.686 171.562 74.884 171.571 75.0779 171.572Z" fill="#4863C9"/>
<path d="M135.056 170.594C135.366 170.594 135.674 170.562 135.977 170.498L135.765 169.476C135.357 169.582 134.931 169.588 134.521 169.495C134.11 169.401 133.729 169.211 133.408 168.938C130.872 166.799 130.994 160.039 130.997 159.97L129.958 159.939C129.952 160.238 129.827 167.278 132.745 169.738C133.387 170.293 134.208 170.597 135.056 170.594Z" fill="#4863C9"/>
<path d="M162.095 118.646L143.344 133.777L135.245 117.582V159.989H75.5785V116.943L66.4153 131.646L47.875 114.812L66.4756 84.7635C67.8468 82.5482 69.7613 80.72 72.0375 79.4523C74.3136 78.1846 76.8759 77.5196 79.4813 77.5202H130.859C133.149 77.5199 135.41 78.0341 137.475 79.0248C139.539 80.0155 141.355 81.4575 142.787 83.2441C143.373 83.9719 143.89 84.7523 144.331 85.5754L162.095 118.646Z" fill="#9ACEDB"/>
<path d="M121.097 50.3888C121.097 50.3888 122.399 56.4226 121.262 57.6124C120.124 58.8022 115.633 47.1766 121.097 50.3888Z" fill="#32477B"/>
<path d="M104.159 43.2999L119.569 47.8993C125.798 73.1454 114.776 72.9888 114.776 72.9888L115.143 76.9031C115.253 78.076 115.11 79.2587 114.724 80.3717C114.338 81.4847 113.718 82.5019 112.905 83.3549C112.093 84.2079 111.107 84.8768 110.014 85.3164C108.921 85.7561 107.746 85.9563 106.57 85.9036C105.489 85.8553 104.428 85.5945 103.447 85.1361C102.467 84.6777 101.587 84.0307 100.857 83.2321C100.126 82.4335 99.5606 81.4988 99.1916 80.4816C98.8226 79.4643 98.6576 78.3843 98.706 77.3033L99.4635 60.3663L96.508 60.2341C95.9194 60.2078 95.3417 60.0659 94.8079 59.8163C94.2741 59.5667 93.7948 59.2145 93.3971 58.7796C92.9995 58.3448 92.6915 57.8358 92.4905 57.2819C92.2896 56.728 92.1998 56.14 92.2262 55.5513C92.2337 55.3888 92.2483 55.2268 92.2701 55.0653C92.4625 53.657 93.2064 52.3828 94.3383 51.523C95.4701 50.6631 96.8972 50.2881 98.3055 50.4804L99.8551 50.6919L104.159 43.2999Z" fill="#FFC1C2"/>
<path d="M120.245 50.5597C120.216 50.5613 120.197 50.5616 120.182 50.5624C114.964 50.8597 108.745 49.8109 105.94 49.2627C105.539 49.1879 105.125 49.2529 104.767 49.4467C104.408 49.6405 104.127 49.9515 103.971 50.3277C103.233 52.0371 101.992 53.5719 101.014 54.6169C100.904 54.7333 100.761 54.8131 100.604 54.8454C100.447 54.8778 100.284 54.8611 100.137 54.7977C99.9901 54.7343 99.8662 54.6272 99.7821 54.4909C99.6981 54.3546 99.658 54.1958 99.6672 54.036L99.8156 51.4113C99.8267 51.2152 99.7635 51.0222 99.6386 50.8707C99.5137 50.7192 99.3363 50.6203 99.1418 50.5937L98.3069 50.4801C97.6096 50.3846 96.9003 50.4274 96.2195 50.606C95.5388 50.7846 94.8998 51.0956 94.3393 51.5212C93.7787 51.9468 93.3075 52.4786 92.9525 53.0864C92.5975 53.6941 92.3657 54.3658 92.2703 55.0631C92.2484 55.2249 92.2347 55.3868 92.2264 55.5513C92.2237 55.6199 92.221 55.6857 92.221 55.7543C92.2221 56.9089 92.6683 58.0187 93.4667 58.8528C94.2651 59.687 95.3542 60.1813 96.5077 60.233L99.4643 60.3647L99.1434 67.5093C81.9251 47.7841 95.5588 38.0614 95.5588 38.0614C95.5272 36.3884 96.938 35.8961 98.2219 35.7919C99.1147 35.7373 100.004 35.9497 100.775 36.4019C103.499 37.9227 108.018 34.7939 112.769 33.5937C114.586 33.1343 121.271 31.4456 124.092 34.4269C127.926 38.4797 123.833 50.3274 120.245 50.5597Z" fill="#32477B"/>
<path d="M94.7155 56.1451C94.7109 56.1303 94.2858 54.6202 95.0392 53.736C95.54 53.149 96.4747 52.9354 97.8205 53.1008L97.922 52.2722C96.2786 52.0712 95.0935 52.3819 94.4012 53.1987C93.3576 54.4298 93.8916 56.3006 93.915 56.3801L94.7155 56.1451Z" fill="#ED9C9C"/>
<path d="M118.19 61.3545L115.51 55.5752L114.753 55.9257L117.095 60.9768L113.948 62.584L114.328 63.327L118.19 61.3545Z" fill="#ED9C9C"/>
<path d="M118.993 55.466C119.051 56.0549 119.377 56.5063 119.719 56.4737C120.062 56.441 120.295 55.9334 120.238 55.3445C120.227 55.2284 120.203 55.1139 120.168 55.0028C120.125 54.8408 120.048 54.6896 119.944 54.5587C119.688 54.5448 119.431 54.5475 119.176 54.5667C119.088 54.6984 119.031 54.8477 119.008 55.0039C118.983 55.1566 118.978 55.312 118.993 55.466Z" fill="#32477B"/>
<path d="M106.68 52.3767C106.674 52.3464 106.674 52.3152 106.68 52.2849C106.686 52.2546 106.698 52.2258 106.716 52.2001C106.733 52.1744 106.755 52.1524 106.781 52.1352C106.806 52.1181 106.835 52.1062 106.865 52.1002L111.449 51.1521C111.684 51.1035 111.928 51.1371 112.142 51.2474C112.355 51.3577 112.523 51.538 112.619 51.758L112.713 51.9743C112.759 52.0796 112.777 52.195 112.766 52.3094C112.754 52.4237 112.713 52.5331 112.647 52.6271C112.581 52.721 112.492 52.7963 112.388 52.8457C112.284 52.8951 112.169 52.9169 112.055 52.909L106.896 52.5657C106.845 52.5625 106.795 52.5422 106.756 52.508C106.717 52.4738 106.69 52.4276 106.68 52.3767Z" fill="#32477B"/>
<path d="M121.667 51.7881C121.67 51.7612 121.667 51.734 121.659 51.7081C121.651 51.6823 121.638 51.6582 121.621 51.6374C121.604 51.6165 121.583 51.5992 121.559 51.5865C121.535 51.5739 121.509 51.566 121.482 51.5635L117.401 51.1644C117.192 51.144 116.982 51.1961 116.807 51.312C116.632 51.4279 116.501 51.6006 116.438 51.801L116.376 51.9982C116.346 52.094 116.34 52.1961 116.361 52.2946C116.381 52.3931 116.427 52.4846 116.493 52.5603C116.559 52.636 116.644 52.6934 116.739 52.7268C116.834 52.7602 116.935 52.7686 117.035 52.7511L121.496 51.9716C121.541 51.9642 121.582 51.9422 121.613 51.9091C121.644 51.8759 121.663 51.8333 121.667 51.7881Z" fill="#32477B"/>
<path d="M115.148 76.953C111.912 76.5358 108.923 75.006 106.691 72.6259C109.171 73.5776 114.776 72.9877 114.776 72.9877L115.148 76.953Z" fill="#ED9C9C"/>
<path d="M110.449 66.0263L110.084 66.6832C111.319 68.0629 112.984 69.3184 115.399 68.9024L115.609 68.1808C113.447 68.3834 111.792 67.2894 110.449 66.0263Z" fill="#ED9C9C"/>
<path d="M116.594 55.0233C116.604 55.0238 116.613 55.0238 116.622 55.0233L120.977 54.8297C121.016 54.8289 121.055 54.8201 121.092 54.8039C121.128 54.7878 121.16 54.7645 121.188 54.7355C121.215 54.7066 121.236 54.6724 121.249 54.6352C121.263 54.598 121.269 54.5584 121.267 54.5188C121.266 54.4791 121.256 54.4403 121.239 54.4045C121.222 54.3686 121.198 54.3366 121.168 54.3103C121.138 54.2839 121.104 54.2637 121.066 54.251C121.029 54.2382 120.989 54.2331 120.949 54.2359L116.594 54.4296C116.518 54.4333 116.446 54.4661 116.394 54.5212C116.341 54.5762 116.312 54.6494 116.312 54.7255C116.311 54.8017 116.34 54.875 116.392 54.9304C116.445 54.9858 116.516 55.0191 116.592 55.0233H116.594Z" fill="#32477B"/>
<path d="M110.048 55.5332C110.105 56.1221 110.431 56.5735 110.774 56.5409C111.116 56.5082 111.35 56.0006 111.292 55.4117C111.282 55.2954 111.258 55.1805 111.223 55.0691C111.18 54.9072 111.104 54.7559 110.999 54.6251C110.743 54.6112 110.487 54.6139 110.231 54.6331C110.144 54.7648 110.087 54.9141 110.064 55.0703C110.038 55.2231 110.032 55.3788 110.048 55.5332Z" fill="#32477B"/>
<path d="M107.733 55.1451C107.742 55.1456 107.751 55.1456 107.76 55.1451L112.115 54.9515C112.193 54.946 112.265 54.9104 112.316 54.8525C112.368 54.7945 112.395 54.7187 112.391 54.6412C112.388 54.5638 112.354 54.4908 112.297 54.4378C112.241 54.3848 112.165 54.3561 112.088 54.3577L111.946 54.3262C110.547 54.0151 109.09 54.0929 107.733 54.5513C107.657 54.5551 107.585 54.5879 107.532 54.643C107.48 54.698 107.45 54.7712 107.45 54.8473C107.45 54.9235 107.479 54.9968 107.531 55.0522C107.583 55.1076 107.655 55.1409 107.731 55.1451H107.733Z" fill="#32477B"/>
<path d="M135.246 106.927L143.344 133.777L135.246 117.582V106.927Z" fill="#579FAE"/>
<path d="M75.5782 106.927L66.415 131.646L75.5782 116.943V106.927Z" fill="#579FAE"/>
<path d="M135.577 104.157H134.914V117.582H135.577V104.157Z" fill="#579FAE"/>
<path d="M75.9102 104.157H75.2471V117.582H75.9102V104.157Z" fill="#579FAE"/>
<path d="M64.4622 129.873L58.9327 137.251C58.3317 138.053 57.5591 138.71 56.6713 139.175C55.7836 139.639 54.8032 139.9 53.8018 139.937C52.8005 139.974 51.8035 139.787 50.8839 139.389C49.9642 138.991 49.1451 138.393 48.4865 137.637L13.3115 97.3037L24.541 87.3221L64.4622 129.873Z" fill="#FFC1C2"/>
<path d="M143.757 133.397L149.069 140.592C149.68 141.419 150.469 142.098 151.378 142.578C152.287 143.058 153.293 143.326 154.32 143.364C155.348 143.402 156.37 143.207 157.312 142.795C158.254 142.383 159.091 141.764 159.761 140.984L194.45 100.574L183.985 91.135L143.757 133.397Z" fill="#FFC1C2"/>
<path d="M241.431 57.678L213.011 36.6158C211.592 35.5647 209.59 35.8623 208.539 37.2807L179.103 77.0006C178.052 78.4189 178.349 80.4209 179.768 81.472L208.188 102.534C209.606 103.585 211.608 103.288 212.66 101.869L242.096 62.1494C243.147 60.7311 242.849 58.7291 241.431 57.678Z" fill="#687ED4"/>
<path d="M207.72 98.1959L182.874 80.4746C181.917 79.7919 181.86 78.5871 182.726 77.7843C194.189 67.1954 203.562 54.5482 210.358 40.5002C210.865 39.4495 212.014 39.147 212.943 39.8357L236.29 57.1371C236.742 57.4966 237.065 57.9936 237.21 58.5531C237.355 59.1125 237.314 59.704 237.093 60.2379C230.79 74.314 221.934 87.1003 210.973 97.9494C210.537 98.3494 209.979 98.5912 209.389 98.6359C208.799 98.6806 208.211 98.5257 207.72 98.1959Z" fill="#4863C9"/>
<path d="M207.107 96.4132L183.81 79.1477C182.881 78.4593 182.836 77.2723 183.692 76.4796C194.748 66.2556 203.792 54.0522 210.357 40.4999C210.866 39.4501 212.014 39.147 212.943 39.8357L236.241 57.1012C236.702 57.4667 237.029 57.9752 237.169 58.5467C237.31 59.1182 237.256 59.7201 237.017 60.258C230.453 73.8102 221.409 86.0137 210.353 96.2377C209.908 96.6227 209.348 96.8489 208.76 96.8807C208.173 96.9124 207.591 96.748 207.107 96.4132Z" fill="white"/>
<path d="M232.43 48.7523L224.17 42.6305C223.732 42.3063 223.115 42.3981 222.791 42.8355L220.087 46.4845C219.763 46.9219 219.854 47.5392 220.292 47.8633L228.552 53.9852C228.99 54.3093 229.607 54.2175 229.931 53.7801L232.635 50.1311C232.96 49.6937 232.868 49.0764 232.43 48.7523Z" fill="#4863C9"/>
<path d="M230.022 63.0135L211.76 49.4796C211.667 49.4088 211.591 49.3197 211.534 49.2179C211.478 49.1161 211.443 49.0037 211.432 48.8879C211.422 48.772 211.435 48.6551 211.471 48.5446C211.507 48.4341 211.566 48.3322 211.644 48.2454C211.704 48.1459 211.785 48.0598 211.88 47.9928C211.975 47.9257 212.083 47.879 212.197 47.8557C212.311 47.8324 212.429 47.833 212.543 47.8573C212.657 47.8817 212.765 47.9293 212.859 47.9972L231.122 61.5303C231.329 61.679 231.472 61.901 231.522 62.1513C231.572 62.4016 231.524 62.6615 231.39 62.8783C231.221 63.0702 230.987 63.1909 230.733 63.216C230.479 63.2411 230.225 63.1687 230.022 63.0135Z" fill="#4863C9"/>
<path d="M225.464 70.7752L207.201 57.2413C207.109 57.1706 207.032 57.0815 206.976 56.9797C206.919 56.8778 206.885 56.7654 206.874 56.6496C206.863 56.5337 206.876 56.4168 206.912 56.3063C206.949 56.1957 207.008 56.0939 207.085 56.0071C207.146 55.9075 207.226 55.8214 207.321 55.7543C207.417 55.6872 207.525 55.6405 207.639 55.6172C207.753 55.5939 207.871 55.5944 207.985 55.6188C208.099 55.6432 208.206 55.6909 208.301 55.7589L226.563 69.292C226.77 69.4407 226.913 69.6628 226.963 69.913C227.013 70.1633 226.966 70.4232 226.831 70.64C226.663 70.8319 226.428 70.9527 226.174 70.9778C225.92 71.0029 225.666 70.9305 225.464 70.7752Z" fill="#4863C9"/>
<path d="M220.135 77.9659L201.871 64.432C201.779 64.3613 201.702 64.2722 201.646 64.1704C201.589 64.0685 201.555 63.9561 201.544 63.8403C201.533 63.7244 201.546 63.6075 201.582 63.4969C201.619 63.3864 201.678 63.2845 201.755 63.1978C201.816 63.0981 201.896 63.012 201.991 62.9448C202.086 62.8776 202.195 62.8309 202.309 62.8076C202.423 62.7842 202.541 62.7848 202.655 62.8092C202.769 62.8336 202.876 62.8813 202.971 62.9493C209.058 67.4604 215.146 71.9717 221.233 76.4832C221.44 76.6319 221.584 76.8539 221.633 77.1042C221.683 77.3545 221.636 77.6144 221.501 77.8312C221.333 78.0228 221.098 78.1432 220.845 78.1682C220.591 78.1932 220.337 78.1209 220.135 77.9659Z" fill="#4863C9"/>
<path d="M201.472 97.555C199.09 99.6301 195.873 101.979 193.175 102.34C188.194 103.006 183.431 92.8014 183.431 92.8014C183.431 92.8014 183.401 90.2028 185.055 85.3878C185.507 84.0713 186.086 82.5883 186.825 80.9477C186.994 80.574 187.286 80.2698 187.653 80.0865C188.02 79.9032 188.439 79.852 188.839 79.9414L192.634 80.7916L193.717 81.0319C193.776 81.0447 193.835 81.0631 193.891 81.0867C194.04 81.148 194.173 81.2431 194.279 81.3645C194.385 81.4858 194.462 81.6302 194.503 81.7862C194.544 81.9422 194.548 82.1056 194.515 82.2635C194.482 82.4214 194.413 82.5695 194.313 82.6961C193.843 83.2811 193.031 83.8697 191.64 84.0419C191.325 84.0818 191.008 84.0996 190.69 84.0951C190.69 84.0951 190.785 84.4945 190.859 85.0696C191.008 86.258 191.067 88.1962 189.976 88.8402C189.976 88.8435 189.979 88.8468 189.983 88.8468C189.989 88.8539 189.996 88.8601 190.004 88.8652L198.76 95.5279L199.697 96.241L201.472 97.555Z" fill="#FFC1C2"/>
<path d="M159.734 116.611L146.244 136.766L143.757 133.397L159.734 116.611Z" fill="#ED9C9C"/>
<path d="M49.7646 114.207L62.5895 132.373L64.4631 129.873L49.7646 114.207Z" fill="#ED9C9C"/>
<path d="M31.2391 67.6181L30.7825 67.0462C30.2614 66.3934 29.3096 66.2866 28.6568 66.8078L2.76915 87.4744C2.1163 87.9955 2.00956 88.9473 2.53074 89.6001L2.98727 90.172C3.50845 90.8248 4.4602 90.9316 5.11304 90.4104L31.0007 69.7438C31.6535 69.2227 31.7603 68.2709 31.2391 67.6181Z" fill="#9BCFDC"/>
<path d="M23.279 75.5724L21.2623 73.0462C20.6903 72.3296 19.6457 72.2125 18.9292 72.7845L2.01212 86.2897C1.29558 86.8617 1.17842 87.9063 1.75045 88.6228L3.76717 91.1491C4.3392 91.8656 5.38379 91.9827 6.10033 91.4107L23.0174 77.9055C23.7339 77.3335 23.8511 76.2889 23.279 75.5724Z" fill="#32477B"/>
<path d="M36.5339 75.3121C43.3764 75.3121 48.9233 69.7652 48.9233 62.9227C48.9233 56.0803 43.3764 50.5334 36.5339 50.5334C29.6914 50.5334 24.1445 56.0803 24.1445 62.9227C24.1445 69.7652 29.6914 75.3121 36.5339 75.3121Z" fill="#9BCFDC"/>
<path d="M36.5345 73.093C42.1514 73.093 46.7048 68.5396 46.7048 62.9227C46.7048 57.3058 42.1514 52.7524 36.5345 52.7524C30.9177 52.7524 26.3643 57.3058 26.3643 62.9227C26.3643 68.5396 30.9177 73.093 36.5345 73.093Z" fill="#32477B"/>
<path d="M28.9253 60.369C28.8466 60.2706 28.7963 60.1524 28.7801 60.0273C28.7639 59.9022 28.7824 59.7751 28.8335 59.6598C29.693 57.7072 31.259 56.1519 33.2174 55.3057C35.1758 54.4594 37.3817 54.385 39.3927 55.0971C39.5619 55.1605 39.6996 55.2877 39.776 55.4515C39.8524 55.6153 39.8615 55.8025 39.8013 55.9729C39.7411 56.1433 39.6164 56.2833 39.4541 56.3627C39.2918 56.4422 39.1048 56.4547 38.9333 56.3977C37.25 55.8012 35.4034 55.8634 33.764 56.5718C32.1247 57.2802 30.8139 58.5824 30.0948 60.2171C30.0469 60.3255 29.9718 60.4197 29.8769 60.4907C29.782 60.5616 29.6704 60.6069 29.5528 60.6222C29.4353 60.6374 29.3158 60.6222 29.2059 60.5778C29.096 60.5335 28.9994 60.4616 28.9253 60.369Z" fill="white"/>
<path d="M28.8279 66.2523C28.8169 66.2386 28.8062 66.2249 28.7963 66.2101C28.4112 65.6292 28.1537 64.9732 28.0407 64.2855C27.9278 63.5978 27.962 62.8939 28.1411 62.2203C28.1973 62.0483 28.3188 61.9053 28.4795 61.822C28.6402 61.7388 28.8271 61.722 29.0001 61.7753C29.173 61.8287 29.318 61.9478 29.4039 62.1071C29.4898 62.2664 29.5097 62.453 29.4592 62.6268C29.3387 63.1019 29.3188 63.597 29.4008 64.0803C29.4829 64.5636 29.665 65.0243 29.9356 65.4331C30.0352 65.5804 30.0741 65.7605 30.044 65.9358C30.014 66.111 29.9174 66.2679 29.7744 66.3736C29.6314 66.4794 29.4531 66.5258 29.2767 66.5032C29.1004 66.4806 28.9395 66.3907 28.8279 66.2523Z" fill="white"/>
<path d="M26.9404 89.807L25.1541 88.0635C24.7526 87.6717 24.4855 87.1629 24.3911 86.6099C23.9221 83.87 22.2132 75.3354 19.0542 74.8313L17.7756 73.5502C17.2158 72.607 15.5773 72.3912 14.6588 73.0176C13.8662 73.5584 13.0804 74.6371 13.5006 75.5L13.5379 75.3925C13.5379 75.3925 9.79995 75.4341 9.41214 77.5155C9.41214 77.5155 6.12782 77.1041 5.65471 79.8712C5.20382 79.8375 3.73184 79.7829 2.74092 80.7864C2.44133 81.1075 2.21003 81.486 2.06102 81.8991C1.89372 82.3972 1.52154 84.0856 7.22926 91.0179C8.66641 92.7633 9.4072 93.6568 10.5029 94.6741C11.8054 95.8839 12.3863 96.1743 13.4537 97.4006C13.9246 97.9414 16.5238 100.32 16.5238 100.32L19.4974 103.904L26.9404 89.807Z" fill="#FFC1C2"/>
<path d="M17.1158 80.6267L16.5312 80.9834L17.455 82.4972L18.0396 82.1404L17.1158 80.6267Z" fill="#E29474"/>
<path d="M17.8043 85.9292C17.5963 86.1451 17.3476 86.3178 17.0726 86.4374C16.2874 86.775 15.3272 86.6368 14.2178 86.026L14.5469 85.4259C15.4616 85.9294 16.2199 86.0581 16.8008 85.8082C17.5545 85.4835 17.8943 84.5625 18.0303 84.0419L18.6927 84.215C18.5464 84.8524 18.2407 85.4421 17.8043 85.9292Z" fill="#ED9C9C"/>
<path d="M19.7183 86.1669C19.0763 85.9253 18.5154 85.2874 18.0516 84.2707C17.784 83.6681 17.5713 83.0426 17.4162 82.4018C17.2766 81.8588 17.1819 81.37 17.1235 81.0275L15.0117 82.2296C14.274 82.7485 13.3884 83.0152 12.4868 82.9901C10.4057 82.8854 9.08592 81.0503 9.03107 80.9721L8.81934 80.6729L18.8788 74.5398L19.2354 75.1242L9.82616 80.8616C10.254 81.3358 11.2334 82.2414 12.5219 82.3061C13.2853 82.3222 14.0335 82.0913 14.6551 81.6479L17.6641 79.9315L17.7275 80.4419C17.811 81.0456 17.9289 81.644 18.0804 82.2343C18.2258 82.8352 18.4248 83.4218 18.675 83.9871C19.0612 84.8337 19.4934 85.3516 19.9602 85.5271L19.7183 86.1669Z" fill="#ED9C9C"/>
<path d="M14.0548 87.7876C13.9894 87.8546 13.9189 87.9166 13.8442 87.973C13.1988 88.459 12.2685 88.5007 11.0741 88.0983C11.0845 88.7289 10.8491 89.3387 10.4178 89.7988C9.84183 90.352 8.94745 90.5058 7.75879 90.2562L7.89592 89.6079C8.85585 89.8097 9.54864 89.7137 9.95757 89.3232C10.561 88.7448 10.392 87.6776 10.3904 87.6658L10.2946 87.0811L10.8432 87.3054C12.0406 87.7972 12.9166 87.8438 13.4465 87.4447C14.091 86.9604 14.0814 85.8894 14.0669 85.6105L12.2907 82.7013L12.856 82.356L14.7125 85.3968L14.7207 85.47C14.7265 85.5337 14.8718 86.95 14.0548 87.7876Z" fill="#ED9C9C"/>
<path d="M6.00347 79.8648L5.42871 80.2391L10.3626 87.8137L10.9373 87.4394L6.00347 79.8648Z" fill="#ED9C9C"/>
<path d="M13.8094 75.2942L13.2441 75.6395L14.4822 77.6661L15.0474 77.3209L13.8094 75.2942Z" fill="#ED9C9C"/>
<path d="M106.963 88.9765C101.779 88.9765 97.3155 84.9722 96.1102 79.2374L95.7607 77.5761L96.2975 77.4631L96.6469 79.1246C97.7988 84.6023 102.041 88.428 106.963 88.428C111.343 88.428 115.33 85.2786 116.883 80.5914L117.93 77.4333L118.451 77.6058L117.404 80.7639C115.776 85.6763 111.58 88.9765 106.963 88.9765Z" fill="white"/>
<path d="M80.0521 78.2168C80.0514 79.6475 79.6195 81.0448 78.8127 82.2263C78.0058 83.4077 76.8615 84.3185 75.5292 84.8397C74.1968 85.3609 72.7383 85.4684 71.3439 85.148C69.9495 84.8277 68.6841 84.0944 67.7129 83.0439C69.1488 81.3157 70.9476 79.9249 72.9816 78.9703C75.0155 78.0156 77.2347 77.5205 79.4816 77.5202H80.0192C80.0411 77.7478 80.0521 77.981 80.0521 78.2168Z" fill="white"/>
<path d="M142.787 83.2441C141.792 84.2391 140.524 84.9167 139.145 85.1915C137.765 85.4662 136.334 85.3257 135.034 84.7876C133.734 84.2496 132.623 83.3382 131.841 82.1686C131.058 80.999 130.64 79.6238 130.64 78.2168C130.64 77.981 130.651 77.7478 130.673 77.5202H130.859C133.149 77.5199 135.41 78.0341 137.474 79.0248C139.539 80.0155 141.354 81.4575 142.787 83.2441Z" fill="white"/>
<path d="M50.3278 110.961L49.9453 111.354L68.0361 128.935L68.4186 128.541L50.3278 110.961Z" fill="white"/>
<path d="M158.922 112.893L141.244 129.759L141.623 130.156L159.3 113.29L158.922 112.893Z" fill="white"/>
<path d="M75.5781 123.965L79.2335 143.383C79.821 146.503 81.3974 149.352 83.7293 151.507C86.0612 153.662 89.0248 155.009 92.1818 155.349L135.245 159.989H75.5784L75.5781 123.965Z" fill="#579FAE"/>
<path d="M121.954 111.182C125.51 111.182 128.392 109.208 128.392 106.773C128.392 104.338 125.51 102.364 121.954 102.364C118.399 102.364 115.517 104.338 115.517 106.773C115.517 109.208 118.399 111.182 121.954 111.182Z" fill="white"/>
<path d="M121.954 109.155C124.45 109.155 126.472 108.088 126.472 106.773C126.472 105.458 124.45 104.391 121.954 104.391C119.459 104.391 117.437 105.458 117.437 106.773C117.437 108.088 119.459 109.155 121.954 109.155Z" fill="#9ACEDB"/>
</svg>
