<svg width="15" height="19" viewBox="0 0 15 19" fill="none" xmlns="http://www.w3.org/2000/svg">
<path d="M14.8708 13.5534C14.4924 12.1058 13.9123 9.71348 13.2836 6.50456L13.264 6.40421C13.2604 6.38303 13.255 6.36219 13.2479 6.34192C12.9845 5.23584 12.384 4.23891 11.5293 3.48902C10.6746 2.73912 9.60809 2.27331 8.47715 2.15601V1.54353C8.47715 1.39057 8.41639 1.24388 8.30823 1.13572C8.20007 1.02756 8.05338 0.966797 7.90042 0.966797C7.74746 0.966797 7.60077 1.02756 7.49261 1.13572C7.38445 1.24388 7.32369 1.39057 7.32369 1.54353V2.15371C6.19341 2.27101 5.12746 2.73641 4.27307 3.48562C3.41869 4.23484 2.81805 5.23088 2.55413 6.33615C2.54714 6.35646 2.54174 6.37729 2.53798 6.39844L2.51838 6.5034V6.5184C1.88974 9.72271 1.3107 12.1115 0.932369 13.5545C0.867422 13.8097 0.861567 14.0763 0.91525 14.3341C0.968933 14.5918 1.08074 14.8339 1.24215 15.042C1.40356 15.25 1.61031 15.4184 1.84667 15.5344C2.08302 15.6505 2.34274 15.711 2.60604 15.7115H5.04561C5.18213 16.3677 5.54052 16.9568 6.06047 17.3797C6.58043 17.8026 7.23019 18.0335 7.90042 18.0335C8.57064 18.0335 9.22041 17.8026 9.74036 17.3797C10.2603 16.9568 10.6187 16.3677 10.7552 15.7115H13.1948C13.4584 15.7114 13.7185 15.6511 13.9553 15.5352C14.192 15.4192 14.3992 15.2507 14.5609 15.0425C14.7225 14.8343 14.8345 14.5919 14.8882 14.3338C14.942 14.0757 14.936 13.8088 14.8708 13.5534ZM7.90042 16.8845C7.5376 16.884 7.18385 16.7711 6.88771 16.5615C6.59156 16.3519 6.36754 16.0558 6.24636 15.7138H9.55448C9.4333 16.0558 9.20927 16.3519 8.91313 16.5615C8.61699 16.7711 8.26324 16.884 7.90042 16.8845ZM13.655 14.3354C13.6007 14.406 13.5308 14.463 13.4507 14.502C13.3707 14.541 13.2827 14.561 13.1936 14.5603H2.60604C2.51699 14.561 2.42899 14.541 2.34895 14.502C2.2689 14.463 2.19898 14.406 2.14466 14.3354C2.09109 14.2675 2.05421 14.188 2.03698 14.1032C2.01975 14.0185 2.02266 13.9309 2.04546 13.8475C2.42725 12.3826 3.01436 9.96378 3.64877 6.72487C3.85102 5.74705 4.38422 4.86886 5.15849 4.23835C5.93276 3.60784 6.90075 3.26356 7.89927 3.26356C8.89778 3.26356 9.86577 3.60784 10.64 4.23835C11.4143 4.86886 11.9475 5.74705 12.1498 6.72487C12.7842 9.96378 13.3713 12.3768 13.7531 13.8463C13.7758 13.9295 13.7787 14.0168 13.7617 14.1013C13.7447 14.1858 13.7081 14.2652 13.655 14.3331V14.3354Z" fill="white"/>
</svg>
