<svg width="41" height="40" viewBox="0 0 41 40" fill="none" xmlns="http://www.w3.org/2000/svg">
<g id="3204008_completed_cryptocurrency_currency_digital_order_icon 1">
<rect x="0.325195" width="40" height="40" rx="10" fill="#F8F9FA"/>
<g id="Group 2284">
<path id="Vector" d="M14.607 23.0195H12.0187C11.307 23.0195 10.7246 23.6019 10.7246 24.3136V30.5686C10.7246 30.8058 10.9187 30.9999 11.156 30.9999H15.4697C15.707 30.9999 15.9011 30.8058 15.9011 30.5686V24.3136C15.9011 23.6019 15.3187 23.0195 14.607 23.0195Z" fill="#D0EDFB" stroke="#1B68BB" stroke-miterlimit="10" stroke-linecap="round" stroke-linejoin="round"/>
<path id="Vector_2" d="M21.94 19.5684H19.3517C18.64 19.5684 18.0576 20.1507 18.0576 20.8625V30.5684C18.0576 30.8056 18.2517 30.9997 18.489 30.9997H22.8027C23.04 30.9997 23.2341 30.8056 23.2341 30.5684V20.8625C23.2341 20.1507 22.6517 19.5684 21.94 19.5684Z" fill="#D0EDFB" stroke="#1B68BB" stroke-miterlimit="10" stroke-linecap="round" stroke-linejoin="round"/>
<path id="Vector_3" d="M29.274 17.8428H26.6857C25.974 17.8428 25.3916 18.4251 25.3916 19.1369V30.5683C25.3916 30.8055 25.5857 30.9996 25.823 30.9996H30.1367C30.374 30.9996 30.5681 30.8055 30.5681 30.5683V19.1369C30.5681 18.4251 29.9857 17.8428 29.274 17.8428Z" fill="#D0EDFB" stroke="#1B68BB" stroke-miterlimit="10" stroke-linecap="round" stroke-linejoin="round"/>
<path id="Vector_4" d="M31.3186 11.4416C31.2668 11.2863 31.1331 11.1698 30.9692 11.1482L29.1574 10.8851L28.3464 9.24157C28.2731 9.0949 28.1221 9 27.9582 9C27.7943 9 27.6433 9.0949 27.57 9.24157L26.759 10.8851L24.9472 11.1482C24.7833 11.1698 24.6496 11.2863 24.5978 11.4416C24.546 11.5969 24.5892 11.7694 24.7057 11.8859L26.017 13.1627L25.7064 14.9702C25.6806 15.1341 25.7453 15.2937 25.879 15.3929C26.0127 15.4878 26.1896 15.5008 26.3319 15.4275L27.9539 14.5733L29.5758 15.4275C29.6406 15.462 29.7096 15.4749 29.7786 15.4749C29.8692 15.4749 29.9555 15.449 30.0331 15.3929C30.1668 15.298 30.2315 15.1341 30.2056 14.9702L29.8951 13.1627L31.2064 11.8859C31.3272 11.7694 31.3704 11.5969 31.3186 11.4416Z" stroke="#1B68BB" stroke-miterlimit="10" stroke-linecap="round" stroke-linejoin="round"/>
<path id="Vector_5" d="M13.3124 20.8631C14.2654 20.8631 15.0379 20.0906 15.0379 19.1376C15.0379 18.1846 14.2654 17.4121 13.3124 17.4121C12.3594 17.4121 11.5869 18.1846 11.5869 19.1376C11.5869 20.0906 12.3594 20.8631 13.3124 20.8631Z" stroke="#1B68BB" stroke-miterlimit="10" stroke-linecap="round" stroke-linejoin="round"/>
<path id="Vector_6" d="M20.6464 17.6277C21.5993 17.6277 22.3719 16.8552 22.3719 15.9022C22.3719 14.9493 21.5993 14.1768 20.6464 14.1768C19.6934 14.1768 18.9209 14.9493 18.9209 15.9022C18.9209 16.8552 19.6934 17.6277 20.6464 17.6277Z" stroke="#1B68BB" stroke-miterlimit="10" stroke-linecap="round" stroke-linejoin="round"/>
<path id="Vector_7" d="M23.04 14.5646L24.8044 13.7881" stroke="#1B68BB" stroke-miterlimit="10" stroke-linecap="round" stroke-linejoin="round"/>
<path id="Vector_8" d="M18.31 17.0391L15.6484 18.2167" stroke="#1B68BB" stroke-miterlimit="10" stroke-linecap="round" stroke-linejoin="round"/>
</g>
</g>
</svg>
