<svg width="13" height="12" viewBox="0 0 13 12" fill="none" xmlns="http://www.w3.org/2000/svg">
<path fill-rule="evenodd" clip-rule="evenodd" d="M7.33301 2.58317C7.33301 2.24568 7.60666 1.97208 7.94411 1.97208C10.3066 1.97208 12.2218 3.88726 12.2218 6.24976C12.2218 7.60093 11.5947 8.80602 10.6179 9.58898C9.88569 10.1759 8.95511 10.5275 7.94411 10.5275C7.60666 10.5275 7.33301 10.2538 7.33301 9.91635C7.33301 9.57886 7.60666 9.30525 7.94411 9.30525C8.66728 9.30525 9.33032 9.05478 9.85354 8.63536C10.5533 8.07439 10.9996 7.21441 10.9996 6.24976C10.9996 4.56226 9.63159 3.19427 7.94411 3.19427C7.60666 3.19427 7.33301 2.92067 7.33301 2.58317Z" fill="#202833"/>
<path fill-rule="evenodd" clip-rule="evenodd" d="M4.88879 9.91635C4.88879 10.2538 4.61514 10.5275 4.27769 10.5275C1.91518 10.5275 0 8.61227 0 6.24976C0 4.8986 0.627109 3.6935 1.60389 2.91055C2.33611 2.32358 3.26669 1.97208 4.27769 1.97208C4.61514 1.97208 4.88879 2.24568 4.88879 2.58317C4.88879 2.92067 4.61514 3.19427 4.27769 3.19427C3.55451 3.19427 2.89147 3.44475 2.36825 3.86417C1.66854 4.42513 1.2222 5.28512 1.2222 6.24976C1.2222 7.93726 2.5902 9.30525 4.27769 9.30525C4.61514 9.30525 4.88879 9.57886 4.88879 9.91635Z" fill="#202833"/>
<path fill-rule="evenodd" clip-rule="evenodd" d="M8.89401 7.57463C9.17487 7.76183 9.25077 8.14125 9.06352 8.42206L8.18024 9.7469L9.5051 10.6301C9.78596 10.8173 9.86186 11.1967 9.67462 11.4776C9.48738 11.7584 9.10801 11.8342 8.82715 11.647L6.99386 10.4248C6.713 10.2376 6.63722 9.85823 6.82434 9.5774L8.04654 7.74411C8.23378 7.4633 8.61314 7.38741 8.89401 7.57463Z" fill="#202833"/>
<path fill-rule="evenodd" clip-rule="evenodd" d="M3.32767 4.92499C3.04681 4.73779 2.97091 4.35837 3.15815 4.07756L4.04143 2.75272L2.71657 1.8695C2.43571 1.6823 2.35981 1.30288 2.54705 1.02206C2.73429 0.741247 3.11366 0.665365 3.39452 0.852577L5.22781 2.07477C5.50868 2.26199 5.58445 2.64139 5.39733 2.92222L4.17514 4.75551C3.9879 5.03632 3.60853 5.11221 3.32767 4.92499Z" fill="#202833"/>
</svg>
