<svg width="23" height="23" viewBox="0 0 23 23" fill="none" xmlns="http://www.w3.org/2000/svg">
<g id="Role">
<g id="Group">
<path id="Vector" d="M15.7544 9.2984C16.7099 10.2539 18.259 10.2539 19.2145 9.2984C20.17 8.3429 20.17 6.79373 19.2145 5.83824C18.259 4.88274 16.7099 4.88274 15.7544 5.83824C14.7989 6.79373 14.7989 8.3429 15.7544 9.2984Z" stroke="#202833" stroke-width="0.65" stroke-miterlimit="10" stroke-linecap="round" stroke-linejoin="round"/>
<path id="Vector_2" d="M16.4257 7.75086L17.0099 8.33515L18.5437 6.80139" stroke="#202833" stroke-width="0.65" stroke-miterlimit="10" stroke-linecap="round" stroke-linejoin="round"/>
<path id="Vector_3" d="M15.7545 9.2984L14.231 10.8219" stroke="#202833" stroke-width="0.65" stroke-miterlimit="10" stroke-linecap="round" stroke-linejoin="round"/>
<path id="Vector_4" d="M9.47964 6.69024C10.4351 7.64574 11.9843 7.64574 12.9398 6.69024C13.8953 5.73475 13.8953 4.18558 12.9398 3.23008C11.9843 2.27458 10.4351 2.27458 9.47964 3.23008C8.52414 4.18558 8.52414 5.73475 9.47964 6.69024Z" stroke="#202833" stroke-width="0.65" stroke-miterlimit="10" stroke-linecap="round" stroke-linejoin="round"/>
<path id="Vector_5" d="M10.1456 5.15589L10.7299 5.74018L12.3001 4.20642" stroke="#202833" stroke-width="0.65" stroke-miterlimit="10" stroke-linecap="round" stroke-linejoin="round"/>
<path id="Vector_6" d="M11.2354 7.41333L11.2354 9.58239" stroke="#202833" stroke-width="0.65" stroke-miterlimit="10" stroke-linecap="round" stroke-linejoin="round"/>
<path id="Vector_7" d="M6.69071 5.81236C7.64613 6.76777 7.64613 8.3171 6.69071 9.27252C5.73529 10.2279 4.18597 10.2279 3.23055 9.27252C2.24931 8.34292 2.24931 6.7936 3.23055 5.81236C4.18597 4.85694 5.7353 4.85694 6.69071 5.81236Z" stroke="#202833" stroke-width="0.65" stroke-miterlimit="10" stroke-linecap="round" stroke-linejoin="round"/>
<path id="Vector_8" d="M3.98494 7.99286L4.70054 8.40601L5.78507 6.52755" stroke="#202833" stroke-width="0.65" stroke-miterlimit="10" stroke-linecap="round" stroke-linejoin="round"/>
<path id="Vector_9" d="M6.69098 9.27252L8.21448 10.796" stroke="#202833" stroke-width="0.65" stroke-miterlimit="10" stroke-linecap="round" stroke-linejoin="round"/>
<g id="Group_2">
<path id="Vector_10" d="M9.13788 18.992V21.1831" stroke="#202833" stroke-width="0.65" stroke-miterlimit="10" stroke-linecap="round" stroke-linejoin="round"/>
<path id="Vector_11" d="M13.5931 18.992V21.1831" stroke="#202833" stroke-width="0.65" stroke-miterlimit="10" stroke-linecap="round" stroke-linejoin="round"/>
<path id="Vector_12" d="M13.6297 12.7473C13.6297 13.9889 12.6072 15.2671 11.3656 15.2671C10.124 15.2671 9.1015 13.9524 9.1015 12.7473C9.1015 11.5057 10.124 10.5197 11.3656 10.5197C12.6072 10.5197 13.6297 11.5422 13.6297 12.7473Z" stroke="#202833" stroke-width="0.65" stroke-miterlimit="10" stroke-linecap="round" stroke-linejoin="round"/>
<path id="Vector_13" d="M10.1239 14.8653V15.7417C10.1239 16.1434 9.79526 16.4356 9.39356 16.4356C8.29802 16.4356 7.38507 17.312 7.38507 18.4075V19.8317C7.38507 20.6717 8.07891 21.3655 8.91883 21.3655H13.7757C14.6156 21.3655 15.3095 20.6717 15.3095 19.8317V18.4075C15.3095 17.312 14.3965 16.4356 13.301 16.4356C12.8993 16.4356 12.5706 16.1069 12.5706 15.7417V14.8653" stroke="#202833" stroke-width="0.65" stroke-miterlimit="10" stroke-linecap="round" stroke-linejoin="round"/>
<path id="Vector_14" d="M9.94135 16.5087C10.7447 17.239 11.9864 17.239 12.8263 16.5087" stroke="#202833" stroke-width="0.65" stroke-miterlimit="10" stroke-linecap="round" stroke-linejoin="round"/>
<path id="Vector_15" d="M9.24738 12.4187C9.24738 12.4187 10.3429 13.076 11.2193 12.4187C12.0958 11.7613 13.52 12.2361 13.52 12.2361" stroke="#202833" stroke-width="0.65" stroke-miterlimit="10" stroke-linecap="round" stroke-linejoin="round"/>
<path id="Vector_16" d="M11.3657 17.093V21.3656" stroke="#202833" stroke-width="0.65" stroke-miterlimit="10" stroke-linecap="round" stroke-linejoin="round"/>
</g>
</g>
</g>
</svg>
