<svg width="46" height="46" viewBox="0 0 46 46" fill="none" xmlns="http://www.w3.org/2000/svg">
<g id="3204008_completed_cryptocurrency_currency_digital_order_icon 1">
<rect x="0.395508" y="0.651367" width="44.6969" height="44.6969" rx="10" fill="#F8F9FA"/>
<g id="Group 2282">
<path id="Vector" d="M30.5717 9.12988L29.8916 12.2947" stroke="#1B68BB" stroke-width="1.00004" stroke-miterlimit="10" stroke-linecap="round" stroke-linejoin="round"/>
<path id="Vector_2" d="M24.5332 9.51465L25.5177 12.5981" stroke="#1B68BB" stroke-width="1.00004" stroke-miterlimit="10" stroke-linecap="round" stroke-linejoin="round"/>
<path id="Vector_3" d="M19.4951 12.8867L21.8795 15.0621" stroke="#1B68BB" stroke-width="1.00004" stroke-miterlimit="10" stroke-linecap="round" stroke-linejoin="round"/>
<path id="Vector_4" d="M16.8086 18.3408L19.9534 19.0253" stroke="#1B68BB" stroke-width="1.00004" stroke-miterlimit="10" stroke-linecap="round" stroke-linejoin="round"/>
<path id="Vector_5" d="M37.0383 28.4332L34.6553 26.2578" stroke="#1B68BB" stroke-width="1.00004" stroke-miterlimit="10" stroke-linecap="round" stroke-linejoin="round"/>
<path id="Vector_6" d="M39.7261 22.9783L36.5811 22.293" stroke="#1B68BB" stroke-width="1.00004" stroke-miterlimit="10" stroke-linecap="round" stroke-linejoin="round"/>
<path id="Vector_7" d="M39.3436 16.9043L36.2793 17.8934" stroke="#1B68BB" stroke-width="1.00004" stroke-miterlimit="10" stroke-linecap="round" stroke-linejoin="round"/>
<path id="Vector_8" d="M35.9918 11.834L33.8301 14.2324" stroke="#1B68BB" stroke-width="1.00004" stroke-miterlimit="10" stroke-linecap="round" stroke-linejoin="round"/>
<path id="Vector_9" d="M21.5117 20.1298C21.7807 16.6133 24.7012 13.8418 28.2675 13.8418C32.007 13.8418 35.0428 16.8954 35.0428 20.659C35.0428 22.5857 34.2485 24.3267 32.9696 25.5667" stroke="#1B68BB" stroke-width="1.00004" stroke-miterlimit="10" stroke-linecap="round" stroke-linejoin="round"/>
<path id="Vector_10" d="M18.21 36.8699V33.8018" stroke="#1B68BB" stroke-width="1.00004" stroke-miterlimit="10" stroke-linecap="round" stroke-linejoin="round"/>
<path id="Vector_11" d="M22.0498 33.8018V36.8699" stroke="#1B68BB" stroke-width="1.00004" stroke-miterlimit="10" stroke-linecap="round" stroke-linejoin="round"/>
<path id="Vector_12" d="M15.3867 36.8701H24.8724" stroke="#1B68BB" stroke-width="1.00004" stroke-miterlimit="10" stroke-linecap="round" stroke-linejoin="round"/>
<path id="Vector_13" d="M34.4982 33.7454C24.9189 33.7454 15.3393 33.7454 5.76074 33.7454C7.49216 29.8775 9.22247 26.0098 10.9539 22.1416C17.0704 22.1416 23.1877 22.1416 29.3042 22.1416C31.0365 26.0095 32.7668 29.8772 34.4982 33.7454Z" stroke="#1B68BB" stroke-width="1.00004" stroke-miterlimit="10" stroke-linecap="round" stroke-linejoin="round"/>
<path id="Vector_14" d="M7.64551 29.0244C15.9454 29.0244 24.2453 29.0244 32.5449 29.0244" stroke="#1B68BB" stroke-width="1.00004" stroke-miterlimit="10" stroke-linecap="round" stroke-linejoin="round"/>
<path id="Vector_15" d="M9.49121 25.3672C16.6393 25.3672 23.7882 25.3672 30.936 25.3672" stroke="#1B68BB" stroke-width="1.00004" stroke-miterlimit="10" stroke-linecap="round" stroke-linejoin="round"/>
<path id="Vector_16" d="M14.1556 22.0977C13.0403 25.9234 11.923 29.7503 10.8057 33.5763" stroke="#1B68BB" stroke-width="1.00004" stroke-miterlimit="10" stroke-linecap="round" stroke-linejoin="round"/>
<path id="Vector_17" d="M17.175 22.0977C16.6223 25.9234 16.0703 29.7503 15.5176 33.5763" stroke="#1B68BB" stroke-width="1.00004" stroke-miterlimit="10" stroke-linecap="round" stroke-linejoin="round"/>
<path id="Vector_18" d="M20.1943 22.0977C20.2064 25.9234 20.219 29.7503 20.2321 33.5763" stroke="#1B68BB" stroke-width="1.00004" stroke-miterlimit="10" stroke-linecap="round" stroke-linejoin="round"/>
<path id="Vector_19" d="M23.2148 22.0977C23.7909 25.9234 24.3675 29.7503 24.9449 33.5763" stroke="#1B68BB" stroke-width="1.00004" stroke-miterlimit="10" stroke-linecap="round" stroke-linejoin="round"/>
<path id="Vector_20" d="M26.2334 22.0977C27.3751 25.9234 28.5165 29.7503 29.6582 33.5763" stroke="#1B68BB" stroke-width="1.00004" stroke-miterlimit="10" stroke-linecap="round" stroke-linejoin="round"/>
</g>
</g>
</svg>
