<svg width="22" height="23" viewBox="0 0 22 23" fill="none" xmlns="http://www.w3.org/2000/svg">
<path d="M19.8169 13.3294C19.9388 12.7413 20 12.1225 20 11.4963C20 10.8775 19.9388 10.2665 19.8169 9.67845L17.7395 9.47971C17.5789 8.90688 17.3498 8.36444 17.0599 7.8606L18.3965 6.24149C18.068 5.75284 17.6939 5.29417 17.2812 4.8741C16.8382 4.42323 16.3417 4.01096 15.8149 3.65207L14.1958 4.99646C13.6915 4.70615 13.1495 4.47702 12.5767 4.31687L12.3857 2.2395C11.7969 2.11673 11.1859 2.05554 10.5518 2.05554C9.92564 2.05554 9.31462 2.11673 8.72619 2.23868L8.53525 4.31646C7.96242 4.47702 7.41998 4.70615 6.91614 4.99605L5.29703 3.65166C4.78539 3.99535 4.31193 4.39243 3.87626 4.82811C3.44099 5.25598 3.0513 5.72944 2.70761 6.23369L4.05201 7.8528C3.76949 8.35705 3.54036 8.89908 3.37981 9.47191L1.28683 9.67804C1.17227 10.2665 1.11108 10.8775 1.11108 11.4963C1.11108 12.1225 1.17227 12.7413 1.28683 13.3294L3.37981 13.5281C3.44879 13.7876 3.54036 14.0397 3.63974 14.2841C3.7621 14.5818 3.89925 14.8721 4.05201 15.1472L2.70761 16.7589C3.4028 17.7826 4.28114 18.661 5.29703 19.3483L6.91614 18.0117C7.42039 18.2943 7.96242 18.516 8.53525 18.6839L8.72619 20.7613C9.26863 20.8759 9.83366 20.9371 10.4065 20.9371C10.4525 20.9445 10.5059 20.9445 10.5518 20.9445C11.1859 20.9445 11.7969 20.8833 12.3849 20.7613L12.5758 18.6839C13.1487 18.516 13.6911 18.2943 14.1949 18.0117L15.8141 19.3483C16.8299 18.661 17.7161 17.7826 18.3957 16.7589L17.0665 15.1472C17.349 14.643 17.5781 14.0931 17.7387 13.5203L19.8169 13.3294Z" stroke="#202833" stroke-width="0.65" stroke-miterlimit="10" stroke-linecap="round" stroke-linejoin="round"/>
<path d="M10.5554 17.3983C13.8129 17.3983 16.4536 14.7576 16.4536 11.5001C16.4536 8.24255 13.8129 5.60181 10.5554 5.60181C7.29785 5.60181 4.6571 8.24255 4.6571 11.5001C4.6571 14.7576 7.29785 17.3983 10.5554 17.3983Z" stroke="#202833" stroke-width="0.65" stroke-miterlimit="10" stroke-linecap="round" stroke-linejoin="round"/>
<path d="M12.4821 9.89333C12.4884 10.5633 12.1502 11.1564 11.6366 11.5053V13.7038C11.6366 14.3012 11.153 14.7848 10.5579 14.7848C10.2602 14.7848 9.98847 14.6629 9.79363 14.4681C9.5968 14.2732 9.47688 14.0035 9.47688 13.7038V11.5053C8.96528 11.1606 8.62915 10.5741 8.62915 9.91042C8.62915 9.17606 9.03792 8.54027 9.63953 8.21497V9.83835C9.63953 9.95656 9.73552 10.0526 9.85374 10.0526H11.2601C11.3783 10.0526 11.4743 9.95685 11.4743 9.83835V8.22351C12.0668 8.55109 12.4758 9.18489 12.4821 9.89333Z" stroke="#202833" stroke-width="0.65" stroke-miterlimit="10" stroke-linecap="round" stroke-linejoin="round"/>
</svg>
