<svg width="23" height="23" viewBox="0 0 23 23" fill="none" xmlns="http://www.w3.org/2000/svg">
<g clip-path="url(#clip0_886_15228)">
<path d="M6 13.5L8.5 12.5L9.5 13L10.5 13.5H12L14 13L15 12.5H16L18 13.5L19 14.5L19.5 16V17.5V19.5L18.5 21L17 22H15.5H12.5H9.5H6.5L5 20.5L4.5 18.5V15.5L6 13.5Z" fill="#D0EDFB"/>
<path d="M7.79333 17.4182V21.535" stroke="#202833" stroke-width="0.6" stroke-miterlimit="10" stroke-linecap="round" stroke-linejoin="round"/>
<path d="M16.1644 17.4182V21.535" stroke="#202833" stroke-width="0.6" stroke-miterlimit="10" stroke-linecap="round" stroke-linejoin="round"/>
<path d="M16.2332 5.68536C16.2332 8.01819 14.312 10.4196 11.9792 10.4196C9.64637 10.4196 7.72522 7.94958 7.72522 5.68536C7.72522 3.35254 9.64637 1.5 11.9792 1.5C14.312 1.5 16.2332 3.42115 16.2332 5.68536Z" stroke="#202833" stroke-width="0.6" stroke-miterlimit="10" stroke-linecap="round" stroke-linejoin="round"/>
<path d="M9.64594 9.66479V11.3115C9.64594 12.0662 9.02843 12.6151 8.27369 12.6151C6.21531 12.6151 4.5 14.2618 4.5 16.3202V18.9961C4.5 20.5742 5.80364 21.8778 7.38173 21.8778H16.5072C18.0853 21.8778 19.3889 20.5742 19.3889 18.9961V16.3202C19.3889 14.2618 17.6736 12.6151 15.6152 12.6151C14.8605 12.6151 14.243 11.9976 14.243 11.3115V9.66479" stroke="#202833" stroke-width="0.6" stroke-miterlimit="10" stroke-linecap="round" stroke-linejoin="round"/>
<path d="M9.3028 12.7523C10.8123 14.1245 13.1451 14.1245 14.7232 12.7523" stroke="#202833" stroke-width="0.6" stroke-miterlimit="10" stroke-linecap="round" stroke-linejoin="round"/>
<path d="M7.99884 5.06772C7.99884 5.06772 10.0572 6.30275 11.7039 5.06772C13.3506 3.8327 16.0265 4.72466 16.0265 4.72466" stroke="#202833" stroke-width="0.6" stroke-miterlimit="10" stroke-linecap="round" stroke-linejoin="round"/>
<path d="M11.9788 13.8503V21.878" stroke="#202833" stroke-width="0.6" stroke-miterlimit="10" stroke-linecap="round" stroke-linejoin="round"/>
</g>
<defs>
<clipPath id="clip0_886_15228">
<rect width="22" height="22" fill="white" transform="translate(0.5 0.5)"/>
</clipPath>
</defs>
</svg>
