<svg width="38" height="37" viewBox="0 0 38 37" fill="none" xmlns="http://www.w3.org/2000/svg">
<rect x="0.554688" width="37" height="37" rx="8" fill="#F8F9FA"/>
<path d="M23.3906 5.55L29.1719 11.3313L23.3906 11.3891V5.55Z" fill="#56AAFF"/>
<path d="M28.3047 10.9844H24.8359C24.2 10.9844 23.6797 10.4641 23.6797 9.82812V6.35938C23.6797 5.72344 23.1594 5.20312 22.5234 5.20312H9.80469C9.16875 5.20312 8.64844 5.72344 8.64844 6.35938V30.6406C8.64844 31.2766 9.16875 31.7969 9.80469 31.7969H28.3047C28.9406 31.7969 29.4609 31.2766 29.4609 30.6406V12.1406C29.4609 11.5047 28.9406 10.9844 28.3047 10.9844Z" fill="#E1E7EC"/>
<path d="M15.263 13C14.7602 13 14.278 13.1844 13.9225 13.5126C13.5669 13.8408 13.3672 14.2859 13.3672 14.75V25.25C13.3672 25.7141 13.5669 26.1592 13.9225 26.4874C14.278 26.8156 14.7602 27 15.263 27H22.8464C23.3492 27 23.8314 26.8156 24.1869 26.4874C24.5424 26.1592 24.7422 25.7141 24.7422 25.25V14.75C24.7422 14.2859 24.5424 13.8408 24.1869 13.5126C23.8314 13.1844 23.3492 13 22.8464 13H15.263ZM15.263 13.875H22.8464C23.0978 13.875 23.3389 13.9672 23.5166 14.1313C23.6944 14.2954 23.7943 14.5179 23.7943 14.75V25.25C23.7943 25.4821 23.6944 25.7046 23.5166 25.8687C23.3389 26.0328 23.0978 26.125 22.8464 26.125H15.263C15.0116 26.125 14.7705 26.0328 14.5927 25.8687C14.415 25.7046 14.3151 25.4821 14.3151 25.25V14.75C14.3151 14.5179 14.415 14.2954 14.5927 14.1313C14.7705 13.9672 15.0116 13.875 15.263 13.875Z" fill="#0478ED"/>
<path d="M15.8346 23.5761C15.6499 23.5079 15.501 23.3762 15.4194 23.2086C15.2346 22.8691 15.2962 22.5296 15.4953 22.2444C15.6829 21.9757 15.9939 21.7474 16.3455 21.5557C16.791 21.3225 17.2619 21.1334 17.7504 20.9914C18.1297 20.3619 18.4659 19.7111 18.757 19.0427C18.583 18.6777 18.4465 18.2983 18.3494 17.9096C18.2679 17.5596 18.2366 17.2131 18.3058 16.9156C18.3769 16.6059 18.5656 16.3276 18.922 16.1955C19.104 16.1281 19.3011 16.0905 19.4926 16.1281C19.5889 16.147 19.6795 16.1855 19.7577 16.2408C19.8359 16.296 19.8998 16.3666 19.9448 16.4475C20.0282 16.591 20.0585 16.759 20.0652 16.9182C20.0718 17.0819 20.0538 17.2639 20.0206 17.4555C19.941 17.9017 19.7647 18.4477 19.5277 19.0252C19.7892 19.5415 20.1001 20.0352 20.4567 20.5005C20.8786 20.4697 21.3029 20.4844 21.7212 20.5442C22.0662 20.6011 22.4169 20.7149 22.6312 20.9511C22.7449 21.0771 22.8141 21.2311 22.8208 21.4044C22.8274 21.5724 22.7762 21.7386 22.6899 21.897C22.6152 22.0438 22.4994 22.1694 22.3544 22.261C22.2111 22.3473 22.0419 22.3896 21.8709 22.3817C21.5572 22.3695 21.251 22.2102 20.9865 22.0169C20.665 21.7714 20.3752 21.4925 20.123 21.1856C19.482 21.2527 18.8485 21.3716 18.23 21.5409C17.9464 22.0046 17.6228 22.4465 17.2622 22.8621C16.9873 23.1684 16.6858 23.4352 16.3844 23.5507C16.2112 23.6231 16.0148 23.6321 15.8346 23.5761ZM17.1418 21.9127C16.9844 21.9792 16.8385 22.0492 16.7067 22.121C16.3958 22.2907 16.1939 22.4561 16.0934 22.5996C16.0043 22.7265 16.0024 22.8184 16.0555 22.9155C16.065 22.9347 16.0744 22.947 16.0801 22.954C16.0914 22.9512 16.1025 22.9477 16.1133 22.9435C16.2432 22.8945 16.4498 22.7379 16.7152 22.443C16.8662 22.2724 17.0085 22.0955 17.1418 21.9127ZM18.6964 20.749C19.0129 20.6807 19.3323 20.6244 19.6538 20.5801C19.4811 20.3364 19.3198 20.0859 19.1703 19.8294C19.0217 20.1396 18.8636 20.446 18.6964 20.7481V20.749ZM21.015 21.1427C21.1572 21.2845 21.2956 21.4052 21.4273 21.5015C21.6548 21.6677 21.8131 21.7229 21.8994 21.7255C21.9225 21.7283 21.9459 21.7236 21.9657 21.7124C22.0052 21.6836 22.0359 21.6459 22.0548 21.603C22.0885 21.5497 22.1077 21.4896 22.1108 21.428C22.1102 21.4074 22.1014 21.3878 22.0861 21.3729C22.0368 21.3186 21.8965 21.2399 21.5951 21.19C21.4034 21.1604 21.2094 21.1449 21.015 21.1436V21.1427ZM19.1286 18.075C19.2084 17.8375 19.2717 17.5955 19.3182 17.3505C19.3476 17.186 19.359 17.0504 19.3542 16.9436C19.3545 16.8847 19.3442 16.8262 19.3239 16.7704C19.2765 16.7758 19.2302 16.7876 19.1864 16.8054C19.104 16.836 19.0367 16.8981 19.0007 17.053C18.9627 17.221 18.9722 17.4634 19.0443 17.7722C19.067 17.8694 19.0954 17.9709 19.1296 18.075H19.1286Z" fill="#0478ED"/>
</svg>
